G75*
%MOIN*%
%OFA0B0*%
%FSLAX25Y25*%
%IPPOS*%
%LPD*%
%AMOC8*
5,1,8,0,0,1.08239X$1,22.5*
%
%ADD10C,0.00000*%
%ADD11R,0.04331X0.03937*%
%ADD12R,0.03937X0.04331*%
%ADD13R,0.04921X0.01969*%
%ADD14C,0.21000*%
%ADD15R,0.02362X0.08661*%
%ADD16C,0.03778*%
%ADD17C,0.07050*%
%ADD18R,0.06600X0.01700*%
%ADD19R,0.07087X0.10236*%
%ADD20C,0.03543*%
%ADD21OC8,0.06000*%
%ADD22C,0.07677*%
%ADD23C,0.04800*%
%ADD24C,0.06000*%
%ADD25C,0.07400*%
%ADD26R,0.04724X0.01378*%
%ADD27R,0.01772X0.03937*%
%ADD28R,0.04803X0.02441*%
%ADD29R,0.02441X0.04803*%
%ADD30R,0.04724X0.01575*%
%ADD31R,0.03900X0.01200*%
%ADD32R,0.07480X0.04331*%
%ADD33OC8,0.03543*%
%ADD34OC8,0.04134*%
%ADD35OC8,0.02953*%
D10*
X0007350Y0002825D02*
X0007350Y0267340D01*
X0027035Y0287025D01*
X0399962Y0287025D01*
X0399962Y0002825D01*
X0007350Y0002825D01*
X0022728Y0016214D02*
X0022730Y0016298D01*
X0022736Y0016381D01*
X0022746Y0016464D01*
X0022760Y0016547D01*
X0022777Y0016629D01*
X0022799Y0016710D01*
X0022824Y0016789D01*
X0022853Y0016868D01*
X0022886Y0016945D01*
X0022922Y0017020D01*
X0022962Y0017094D01*
X0023005Y0017166D01*
X0023052Y0017235D01*
X0023102Y0017302D01*
X0023155Y0017367D01*
X0023211Y0017429D01*
X0023269Y0017489D01*
X0023331Y0017546D01*
X0023395Y0017599D01*
X0023462Y0017650D01*
X0023531Y0017697D01*
X0023602Y0017742D01*
X0023675Y0017782D01*
X0023750Y0017819D01*
X0023827Y0017853D01*
X0023905Y0017883D01*
X0023984Y0017909D01*
X0024065Y0017932D01*
X0024147Y0017950D01*
X0024229Y0017965D01*
X0024312Y0017976D01*
X0024395Y0017983D01*
X0024479Y0017986D01*
X0024563Y0017985D01*
X0024646Y0017980D01*
X0024730Y0017971D01*
X0024812Y0017958D01*
X0024894Y0017942D01*
X0024975Y0017921D01*
X0025056Y0017897D01*
X0025134Y0017869D01*
X0025212Y0017837D01*
X0025288Y0017801D01*
X0025362Y0017762D01*
X0025434Y0017720D01*
X0025504Y0017674D01*
X0025572Y0017625D01*
X0025637Y0017573D01*
X0025700Y0017518D01*
X0025760Y0017460D01*
X0025818Y0017399D01*
X0025872Y0017335D01*
X0025924Y0017269D01*
X0025972Y0017201D01*
X0026017Y0017130D01*
X0026058Y0017057D01*
X0026097Y0016983D01*
X0026131Y0016907D01*
X0026162Y0016829D01*
X0026189Y0016750D01*
X0026213Y0016669D01*
X0026232Y0016588D01*
X0026248Y0016506D01*
X0026260Y0016423D01*
X0026268Y0016339D01*
X0026272Y0016256D01*
X0026272Y0016172D01*
X0026268Y0016089D01*
X0026260Y0016005D01*
X0026248Y0015922D01*
X0026232Y0015840D01*
X0026213Y0015759D01*
X0026189Y0015678D01*
X0026162Y0015599D01*
X0026131Y0015521D01*
X0026097Y0015445D01*
X0026058Y0015371D01*
X0026017Y0015298D01*
X0025972Y0015227D01*
X0025924Y0015159D01*
X0025872Y0015093D01*
X0025818Y0015029D01*
X0025760Y0014968D01*
X0025700Y0014910D01*
X0025637Y0014855D01*
X0025572Y0014803D01*
X0025504Y0014754D01*
X0025434Y0014708D01*
X0025362Y0014666D01*
X0025288Y0014627D01*
X0025212Y0014591D01*
X0025134Y0014559D01*
X0025056Y0014531D01*
X0024975Y0014507D01*
X0024894Y0014486D01*
X0024812Y0014470D01*
X0024730Y0014457D01*
X0024646Y0014448D01*
X0024563Y0014443D01*
X0024479Y0014442D01*
X0024395Y0014445D01*
X0024312Y0014452D01*
X0024229Y0014463D01*
X0024147Y0014478D01*
X0024065Y0014496D01*
X0023984Y0014519D01*
X0023905Y0014545D01*
X0023827Y0014575D01*
X0023750Y0014609D01*
X0023675Y0014646D01*
X0023602Y0014686D01*
X0023531Y0014731D01*
X0023462Y0014778D01*
X0023395Y0014829D01*
X0023331Y0014882D01*
X0023269Y0014939D01*
X0023211Y0014999D01*
X0023155Y0015061D01*
X0023102Y0015126D01*
X0023052Y0015193D01*
X0023005Y0015262D01*
X0022962Y0015334D01*
X0022922Y0015408D01*
X0022886Y0015483D01*
X0022853Y0015560D01*
X0022824Y0015639D01*
X0022799Y0015718D01*
X0022777Y0015799D01*
X0022760Y0015881D01*
X0022746Y0015964D01*
X0022736Y0016047D01*
X0022730Y0016130D01*
X0022728Y0016214D01*
X0022728Y0033536D02*
X0022730Y0033620D01*
X0022736Y0033703D01*
X0022746Y0033786D01*
X0022760Y0033869D01*
X0022777Y0033951D01*
X0022799Y0034032D01*
X0022824Y0034111D01*
X0022853Y0034190D01*
X0022886Y0034267D01*
X0022922Y0034342D01*
X0022962Y0034416D01*
X0023005Y0034488D01*
X0023052Y0034557D01*
X0023102Y0034624D01*
X0023155Y0034689D01*
X0023211Y0034751D01*
X0023269Y0034811D01*
X0023331Y0034868D01*
X0023395Y0034921D01*
X0023462Y0034972D01*
X0023531Y0035019D01*
X0023602Y0035064D01*
X0023675Y0035104D01*
X0023750Y0035141D01*
X0023827Y0035175D01*
X0023905Y0035205D01*
X0023984Y0035231D01*
X0024065Y0035254D01*
X0024147Y0035272D01*
X0024229Y0035287D01*
X0024312Y0035298D01*
X0024395Y0035305D01*
X0024479Y0035308D01*
X0024563Y0035307D01*
X0024646Y0035302D01*
X0024730Y0035293D01*
X0024812Y0035280D01*
X0024894Y0035264D01*
X0024975Y0035243D01*
X0025056Y0035219D01*
X0025134Y0035191D01*
X0025212Y0035159D01*
X0025288Y0035123D01*
X0025362Y0035084D01*
X0025434Y0035042D01*
X0025504Y0034996D01*
X0025572Y0034947D01*
X0025637Y0034895D01*
X0025700Y0034840D01*
X0025760Y0034782D01*
X0025818Y0034721D01*
X0025872Y0034657D01*
X0025924Y0034591D01*
X0025972Y0034523D01*
X0026017Y0034452D01*
X0026058Y0034379D01*
X0026097Y0034305D01*
X0026131Y0034229D01*
X0026162Y0034151D01*
X0026189Y0034072D01*
X0026213Y0033991D01*
X0026232Y0033910D01*
X0026248Y0033828D01*
X0026260Y0033745D01*
X0026268Y0033661D01*
X0026272Y0033578D01*
X0026272Y0033494D01*
X0026268Y0033411D01*
X0026260Y0033327D01*
X0026248Y0033244D01*
X0026232Y0033162D01*
X0026213Y0033081D01*
X0026189Y0033000D01*
X0026162Y0032921D01*
X0026131Y0032843D01*
X0026097Y0032767D01*
X0026058Y0032693D01*
X0026017Y0032620D01*
X0025972Y0032549D01*
X0025924Y0032481D01*
X0025872Y0032415D01*
X0025818Y0032351D01*
X0025760Y0032290D01*
X0025700Y0032232D01*
X0025637Y0032177D01*
X0025572Y0032125D01*
X0025504Y0032076D01*
X0025434Y0032030D01*
X0025362Y0031988D01*
X0025288Y0031949D01*
X0025212Y0031913D01*
X0025134Y0031881D01*
X0025056Y0031853D01*
X0024975Y0031829D01*
X0024894Y0031808D01*
X0024812Y0031792D01*
X0024730Y0031779D01*
X0024646Y0031770D01*
X0024563Y0031765D01*
X0024479Y0031764D01*
X0024395Y0031767D01*
X0024312Y0031774D01*
X0024229Y0031785D01*
X0024147Y0031800D01*
X0024065Y0031818D01*
X0023984Y0031841D01*
X0023905Y0031867D01*
X0023827Y0031897D01*
X0023750Y0031931D01*
X0023675Y0031968D01*
X0023602Y0032008D01*
X0023531Y0032053D01*
X0023462Y0032100D01*
X0023395Y0032151D01*
X0023331Y0032204D01*
X0023269Y0032261D01*
X0023211Y0032321D01*
X0023155Y0032383D01*
X0023102Y0032448D01*
X0023052Y0032515D01*
X0023005Y0032584D01*
X0022962Y0032656D01*
X0022922Y0032730D01*
X0022886Y0032805D01*
X0022853Y0032882D01*
X0022824Y0032961D01*
X0022799Y0033040D01*
X0022777Y0033121D01*
X0022760Y0033203D01*
X0022746Y0033286D01*
X0022736Y0033369D01*
X0022730Y0033452D01*
X0022728Y0033536D01*
X0310592Y0269025D02*
X0310594Y0269109D01*
X0310600Y0269192D01*
X0310610Y0269275D01*
X0310624Y0269358D01*
X0310641Y0269440D01*
X0310663Y0269521D01*
X0310688Y0269600D01*
X0310717Y0269679D01*
X0310750Y0269756D01*
X0310786Y0269831D01*
X0310826Y0269905D01*
X0310869Y0269977D01*
X0310916Y0270046D01*
X0310966Y0270113D01*
X0311019Y0270178D01*
X0311075Y0270240D01*
X0311133Y0270300D01*
X0311195Y0270357D01*
X0311259Y0270410D01*
X0311326Y0270461D01*
X0311395Y0270508D01*
X0311466Y0270553D01*
X0311539Y0270593D01*
X0311614Y0270630D01*
X0311691Y0270664D01*
X0311769Y0270694D01*
X0311848Y0270720D01*
X0311929Y0270743D01*
X0312011Y0270761D01*
X0312093Y0270776D01*
X0312176Y0270787D01*
X0312259Y0270794D01*
X0312343Y0270797D01*
X0312427Y0270796D01*
X0312510Y0270791D01*
X0312594Y0270782D01*
X0312676Y0270769D01*
X0312758Y0270753D01*
X0312839Y0270732D01*
X0312920Y0270708D01*
X0312998Y0270680D01*
X0313076Y0270648D01*
X0313152Y0270612D01*
X0313226Y0270573D01*
X0313298Y0270531D01*
X0313368Y0270485D01*
X0313436Y0270436D01*
X0313501Y0270384D01*
X0313564Y0270329D01*
X0313624Y0270271D01*
X0313682Y0270210D01*
X0313736Y0270146D01*
X0313788Y0270080D01*
X0313836Y0270012D01*
X0313881Y0269941D01*
X0313922Y0269868D01*
X0313961Y0269794D01*
X0313995Y0269718D01*
X0314026Y0269640D01*
X0314053Y0269561D01*
X0314077Y0269480D01*
X0314096Y0269399D01*
X0314112Y0269317D01*
X0314124Y0269234D01*
X0314132Y0269150D01*
X0314136Y0269067D01*
X0314136Y0268983D01*
X0314132Y0268900D01*
X0314124Y0268816D01*
X0314112Y0268733D01*
X0314096Y0268651D01*
X0314077Y0268570D01*
X0314053Y0268489D01*
X0314026Y0268410D01*
X0313995Y0268332D01*
X0313961Y0268256D01*
X0313922Y0268182D01*
X0313881Y0268109D01*
X0313836Y0268038D01*
X0313788Y0267970D01*
X0313736Y0267904D01*
X0313682Y0267840D01*
X0313624Y0267779D01*
X0313564Y0267721D01*
X0313501Y0267666D01*
X0313436Y0267614D01*
X0313368Y0267565D01*
X0313298Y0267519D01*
X0313226Y0267477D01*
X0313152Y0267438D01*
X0313076Y0267402D01*
X0312998Y0267370D01*
X0312920Y0267342D01*
X0312839Y0267318D01*
X0312758Y0267297D01*
X0312676Y0267281D01*
X0312594Y0267268D01*
X0312510Y0267259D01*
X0312427Y0267254D01*
X0312343Y0267253D01*
X0312259Y0267256D01*
X0312176Y0267263D01*
X0312093Y0267274D01*
X0312011Y0267289D01*
X0311929Y0267307D01*
X0311848Y0267330D01*
X0311769Y0267356D01*
X0311691Y0267386D01*
X0311614Y0267420D01*
X0311539Y0267457D01*
X0311466Y0267497D01*
X0311395Y0267542D01*
X0311326Y0267589D01*
X0311259Y0267640D01*
X0311195Y0267693D01*
X0311133Y0267750D01*
X0311075Y0267810D01*
X0311019Y0267872D01*
X0310966Y0267937D01*
X0310916Y0268004D01*
X0310869Y0268073D01*
X0310826Y0268145D01*
X0310786Y0268219D01*
X0310750Y0268294D01*
X0310717Y0268371D01*
X0310688Y0268450D01*
X0310663Y0268529D01*
X0310641Y0268610D01*
X0310624Y0268692D01*
X0310610Y0268775D01*
X0310600Y0268858D01*
X0310594Y0268941D01*
X0310592Y0269025D01*
X0327914Y0269025D02*
X0327916Y0269109D01*
X0327922Y0269192D01*
X0327932Y0269275D01*
X0327946Y0269358D01*
X0327963Y0269440D01*
X0327985Y0269521D01*
X0328010Y0269600D01*
X0328039Y0269679D01*
X0328072Y0269756D01*
X0328108Y0269831D01*
X0328148Y0269905D01*
X0328191Y0269977D01*
X0328238Y0270046D01*
X0328288Y0270113D01*
X0328341Y0270178D01*
X0328397Y0270240D01*
X0328455Y0270300D01*
X0328517Y0270357D01*
X0328581Y0270410D01*
X0328648Y0270461D01*
X0328717Y0270508D01*
X0328788Y0270553D01*
X0328861Y0270593D01*
X0328936Y0270630D01*
X0329013Y0270664D01*
X0329091Y0270694D01*
X0329170Y0270720D01*
X0329251Y0270743D01*
X0329333Y0270761D01*
X0329415Y0270776D01*
X0329498Y0270787D01*
X0329581Y0270794D01*
X0329665Y0270797D01*
X0329749Y0270796D01*
X0329832Y0270791D01*
X0329916Y0270782D01*
X0329998Y0270769D01*
X0330080Y0270753D01*
X0330161Y0270732D01*
X0330242Y0270708D01*
X0330320Y0270680D01*
X0330398Y0270648D01*
X0330474Y0270612D01*
X0330548Y0270573D01*
X0330620Y0270531D01*
X0330690Y0270485D01*
X0330758Y0270436D01*
X0330823Y0270384D01*
X0330886Y0270329D01*
X0330946Y0270271D01*
X0331004Y0270210D01*
X0331058Y0270146D01*
X0331110Y0270080D01*
X0331158Y0270012D01*
X0331203Y0269941D01*
X0331244Y0269868D01*
X0331283Y0269794D01*
X0331317Y0269718D01*
X0331348Y0269640D01*
X0331375Y0269561D01*
X0331399Y0269480D01*
X0331418Y0269399D01*
X0331434Y0269317D01*
X0331446Y0269234D01*
X0331454Y0269150D01*
X0331458Y0269067D01*
X0331458Y0268983D01*
X0331454Y0268900D01*
X0331446Y0268816D01*
X0331434Y0268733D01*
X0331418Y0268651D01*
X0331399Y0268570D01*
X0331375Y0268489D01*
X0331348Y0268410D01*
X0331317Y0268332D01*
X0331283Y0268256D01*
X0331244Y0268182D01*
X0331203Y0268109D01*
X0331158Y0268038D01*
X0331110Y0267970D01*
X0331058Y0267904D01*
X0331004Y0267840D01*
X0330946Y0267779D01*
X0330886Y0267721D01*
X0330823Y0267666D01*
X0330758Y0267614D01*
X0330690Y0267565D01*
X0330620Y0267519D01*
X0330548Y0267477D01*
X0330474Y0267438D01*
X0330398Y0267402D01*
X0330320Y0267370D01*
X0330242Y0267342D01*
X0330161Y0267318D01*
X0330080Y0267297D01*
X0329998Y0267281D01*
X0329916Y0267268D01*
X0329832Y0267259D01*
X0329749Y0267254D01*
X0329665Y0267253D01*
X0329581Y0267256D01*
X0329498Y0267263D01*
X0329415Y0267274D01*
X0329333Y0267289D01*
X0329251Y0267307D01*
X0329170Y0267330D01*
X0329091Y0267356D01*
X0329013Y0267386D01*
X0328936Y0267420D01*
X0328861Y0267457D01*
X0328788Y0267497D01*
X0328717Y0267542D01*
X0328648Y0267589D01*
X0328581Y0267640D01*
X0328517Y0267693D01*
X0328455Y0267750D01*
X0328397Y0267810D01*
X0328341Y0267872D01*
X0328288Y0267937D01*
X0328238Y0268004D01*
X0328191Y0268073D01*
X0328148Y0268145D01*
X0328108Y0268219D01*
X0328072Y0268294D01*
X0328039Y0268371D01*
X0328010Y0268450D01*
X0327985Y0268529D01*
X0327963Y0268610D01*
X0327946Y0268692D01*
X0327932Y0268775D01*
X0327922Y0268858D01*
X0327916Y0268941D01*
X0327914Y0269025D01*
D11*
G36*
X0196719Y0172502D02*
X0199780Y0175563D01*
X0202563Y0172780D01*
X0199502Y0169719D01*
X0196719Y0172502D01*
G37*
G36*
X0191987Y0167770D02*
X0195048Y0170831D01*
X0197831Y0168048D01*
X0194770Y0164987D01*
X0191987Y0167770D01*
G37*
G36*
X0187280Y0164987D02*
X0184219Y0168048D01*
X0187002Y0170831D01*
X0190063Y0167770D01*
X0187280Y0164987D01*
G37*
G36*
X0182280Y0159987D02*
X0179219Y0163048D01*
X0182002Y0165831D01*
X0185063Y0162770D01*
X0182280Y0159987D01*
G37*
G36*
X0177280Y0154987D02*
X0174219Y0158048D01*
X0177002Y0160831D01*
X0180063Y0157770D01*
X0177280Y0154987D01*
G37*
G36*
X0172280Y0149987D02*
X0169219Y0153048D01*
X0172002Y0155831D01*
X0175063Y0152770D01*
X0172280Y0149987D01*
G37*
G36*
X0175063Y0145280D02*
X0172002Y0142219D01*
X0169219Y0145002D01*
X0172280Y0148063D01*
X0175063Y0145280D01*
G37*
G36*
X0180063Y0140280D02*
X0177002Y0137219D01*
X0174219Y0140002D01*
X0177280Y0143063D01*
X0180063Y0140280D01*
G37*
G36*
X0185063Y0135280D02*
X0182002Y0132219D01*
X0179219Y0135002D01*
X0182280Y0138063D01*
X0185063Y0135280D01*
G37*
G36*
X0190063Y0130280D02*
X0187002Y0127219D01*
X0184219Y0130002D01*
X0187280Y0133063D01*
X0190063Y0130280D01*
G37*
G36*
X0194770Y0133063D02*
X0197831Y0130002D01*
X0195048Y0127219D01*
X0191987Y0130280D01*
X0194770Y0133063D01*
G37*
G36*
X0199770Y0138063D02*
X0202831Y0135002D01*
X0200048Y0132219D01*
X0196987Y0135280D01*
X0199770Y0138063D01*
G37*
G36*
X0204770Y0143063D02*
X0207831Y0140002D01*
X0205048Y0137219D01*
X0201987Y0140280D01*
X0204770Y0143063D01*
G37*
G36*
X0209770Y0148063D02*
X0212831Y0145002D01*
X0210048Y0142219D01*
X0206987Y0145280D01*
X0209770Y0148063D01*
G37*
G36*
X0206987Y0152770D02*
X0210048Y0155831D01*
X0212831Y0153048D01*
X0209770Y0149987D01*
X0206987Y0152770D01*
G37*
G36*
X0201987Y0157770D02*
X0205048Y0160831D01*
X0207831Y0158048D01*
X0204770Y0154987D01*
X0201987Y0157770D01*
G37*
G36*
X0196987Y0162770D02*
X0200048Y0165831D01*
X0202831Y0163048D01*
X0199770Y0159987D01*
X0196987Y0162770D01*
G37*
G36*
X0201719Y0167502D02*
X0204780Y0170563D01*
X0207563Y0167780D01*
X0204502Y0164719D01*
X0201719Y0167502D01*
G37*
G36*
X0206719Y0162502D02*
X0209780Y0165563D01*
X0212563Y0162780D01*
X0209502Y0159719D01*
X0206719Y0162502D01*
G37*
G36*
X0211719Y0157502D02*
X0214780Y0160563D01*
X0217563Y0157780D01*
X0214502Y0154719D01*
X0211719Y0157502D01*
G37*
G36*
X0214502Y0143331D02*
X0217563Y0140270D01*
X0214780Y0137487D01*
X0211719Y0140548D01*
X0214502Y0143331D01*
G37*
G36*
X0209502Y0138331D02*
X0212563Y0135270D01*
X0209780Y0132487D01*
X0206719Y0135548D01*
X0209502Y0138331D01*
G37*
G36*
X0204502Y0133331D02*
X0207563Y0130270D01*
X0204780Y0127487D01*
X0201719Y0130548D01*
X0204502Y0133331D01*
G37*
G36*
X0199502Y0128331D02*
X0202563Y0125270D01*
X0199780Y0122487D01*
X0196719Y0125548D01*
X0199502Y0128331D01*
G37*
G36*
X0185331Y0125548D02*
X0182270Y0122487D01*
X0179487Y0125270D01*
X0182548Y0128331D01*
X0185331Y0125548D01*
G37*
G36*
X0180331Y0130548D02*
X0177270Y0127487D01*
X0174487Y0130270D01*
X0177548Y0133331D01*
X0180331Y0130548D01*
G37*
G36*
X0175331Y0135548D02*
X0172270Y0132487D01*
X0169487Y0135270D01*
X0172548Y0138331D01*
X0175331Y0135548D01*
G37*
G36*
X0170331Y0140548D02*
X0167270Y0137487D01*
X0164487Y0140270D01*
X0167548Y0143331D01*
X0170331Y0140548D01*
G37*
G36*
X0167548Y0154719D02*
X0164487Y0157780D01*
X0167270Y0160563D01*
X0170331Y0157502D01*
X0167548Y0154719D01*
G37*
G36*
X0172548Y0159719D02*
X0169487Y0162780D01*
X0172270Y0165563D01*
X0175331Y0162502D01*
X0172548Y0159719D01*
G37*
G36*
X0177548Y0164719D02*
X0174487Y0167780D01*
X0177270Y0170563D01*
X0180331Y0167502D01*
X0177548Y0164719D01*
G37*
G36*
X0182548Y0169719D02*
X0179487Y0172780D01*
X0182270Y0175563D01*
X0185331Y0172502D01*
X0182548Y0169719D01*
G37*
X0138525Y0154871D03*
X0138525Y0148179D03*
X0131025Y0148179D03*
X0131025Y0154871D03*
X0154989Y0078880D03*
X0161682Y0078880D03*
X0161682Y0070768D03*
X0154989Y0070768D03*
X0144371Y0069025D03*
X0137679Y0069025D03*
X0131871Y0069025D03*
X0125179Y0069025D03*
X0082275Y0068621D03*
X0082275Y0061929D03*
X0074775Y0061929D03*
X0074775Y0068621D03*
X0067275Y0068621D03*
X0067275Y0061929D03*
X0059775Y0061929D03*
X0059775Y0068621D03*
X0170179Y0029025D03*
X0176871Y0029025D03*
X0206025Y0031929D03*
X0206025Y0038621D03*
D12*
X0194371Y0020275D03*
X0187679Y0020275D03*
X0186871Y0012775D03*
X0180179Y0012775D03*
X0195179Y0012775D03*
X0201871Y0012775D03*
X0176871Y0036525D03*
X0170179Y0036525D03*
X0139257Y0083696D03*
X0139257Y0090389D03*
X0131909Y0090238D03*
X0131909Y0083545D03*
X0102275Y0079871D03*
X0102275Y0073179D03*
X0102275Y0067371D03*
X0102275Y0060679D03*
D13*
X0035946Y0052765D03*
X0035946Y0049025D03*
X0035946Y0045285D03*
X0026104Y0045285D03*
X0026104Y0049025D03*
X0026104Y0052765D03*
D14*
X0191025Y0149025D03*
D15*
X0188525Y0050511D03*
X0193525Y0050511D03*
X0198525Y0050511D03*
X0183525Y0050511D03*
X0183525Y0030039D03*
X0188525Y0030039D03*
X0193525Y0030039D03*
X0198525Y0030039D03*
X0354900Y0141426D03*
X0359900Y0141426D03*
X0364900Y0141426D03*
X0369900Y0141426D03*
X0374900Y0141426D03*
X0379900Y0141426D03*
X0384900Y0141426D03*
X0389900Y0141426D03*
X0389900Y0161899D03*
X0384900Y0161899D03*
X0379900Y0161899D03*
X0374900Y0161899D03*
X0369900Y0161899D03*
X0364900Y0161899D03*
X0359900Y0161899D03*
X0354900Y0161899D03*
D16*
X0144775Y0078414D02*
X0144775Y0074636D01*
X0124775Y0074636D02*
X0124775Y0078414D01*
X0096664Y0080275D02*
X0092886Y0080275D01*
X0092886Y0060275D02*
X0096664Y0060275D01*
D17*
X0109775Y0027550D02*
X0109775Y0020500D01*
X0129775Y0020500D02*
X0129775Y0027550D01*
X0149775Y0027550D02*
X0149775Y0020500D01*
D18*
X0082725Y0030025D03*
X0082725Y0032525D03*
X0082725Y0035125D03*
X0082725Y0037725D03*
X0082725Y0040225D03*
X0082725Y0042825D03*
X0082725Y0045325D03*
X0082725Y0047925D03*
X0082725Y0050525D03*
X0082725Y0053025D03*
X0054325Y0053025D03*
X0054325Y0050525D03*
X0054325Y0047925D03*
X0054325Y0045325D03*
X0054325Y0042825D03*
X0054325Y0040225D03*
X0054325Y0037725D03*
X0054325Y0035125D03*
X0054325Y0032525D03*
X0054325Y0030025D03*
D19*
X0151818Y0088331D03*
X0163629Y0088331D03*
X0163629Y0105654D03*
X0151818Y0105654D03*
D20*
X0024500Y0033536D03*
X0024500Y0016214D03*
X0312364Y0269025D03*
X0329686Y0269025D03*
D21*
X0218525Y0266525D03*
X0208525Y0266525D03*
X0198525Y0266525D03*
X0188525Y0266525D03*
X0178525Y0266525D03*
X0168525Y0266525D03*
X0158525Y0266525D03*
X0148525Y0266525D03*
X0138525Y0266525D03*
X0128525Y0266525D03*
X0118525Y0266525D03*
X0108525Y0266525D03*
X0098525Y0266525D03*
X0088525Y0266525D03*
X0078525Y0266525D03*
X0068525Y0266525D03*
X0058525Y0266525D03*
X0048525Y0266525D03*
X0038525Y0266525D03*
X0028525Y0266525D03*
X0028525Y0276525D03*
X0038525Y0276525D03*
X0048525Y0276525D03*
X0058525Y0276525D03*
X0068525Y0276525D03*
X0078525Y0276525D03*
X0088525Y0276525D03*
X0098525Y0276525D03*
X0108525Y0276525D03*
X0118525Y0276525D03*
X0128525Y0276525D03*
X0138525Y0276525D03*
X0148525Y0276525D03*
X0158525Y0276525D03*
X0168525Y0276525D03*
X0178525Y0276525D03*
X0188525Y0276525D03*
X0198525Y0276525D03*
X0208525Y0276525D03*
X0218525Y0276525D03*
D22*
X0228869Y0280255D03*
X0231232Y0260964D03*
X0288318Y0260964D03*
X0290681Y0280255D03*
D23*
X0091025Y0015175D02*
X0091025Y0010375D01*
X0081025Y0010375D02*
X0081025Y0015175D01*
X0071025Y0015175D02*
X0071025Y0010375D01*
X0061025Y0010375D02*
X0061025Y0015175D01*
X0051025Y0015175D02*
X0051025Y0010375D01*
D24*
X0333025Y0222775D02*
X0339025Y0222775D01*
X0339025Y0232775D02*
X0333025Y0232775D01*
D25*
X0020213Y0089475D03*
X0020213Y0078075D03*
D26*
X0362109Y0253174D03*
X0362109Y0255733D03*
X0362109Y0258292D03*
X0362109Y0260851D03*
X0362109Y0266649D03*
X0362109Y0269208D03*
X0362109Y0271767D03*
X0362109Y0274326D03*
X0385141Y0274326D03*
X0385141Y0271767D03*
X0385141Y0269208D03*
X0385141Y0266649D03*
X0385141Y0260851D03*
X0385141Y0258292D03*
X0385141Y0255733D03*
X0385141Y0253174D03*
D27*
X0386936Y0239971D03*
X0389495Y0239971D03*
X0392055Y0239971D03*
X0394614Y0239971D03*
X0394614Y0223829D03*
X0392055Y0223829D03*
X0389495Y0223829D03*
X0386936Y0223829D03*
X0376239Y0223829D03*
X0373680Y0223829D03*
X0371120Y0223829D03*
X0368561Y0223829D03*
X0357864Y0223829D03*
X0355305Y0223829D03*
X0352745Y0223829D03*
X0350186Y0223829D03*
X0350186Y0239971D03*
X0352745Y0239971D03*
X0355305Y0239971D03*
X0357864Y0239971D03*
X0368561Y0239971D03*
X0371120Y0239971D03*
X0373680Y0239971D03*
X0376239Y0239971D03*
D28*
X0378307Y0208078D03*
X0378307Y0204337D03*
X0378307Y0200597D03*
X0388543Y0200597D03*
X0388543Y0204337D03*
X0388543Y0208078D03*
X0367106Y0208078D03*
X0367106Y0204337D03*
X0367106Y0200597D03*
X0356869Y0200597D03*
X0356869Y0204337D03*
X0356869Y0208078D03*
D29*
X0357635Y0190468D03*
X0361375Y0190468D03*
X0365115Y0190468D03*
X0365115Y0180232D03*
X0361375Y0180232D03*
X0357635Y0180232D03*
X0380910Y0180232D03*
X0384650Y0180232D03*
X0388390Y0180232D03*
X0388390Y0190468D03*
X0384650Y0190468D03*
X0380910Y0190468D03*
D30*
X0385370Y0122590D03*
X0385370Y0120031D03*
X0385370Y0117472D03*
X0385370Y0114912D03*
X0385370Y0112353D03*
X0385370Y0109794D03*
X0385370Y0107235D03*
X0358205Y0107235D03*
X0358205Y0109794D03*
X0358205Y0112353D03*
X0358205Y0114912D03*
X0358205Y0117472D03*
X0358205Y0120031D03*
X0358205Y0122590D03*
D31*
X0361525Y0092128D03*
X0361525Y0089569D03*
X0361525Y0087010D03*
X0361525Y0084451D03*
X0361525Y0081892D03*
X0361525Y0079333D03*
X0361525Y0076774D03*
X0361525Y0074215D03*
X0361525Y0071656D03*
X0361525Y0069097D03*
X0361525Y0057107D03*
X0361525Y0054548D03*
X0361525Y0051989D03*
X0361525Y0049430D03*
X0361525Y0046870D03*
X0361525Y0044311D03*
X0361525Y0041752D03*
X0361525Y0039193D03*
X0384500Y0039193D03*
X0384500Y0041752D03*
X0384500Y0044311D03*
X0384500Y0046870D03*
X0384500Y0049430D03*
X0384500Y0051989D03*
X0384500Y0054548D03*
X0384500Y0057107D03*
X0384500Y0069097D03*
X0384500Y0071656D03*
X0384500Y0074215D03*
X0384500Y0076774D03*
X0384500Y0079333D03*
X0384500Y0081892D03*
X0384500Y0084451D03*
X0384500Y0087010D03*
X0384500Y0089569D03*
X0384500Y0092128D03*
D32*
X0379683Y0021440D03*
X0379683Y0012385D03*
X0365117Y0012385D03*
X0365117Y0021440D03*
D33*
X0330138Y0008338D03*
X0313600Y0019975D03*
X0306863Y0007112D03*
X0290938Y0007112D03*
X0295838Y0019975D03*
X0279300Y0018750D03*
X0261537Y0019363D03*
X0261537Y0031612D03*
X0243162Y0033450D03*
X0243162Y0043862D03*
X0226012Y0032838D03*
X0210087Y0022425D03*
X0218050Y0007112D03*
X0240100Y0007112D03*
X0243775Y0019975D03*
X0265213Y0007112D03*
X0295838Y0035288D03*
X0305638Y0054275D03*
X0301350Y0067138D03*
X0311763Y0077550D03*
X0290938Y0087962D03*
X0296450Y0117362D03*
X0270113Y0125325D03*
X0252350Y0143088D03*
X0259087Y0150438D03*
X0252962Y0161463D03*
X0262763Y0171263D03*
X0270113Y0160850D03*
X0290325Y0143700D03*
X0305025Y0136350D03*
X0238262Y0086737D03*
X0230300Y0081838D03*
X0211925Y0053662D03*
X0173337Y0020588D03*
X0140263Y0032838D03*
X0118825Y0033450D03*
X0102287Y0042025D03*
X0088525Y0040275D03*
X0115762Y0059175D03*
X0088200Y0086125D03*
X0066025Y0087775D03*
X0066763Y0095312D03*
X0050225Y0103275D03*
X0060637Y0122875D03*
X0057575Y0143700D03*
X0078400Y0144313D03*
X0087275Y0155275D03*
X0078400Y0157788D03*
X0092487Y0145538D03*
X0099837Y0134513D03*
X0135975Y0170038D03*
X0161088Y0189025D03*
X0169050Y0197600D03*
X0188037Y0194537D03*
X0192275Y0234000D03*
X0192275Y0251525D03*
X0254187Y0271100D03*
X0265213Y0271100D03*
X0296450Y0269875D03*
X0283588Y0238025D03*
X0273175Y0234962D03*
X0261537Y0229450D03*
X0289713Y0224550D03*
X0287875Y0210462D03*
X0298288Y0200662D03*
X0336263Y0078163D03*
X0156800Y0054887D03*
X0044775Y0046525D03*
X0046550Y0023037D03*
X0028525Y0075275D03*
X0012275Y0104025D03*
X0026950Y0110012D03*
X0029400Y0143088D03*
X0033688Y0151663D03*
X0061250Y0174937D03*
X0054512Y0196375D03*
X0071050Y0195762D03*
X0081463Y0198212D03*
X0081463Y0208012D03*
X0107275Y0189025D03*
X0097387Y0187800D03*
X0126025Y0202162D03*
X0131000Y0197162D03*
X0033688Y0177387D03*
X0028787Y0193925D03*
X0029400Y0215362D03*
X0020213Y0216587D03*
X0019600Y0228225D03*
D34*
X0173525Y0241525D03*
X0224775Y0256525D03*
D35*
X0065661Y0225275D03*
X0024775Y0251525D03*
X0087275Y0096525D03*
X0156025Y0065275D03*
X0176025Y0057775D03*
X0172275Y0045275D03*
M02*
