G75*
%MOIN*%
%OFA0B0*%
%FSLAX25Y25*%
%IPPOS*%
%LPD*%
%AMOC8*
5,1,8,0,0,1.08239X$1,22.5*
%
%ADD10C,0.00000*%
%ADD11C,0.00300*%
%ADD12C,0.00400*%
%ADD13C,0.00787*%
%ADD14C,0.00600*%
%ADD15C,0.00800*%
%ADD16C,0.00500*%
%ADD17C,0.00100*%
%ADD18C,0.02559*%
%ADD19C,0.01575*%
%ADD20C,0.00787*%
%ADD21C,0.03150*%
%ADD22C,0.00200*%
D10*
X0007350Y0002825D02*
X0007350Y0267340D01*
X0027035Y0287025D01*
X0399962Y0287025D01*
X0399962Y0002825D01*
X0007350Y0002825D01*
X0022728Y0016214D02*
X0022730Y0016298D01*
X0022736Y0016381D01*
X0022746Y0016464D01*
X0022760Y0016547D01*
X0022777Y0016629D01*
X0022799Y0016710D01*
X0022824Y0016789D01*
X0022853Y0016868D01*
X0022886Y0016945D01*
X0022922Y0017020D01*
X0022962Y0017094D01*
X0023005Y0017166D01*
X0023052Y0017235D01*
X0023102Y0017302D01*
X0023155Y0017367D01*
X0023211Y0017429D01*
X0023269Y0017489D01*
X0023331Y0017546D01*
X0023395Y0017599D01*
X0023462Y0017650D01*
X0023531Y0017697D01*
X0023602Y0017742D01*
X0023675Y0017782D01*
X0023750Y0017819D01*
X0023827Y0017853D01*
X0023905Y0017883D01*
X0023984Y0017909D01*
X0024065Y0017932D01*
X0024147Y0017950D01*
X0024229Y0017965D01*
X0024312Y0017976D01*
X0024395Y0017983D01*
X0024479Y0017986D01*
X0024563Y0017985D01*
X0024646Y0017980D01*
X0024730Y0017971D01*
X0024812Y0017958D01*
X0024894Y0017942D01*
X0024975Y0017921D01*
X0025056Y0017897D01*
X0025134Y0017869D01*
X0025212Y0017837D01*
X0025288Y0017801D01*
X0025362Y0017762D01*
X0025434Y0017720D01*
X0025504Y0017674D01*
X0025572Y0017625D01*
X0025637Y0017573D01*
X0025700Y0017518D01*
X0025760Y0017460D01*
X0025818Y0017399D01*
X0025872Y0017335D01*
X0025924Y0017269D01*
X0025972Y0017201D01*
X0026017Y0017130D01*
X0026058Y0017057D01*
X0026097Y0016983D01*
X0026131Y0016907D01*
X0026162Y0016829D01*
X0026189Y0016750D01*
X0026213Y0016669D01*
X0026232Y0016588D01*
X0026248Y0016506D01*
X0026260Y0016423D01*
X0026268Y0016339D01*
X0026272Y0016256D01*
X0026272Y0016172D01*
X0026268Y0016089D01*
X0026260Y0016005D01*
X0026248Y0015922D01*
X0026232Y0015840D01*
X0026213Y0015759D01*
X0026189Y0015678D01*
X0026162Y0015599D01*
X0026131Y0015521D01*
X0026097Y0015445D01*
X0026058Y0015371D01*
X0026017Y0015298D01*
X0025972Y0015227D01*
X0025924Y0015159D01*
X0025872Y0015093D01*
X0025818Y0015029D01*
X0025760Y0014968D01*
X0025700Y0014910D01*
X0025637Y0014855D01*
X0025572Y0014803D01*
X0025504Y0014754D01*
X0025434Y0014708D01*
X0025362Y0014666D01*
X0025288Y0014627D01*
X0025212Y0014591D01*
X0025134Y0014559D01*
X0025056Y0014531D01*
X0024975Y0014507D01*
X0024894Y0014486D01*
X0024812Y0014470D01*
X0024730Y0014457D01*
X0024646Y0014448D01*
X0024563Y0014443D01*
X0024479Y0014442D01*
X0024395Y0014445D01*
X0024312Y0014452D01*
X0024229Y0014463D01*
X0024147Y0014478D01*
X0024065Y0014496D01*
X0023984Y0014519D01*
X0023905Y0014545D01*
X0023827Y0014575D01*
X0023750Y0014609D01*
X0023675Y0014646D01*
X0023602Y0014686D01*
X0023531Y0014731D01*
X0023462Y0014778D01*
X0023395Y0014829D01*
X0023331Y0014882D01*
X0023269Y0014939D01*
X0023211Y0014999D01*
X0023155Y0015061D01*
X0023102Y0015126D01*
X0023052Y0015193D01*
X0023005Y0015262D01*
X0022962Y0015334D01*
X0022922Y0015408D01*
X0022886Y0015483D01*
X0022853Y0015560D01*
X0022824Y0015639D01*
X0022799Y0015718D01*
X0022777Y0015799D01*
X0022760Y0015881D01*
X0022746Y0015964D01*
X0022736Y0016047D01*
X0022730Y0016130D01*
X0022728Y0016214D01*
X0022728Y0033536D02*
X0022730Y0033620D01*
X0022736Y0033703D01*
X0022746Y0033786D01*
X0022760Y0033869D01*
X0022777Y0033951D01*
X0022799Y0034032D01*
X0022824Y0034111D01*
X0022853Y0034190D01*
X0022886Y0034267D01*
X0022922Y0034342D01*
X0022962Y0034416D01*
X0023005Y0034488D01*
X0023052Y0034557D01*
X0023102Y0034624D01*
X0023155Y0034689D01*
X0023211Y0034751D01*
X0023269Y0034811D01*
X0023331Y0034868D01*
X0023395Y0034921D01*
X0023462Y0034972D01*
X0023531Y0035019D01*
X0023602Y0035064D01*
X0023675Y0035104D01*
X0023750Y0035141D01*
X0023827Y0035175D01*
X0023905Y0035205D01*
X0023984Y0035231D01*
X0024065Y0035254D01*
X0024147Y0035272D01*
X0024229Y0035287D01*
X0024312Y0035298D01*
X0024395Y0035305D01*
X0024479Y0035308D01*
X0024563Y0035307D01*
X0024646Y0035302D01*
X0024730Y0035293D01*
X0024812Y0035280D01*
X0024894Y0035264D01*
X0024975Y0035243D01*
X0025056Y0035219D01*
X0025134Y0035191D01*
X0025212Y0035159D01*
X0025288Y0035123D01*
X0025362Y0035084D01*
X0025434Y0035042D01*
X0025504Y0034996D01*
X0025572Y0034947D01*
X0025637Y0034895D01*
X0025700Y0034840D01*
X0025760Y0034782D01*
X0025818Y0034721D01*
X0025872Y0034657D01*
X0025924Y0034591D01*
X0025972Y0034523D01*
X0026017Y0034452D01*
X0026058Y0034379D01*
X0026097Y0034305D01*
X0026131Y0034229D01*
X0026162Y0034151D01*
X0026189Y0034072D01*
X0026213Y0033991D01*
X0026232Y0033910D01*
X0026248Y0033828D01*
X0026260Y0033745D01*
X0026268Y0033661D01*
X0026272Y0033578D01*
X0026272Y0033494D01*
X0026268Y0033411D01*
X0026260Y0033327D01*
X0026248Y0033244D01*
X0026232Y0033162D01*
X0026213Y0033081D01*
X0026189Y0033000D01*
X0026162Y0032921D01*
X0026131Y0032843D01*
X0026097Y0032767D01*
X0026058Y0032693D01*
X0026017Y0032620D01*
X0025972Y0032549D01*
X0025924Y0032481D01*
X0025872Y0032415D01*
X0025818Y0032351D01*
X0025760Y0032290D01*
X0025700Y0032232D01*
X0025637Y0032177D01*
X0025572Y0032125D01*
X0025504Y0032076D01*
X0025434Y0032030D01*
X0025362Y0031988D01*
X0025288Y0031949D01*
X0025212Y0031913D01*
X0025134Y0031881D01*
X0025056Y0031853D01*
X0024975Y0031829D01*
X0024894Y0031808D01*
X0024812Y0031792D01*
X0024730Y0031779D01*
X0024646Y0031770D01*
X0024563Y0031765D01*
X0024479Y0031764D01*
X0024395Y0031767D01*
X0024312Y0031774D01*
X0024229Y0031785D01*
X0024147Y0031800D01*
X0024065Y0031818D01*
X0023984Y0031841D01*
X0023905Y0031867D01*
X0023827Y0031897D01*
X0023750Y0031931D01*
X0023675Y0031968D01*
X0023602Y0032008D01*
X0023531Y0032053D01*
X0023462Y0032100D01*
X0023395Y0032151D01*
X0023331Y0032204D01*
X0023269Y0032261D01*
X0023211Y0032321D01*
X0023155Y0032383D01*
X0023102Y0032448D01*
X0023052Y0032515D01*
X0023005Y0032584D01*
X0022962Y0032656D01*
X0022922Y0032730D01*
X0022886Y0032805D01*
X0022853Y0032882D01*
X0022824Y0032961D01*
X0022799Y0033040D01*
X0022777Y0033121D01*
X0022760Y0033203D01*
X0022746Y0033286D01*
X0022736Y0033369D01*
X0022730Y0033452D01*
X0022728Y0033536D01*
X0067325Y0056325D02*
X0067327Y0056256D01*
X0067333Y0056188D01*
X0067343Y0056120D01*
X0067356Y0056053D01*
X0067374Y0055987D01*
X0067395Y0055922D01*
X0067420Y0055858D01*
X0067448Y0055796D01*
X0067480Y0055735D01*
X0067515Y0055676D01*
X0067554Y0055620D01*
X0067596Y0055565D01*
X0067641Y0055514D01*
X0067689Y0055464D01*
X0067739Y0055418D01*
X0067792Y0055375D01*
X0067848Y0055334D01*
X0067905Y0055297D01*
X0067965Y0055264D01*
X0068027Y0055233D01*
X0068090Y0055207D01*
X0068154Y0055184D01*
X0068220Y0055164D01*
X0068287Y0055149D01*
X0068354Y0055137D01*
X0068422Y0055129D01*
X0068491Y0055125D01*
X0068559Y0055125D01*
X0068628Y0055129D01*
X0068696Y0055137D01*
X0068763Y0055149D01*
X0068830Y0055164D01*
X0068896Y0055184D01*
X0068960Y0055207D01*
X0069023Y0055233D01*
X0069085Y0055264D01*
X0069145Y0055297D01*
X0069202Y0055334D01*
X0069258Y0055375D01*
X0069311Y0055418D01*
X0069361Y0055464D01*
X0069409Y0055514D01*
X0069454Y0055565D01*
X0069496Y0055620D01*
X0069535Y0055676D01*
X0069570Y0055735D01*
X0069602Y0055796D01*
X0069630Y0055858D01*
X0069655Y0055922D01*
X0069676Y0055987D01*
X0069694Y0056053D01*
X0069707Y0056120D01*
X0069717Y0056188D01*
X0069723Y0056256D01*
X0069725Y0056325D01*
X0310592Y0269025D02*
X0310594Y0269109D01*
X0310600Y0269192D01*
X0310610Y0269275D01*
X0310624Y0269358D01*
X0310641Y0269440D01*
X0310663Y0269521D01*
X0310688Y0269600D01*
X0310717Y0269679D01*
X0310750Y0269756D01*
X0310786Y0269831D01*
X0310826Y0269905D01*
X0310869Y0269977D01*
X0310916Y0270046D01*
X0310966Y0270113D01*
X0311019Y0270178D01*
X0311075Y0270240D01*
X0311133Y0270300D01*
X0311195Y0270357D01*
X0311259Y0270410D01*
X0311326Y0270461D01*
X0311395Y0270508D01*
X0311466Y0270553D01*
X0311539Y0270593D01*
X0311614Y0270630D01*
X0311691Y0270664D01*
X0311769Y0270694D01*
X0311848Y0270720D01*
X0311929Y0270743D01*
X0312011Y0270761D01*
X0312093Y0270776D01*
X0312176Y0270787D01*
X0312259Y0270794D01*
X0312343Y0270797D01*
X0312427Y0270796D01*
X0312510Y0270791D01*
X0312594Y0270782D01*
X0312676Y0270769D01*
X0312758Y0270753D01*
X0312839Y0270732D01*
X0312920Y0270708D01*
X0312998Y0270680D01*
X0313076Y0270648D01*
X0313152Y0270612D01*
X0313226Y0270573D01*
X0313298Y0270531D01*
X0313368Y0270485D01*
X0313436Y0270436D01*
X0313501Y0270384D01*
X0313564Y0270329D01*
X0313624Y0270271D01*
X0313682Y0270210D01*
X0313736Y0270146D01*
X0313788Y0270080D01*
X0313836Y0270012D01*
X0313881Y0269941D01*
X0313922Y0269868D01*
X0313961Y0269794D01*
X0313995Y0269718D01*
X0314026Y0269640D01*
X0314053Y0269561D01*
X0314077Y0269480D01*
X0314096Y0269399D01*
X0314112Y0269317D01*
X0314124Y0269234D01*
X0314132Y0269150D01*
X0314136Y0269067D01*
X0314136Y0268983D01*
X0314132Y0268900D01*
X0314124Y0268816D01*
X0314112Y0268733D01*
X0314096Y0268651D01*
X0314077Y0268570D01*
X0314053Y0268489D01*
X0314026Y0268410D01*
X0313995Y0268332D01*
X0313961Y0268256D01*
X0313922Y0268182D01*
X0313881Y0268109D01*
X0313836Y0268038D01*
X0313788Y0267970D01*
X0313736Y0267904D01*
X0313682Y0267840D01*
X0313624Y0267779D01*
X0313564Y0267721D01*
X0313501Y0267666D01*
X0313436Y0267614D01*
X0313368Y0267565D01*
X0313298Y0267519D01*
X0313226Y0267477D01*
X0313152Y0267438D01*
X0313076Y0267402D01*
X0312998Y0267370D01*
X0312920Y0267342D01*
X0312839Y0267318D01*
X0312758Y0267297D01*
X0312676Y0267281D01*
X0312594Y0267268D01*
X0312510Y0267259D01*
X0312427Y0267254D01*
X0312343Y0267253D01*
X0312259Y0267256D01*
X0312176Y0267263D01*
X0312093Y0267274D01*
X0312011Y0267289D01*
X0311929Y0267307D01*
X0311848Y0267330D01*
X0311769Y0267356D01*
X0311691Y0267386D01*
X0311614Y0267420D01*
X0311539Y0267457D01*
X0311466Y0267497D01*
X0311395Y0267542D01*
X0311326Y0267589D01*
X0311259Y0267640D01*
X0311195Y0267693D01*
X0311133Y0267750D01*
X0311075Y0267810D01*
X0311019Y0267872D01*
X0310966Y0267937D01*
X0310916Y0268004D01*
X0310869Y0268073D01*
X0310826Y0268145D01*
X0310786Y0268219D01*
X0310750Y0268294D01*
X0310717Y0268371D01*
X0310688Y0268450D01*
X0310663Y0268529D01*
X0310641Y0268610D01*
X0310624Y0268692D01*
X0310610Y0268775D01*
X0310600Y0268858D01*
X0310594Y0268941D01*
X0310592Y0269025D01*
X0327914Y0269025D02*
X0327916Y0269109D01*
X0327922Y0269192D01*
X0327932Y0269275D01*
X0327946Y0269358D01*
X0327963Y0269440D01*
X0327985Y0269521D01*
X0328010Y0269600D01*
X0328039Y0269679D01*
X0328072Y0269756D01*
X0328108Y0269831D01*
X0328148Y0269905D01*
X0328191Y0269977D01*
X0328238Y0270046D01*
X0328288Y0270113D01*
X0328341Y0270178D01*
X0328397Y0270240D01*
X0328455Y0270300D01*
X0328517Y0270357D01*
X0328581Y0270410D01*
X0328648Y0270461D01*
X0328717Y0270508D01*
X0328788Y0270553D01*
X0328861Y0270593D01*
X0328936Y0270630D01*
X0329013Y0270664D01*
X0329091Y0270694D01*
X0329170Y0270720D01*
X0329251Y0270743D01*
X0329333Y0270761D01*
X0329415Y0270776D01*
X0329498Y0270787D01*
X0329581Y0270794D01*
X0329665Y0270797D01*
X0329749Y0270796D01*
X0329832Y0270791D01*
X0329916Y0270782D01*
X0329998Y0270769D01*
X0330080Y0270753D01*
X0330161Y0270732D01*
X0330242Y0270708D01*
X0330320Y0270680D01*
X0330398Y0270648D01*
X0330474Y0270612D01*
X0330548Y0270573D01*
X0330620Y0270531D01*
X0330690Y0270485D01*
X0330758Y0270436D01*
X0330823Y0270384D01*
X0330886Y0270329D01*
X0330946Y0270271D01*
X0331004Y0270210D01*
X0331058Y0270146D01*
X0331110Y0270080D01*
X0331158Y0270012D01*
X0331203Y0269941D01*
X0331244Y0269868D01*
X0331283Y0269794D01*
X0331317Y0269718D01*
X0331348Y0269640D01*
X0331375Y0269561D01*
X0331399Y0269480D01*
X0331418Y0269399D01*
X0331434Y0269317D01*
X0331446Y0269234D01*
X0331454Y0269150D01*
X0331458Y0269067D01*
X0331458Y0268983D01*
X0331454Y0268900D01*
X0331446Y0268816D01*
X0331434Y0268733D01*
X0331418Y0268651D01*
X0331399Y0268570D01*
X0331375Y0268489D01*
X0331348Y0268410D01*
X0331317Y0268332D01*
X0331283Y0268256D01*
X0331244Y0268182D01*
X0331203Y0268109D01*
X0331158Y0268038D01*
X0331110Y0267970D01*
X0331058Y0267904D01*
X0331004Y0267840D01*
X0330946Y0267779D01*
X0330886Y0267721D01*
X0330823Y0267666D01*
X0330758Y0267614D01*
X0330690Y0267565D01*
X0330620Y0267519D01*
X0330548Y0267477D01*
X0330474Y0267438D01*
X0330398Y0267402D01*
X0330320Y0267370D01*
X0330242Y0267342D01*
X0330161Y0267318D01*
X0330080Y0267297D01*
X0329998Y0267281D01*
X0329916Y0267268D01*
X0329832Y0267259D01*
X0329749Y0267254D01*
X0329665Y0267253D01*
X0329581Y0267256D01*
X0329498Y0267263D01*
X0329415Y0267274D01*
X0329333Y0267289D01*
X0329251Y0267307D01*
X0329170Y0267330D01*
X0329091Y0267356D01*
X0329013Y0267386D01*
X0328936Y0267420D01*
X0328861Y0267457D01*
X0328788Y0267497D01*
X0328717Y0267542D01*
X0328648Y0267589D01*
X0328581Y0267640D01*
X0328517Y0267693D01*
X0328455Y0267750D01*
X0328397Y0267810D01*
X0328341Y0267872D01*
X0328288Y0267937D01*
X0328238Y0268004D01*
X0328191Y0268073D01*
X0328148Y0268145D01*
X0328108Y0268219D01*
X0328072Y0268294D01*
X0328039Y0268371D01*
X0328010Y0268450D01*
X0327985Y0268529D01*
X0327963Y0268610D01*
X0327946Y0268692D01*
X0327932Y0268775D01*
X0327922Y0268858D01*
X0327916Y0268941D01*
X0327914Y0269025D01*
D11*
X0364476Y0246752D02*
X0364476Y0246134D01*
X0365093Y0245517D01*
X0366328Y0245517D01*
X0366945Y0246134D01*
X0366945Y0246752D01*
X0366328Y0247369D01*
X0365093Y0247369D01*
X0364476Y0246752D01*
X0365093Y0245517D02*
X0364476Y0244900D01*
X0364476Y0244283D01*
X0365093Y0243666D01*
X0366328Y0243666D01*
X0366945Y0244283D01*
X0366945Y0244900D01*
X0366328Y0245517D01*
X0368159Y0245517D02*
X0368777Y0244900D01*
X0370628Y0244900D01*
X0370628Y0243666D02*
X0370628Y0247369D01*
X0368777Y0247369D01*
X0368159Y0246752D01*
X0368159Y0245517D01*
X0371842Y0244283D02*
X0372460Y0243666D01*
X0373694Y0243666D01*
X0374311Y0244283D01*
X0374311Y0246752D01*
X0373694Y0247369D01*
X0372460Y0247369D01*
X0371842Y0246752D01*
X0371842Y0244283D01*
X0375526Y0244283D02*
X0376143Y0243666D01*
X0377377Y0243666D01*
X0377994Y0244283D01*
X0379209Y0243666D02*
X0379209Y0247369D01*
X0380443Y0246134D01*
X0381678Y0247369D01*
X0381678Y0243666D01*
X0377994Y0246134D02*
X0377377Y0245517D01*
X0376143Y0245517D01*
X0375526Y0244900D01*
X0375526Y0244283D01*
X0375526Y0246752D02*
X0376143Y0247369D01*
X0377377Y0247369D01*
X0377994Y0246752D01*
X0377994Y0246134D01*
X0377394Y0132921D02*
X0376788Y0132314D01*
X0376788Y0129888D01*
X0377394Y0129281D01*
X0378608Y0129281D01*
X0379214Y0129888D01*
X0379214Y0132314D01*
X0378608Y0132921D01*
X0377394Y0132921D01*
X0375589Y0132921D02*
X0373162Y0132921D01*
X0374376Y0132921D02*
X0374376Y0129281D01*
X0371964Y0129888D02*
X0371357Y0129281D01*
X0370144Y0129281D01*
X0369537Y0129888D01*
X0369537Y0130494D01*
X0370144Y0131101D01*
X0370751Y0131101D01*
X0370144Y0131101D02*
X0369537Y0131708D01*
X0369537Y0132314D01*
X0370144Y0132921D01*
X0371357Y0132921D01*
X0371964Y0132314D01*
X0368339Y0132314D02*
X0367732Y0132921D01*
X0366519Y0132921D01*
X0365912Y0132314D01*
X0365912Y0131708D01*
X0366519Y0131101D01*
X0365912Y0130494D01*
X0365912Y0129888D01*
X0366519Y0129281D01*
X0367732Y0129281D01*
X0368339Y0129888D01*
X0367126Y0131101D02*
X0366519Y0131101D01*
X0364714Y0129888D02*
X0362287Y0132314D01*
X0362287Y0132921D01*
X0364714Y0132921D01*
X0364714Y0129888D02*
X0364714Y0129281D01*
X0380413Y0129888D02*
X0381019Y0129281D01*
X0382233Y0129281D01*
X0382839Y0129888D01*
X0382233Y0131101D02*
X0381019Y0131101D01*
X0380413Y0130494D01*
X0380413Y0129888D01*
X0382233Y0131101D02*
X0382839Y0131708D01*
X0382839Y0132314D01*
X0382233Y0132921D01*
X0381019Y0132921D01*
X0380413Y0132314D01*
X0379581Y0029953D02*
X0382050Y0029953D01*
X0382050Y0028102D01*
X0380816Y0028719D01*
X0380198Y0028719D01*
X0379581Y0028102D01*
X0379581Y0026867D01*
X0380198Y0026250D01*
X0381433Y0026250D01*
X0382050Y0026867D01*
X0378367Y0026250D02*
X0375898Y0028719D01*
X0374684Y0029336D02*
X0374067Y0029953D01*
X0372832Y0029953D01*
X0372215Y0029336D01*
X0372215Y0028719D01*
X0372832Y0028102D01*
X0372215Y0027484D01*
X0372215Y0026867D01*
X0372832Y0026250D01*
X0374067Y0026250D01*
X0374684Y0026867D01*
X0375898Y0026250D02*
X0378367Y0028719D01*
X0373449Y0028102D02*
X0372832Y0028102D01*
X0367317Y0029336D02*
X0366700Y0029953D01*
X0365466Y0029953D01*
X0364849Y0029336D01*
X0364849Y0026867D01*
X0365466Y0026250D01*
X0366700Y0026250D01*
X0367317Y0026867D01*
X0367317Y0029336D01*
X0363634Y0029336D02*
X0363017Y0029953D01*
X0361783Y0029953D01*
X0361166Y0029336D01*
X0359951Y0029336D02*
X0359334Y0029953D01*
X0358100Y0029953D01*
X0357482Y0029336D01*
X0357482Y0026867D02*
X0358100Y0026250D01*
X0359334Y0026250D01*
X0359951Y0026867D01*
X0359951Y0029336D01*
X0361783Y0028102D02*
X0361166Y0027484D01*
X0361166Y0026867D01*
X0361783Y0026250D01*
X0363017Y0026250D01*
X0363634Y0026867D01*
X0363017Y0028102D02*
X0361783Y0028102D01*
X0363017Y0028102D02*
X0363634Y0028719D01*
X0363634Y0029336D01*
D12*
X0362597Y0059750D02*
X0360195Y0059750D01*
X0361396Y0059750D02*
X0361396Y0063353D01*
X0362597Y0062152D01*
X0363878Y0062753D02*
X0363878Y0061552D01*
X0364478Y0060951D01*
X0366280Y0060951D01*
X0366280Y0059750D02*
X0366280Y0063353D01*
X0364478Y0063353D01*
X0363878Y0062753D01*
X0367561Y0062753D02*
X0367561Y0060351D01*
X0368162Y0059750D01*
X0369363Y0059750D01*
X0369963Y0060351D01*
X0369963Y0062753D01*
X0369363Y0063353D01*
X0368162Y0063353D01*
X0367561Y0062753D01*
X0371244Y0062753D02*
X0371845Y0063353D01*
X0373046Y0063353D01*
X0373646Y0062753D01*
X0373646Y0062152D01*
X0373046Y0061552D01*
X0371845Y0061552D01*
X0371244Y0060951D01*
X0371244Y0060351D01*
X0371845Y0059750D01*
X0373046Y0059750D01*
X0373646Y0060351D01*
X0374927Y0060351D02*
X0375528Y0059750D01*
X0376729Y0059750D01*
X0377329Y0060351D01*
X0376729Y0061552D02*
X0377329Y0062152D01*
X0377329Y0062753D01*
X0376729Y0063353D01*
X0375528Y0063353D01*
X0374927Y0062753D01*
X0375528Y0061552D02*
X0374927Y0060951D01*
X0374927Y0060351D01*
X0375528Y0061552D02*
X0376729Y0061552D01*
X0378610Y0063353D02*
X0381012Y0063353D01*
X0379811Y0063353D02*
X0379811Y0059750D01*
X0358914Y0060351D02*
X0358313Y0059750D01*
X0357112Y0059750D01*
X0356512Y0060351D01*
X0356512Y0060951D01*
X0357112Y0061552D01*
X0358914Y0061552D01*
X0358914Y0060351D01*
X0358914Y0061552D02*
X0357713Y0062753D01*
X0356512Y0063353D01*
X0356512Y0094772D02*
X0358914Y0094772D01*
X0356512Y0097174D01*
X0356512Y0097774D01*
X0357112Y0098375D01*
X0358313Y0098375D01*
X0358914Y0097774D01*
X0360195Y0096573D02*
X0362597Y0096573D01*
X0363878Y0096573D02*
X0364478Y0095973D01*
X0366280Y0095973D01*
X0366280Y0094772D02*
X0366280Y0098375D01*
X0364478Y0098375D01*
X0363878Y0097774D01*
X0363878Y0096573D01*
X0367561Y0095372D02*
X0367561Y0097774D01*
X0368162Y0098375D01*
X0369363Y0098375D01*
X0369963Y0097774D01*
X0369963Y0095372D01*
X0369363Y0094772D01*
X0368162Y0094772D01*
X0367561Y0095372D01*
X0371244Y0095372D02*
X0371845Y0094772D01*
X0373046Y0094772D01*
X0373646Y0095372D01*
X0374927Y0095372D02*
X0375528Y0094772D01*
X0376729Y0094772D01*
X0377329Y0095372D01*
X0376729Y0096573D02*
X0377329Y0097174D01*
X0377329Y0097774D01*
X0376729Y0098375D01*
X0375528Y0098375D01*
X0374927Y0097774D01*
X0373646Y0097774D02*
X0373646Y0097174D01*
X0373046Y0096573D01*
X0371845Y0096573D01*
X0371244Y0095973D01*
X0371244Y0095372D01*
X0371244Y0097774D02*
X0371845Y0098375D01*
X0373046Y0098375D01*
X0373646Y0097774D01*
X0374927Y0095973D02*
X0374927Y0095372D01*
X0374927Y0095973D02*
X0375528Y0096573D01*
X0376729Y0096573D01*
X0378610Y0098375D02*
X0381012Y0098375D01*
X0379811Y0098375D02*
X0379811Y0094772D01*
X0355230Y0095372D02*
X0352828Y0097774D01*
X0352828Y0095372D01*
X0353429Y0094772D01*
X0354630Y0094772D01*
X0355230Y0095372D01*
X0355230Y0097774D01*
X0354630Y0098375D01*
X0353429Y0098375D01*
X0352828Y0097774D01*
X0365424Y0170638D02*
X0364656Y0171405D01*
X0364656Y0172172D01*
X0365424Y0172939D01*
X0367726Y0172939D01*
X0367726Y0171405D01*
X0366958Y0170638D01*
X0365424Y0170638D01*
X0367726Y0172939D02*
X0366191Y0174474D01*
X0364656Y0175241D01*
X0370795Y0175241D02*
X0370795Y0170638D01*
X0372330Y0170638D02*
X0369260Y0170638D01*
X0372330Y0173707D02*
X0370795Y0175241D01*
X0373864Y0174474D02*
X0373864Y0171405D01*
X0374632Y0170638D01*
X0376166Y0170638D01*
X0376934Y0171405D01*
X0376934Y0174474D01*
X0376166Y0175241D01*
X0374632Y0175241D01*
X0373864Y0174474D01*
X0378468Y0174474D02*
X0379236Y0175241D01*
X0380770Y0175241D01*
X0381537Y0174474D01*
X0381537Y0173707D01*
X0380770Y0172939D01*
X0379236Y0172939D01*
X0378468Y0172172D01*
X0378468Y0171405D01*
X0379236Y0170638D01*
X0380770Y0170638D01*
X0381537Y0171405D01*
X0382161Y0212625D02*
X0383362Y0212625D01*
X0383962Y0213226D01*
X0383362Y0214427D02*
X0382161Y0214427D01*
X0381560Y0213826D01*
X0381560Y0213226D01*
X0382161Y0212625D01*
X0380279Y0213226D02*
X0380279Y0215628D01*
X0379679Y0216228D01*
X0378478Y0216228D01*
X0377877Y0215628D01*
X0377877Y0213226D01*
X0378478Y0212625D01*
X0379679Y0212625D01*
X0380279Y0213226D01*
X0381560Y0215628D02*
X0382161Y0216228D01*
X0383362Y0216228D01*
X0383962Y0215628D01*
X0383962Y0215027D01*
X0383362Y0214427D01*
X0376596Y0216228D02*
X0374194Y0216228D01*
X0375395Y0216228D02*
X0375395Y0212625D01*
X0372913Y0214427D02*
X0370511Y0214427D01*
X0369230Y0215628D02*
X0368629Y0216228D01*
X0367428Y0216228D01*
X0366828Y0215628D01*
X0366828Y0215027D01*
X0369230Y0212625D01*
X0366828Y0212625D01*
X0365547Y0213226D02*
X0364946Y0212625D01*
X0363745Y0212625D01*
X0363145Y0213226D01*
X0363145Y0213826D01*
X0363745Y0214427D01*
X0364346Y0214427D01*
X0363745Y0214427D02*
X0363145Y0215027D01*
X0363145Y0215628D01*
X0363745Y0216228D01*
X0364946Y0216228D01*
X0365547Y0215628D01*
X0361864Y0214427D02*
X0359462Y0214427D01*
X0358180Y0214427D02*
X0356379Y0214427D01*
X0355778Y0213826D01*
X0355778Y0213226D01*
X0356379Y0212625D01*
X0357580Y0212625D01*
X0358180Y0213226D01*
X0358180Y0214427D01*
X0356979Y0215628D01*
X0355778Y0216228D01*
X0364223Y0277085D02*
X0365758Y0277085D01*
X0366525Y0277852D01*
X0366525Y0278620D01*
X0365758Y0279387D01*
X0364223Y0279387D01*
X0363456Y0278620D01*
X0363456Y0277852D01*
X0364223Y0277085D01*
X0364223Y0279387D02*
X0363456Y0280154D01*
X0363456Y0280922D01*
X0364223Y0281689D01*
X0365758Y0281689D01*
X0366525Y0280922D01*
X0366525Y0280154D01*
X0365758Y0279387D01*
X0368060Y0279387D02*
X0368827Y0278620D01*
X0371129Y0278620D01*
X0371129Y0277085D02*
X0371129Y0281689D01*
X0368827Y0281689D01*
X0368060Y0280922D01*
X0368060Y0279387D01*
X0372664Y0277852D02*
X0372664Y0280922D01*
X0373431Y0281689D01*
X0374966Y0281689D01*
X0375733Y0280922D01*
X0375733Y0277852D01*
X0374966Y0277085D01*
X0373431Y0277085D01*
X0372664Y0277852D01*
X0377268Y0277852D02*
X0378035Y0277085D01*
X0379570Y0277085D01*
X0380337Y0277852D01*
X0381871Y0277852D02*
X0382639Y0277085D01*
X0384173Y0277085D01*
X0384941Y0277852D01*
X0384173Y0279387D02*
X0382639Y0279387D01*
X0381871Y0278620D01*
X0381871Y0277852D01*
X0379570Y0279387D02*
X0378035Y0279387D01*
X0377268Y0278620D01*
X0377268Y0277852D01*
X0379570Y0279387D02*
X0380337Y0280154D01*
X0380337Y0280922D01*
X0379570Y0281689D01*
X0378035Y0281689D01*
X0377268Y0280922D01*
X0381871Y0280922D02*
X0382639Y0281689D01*
X0384173Y0281689D01*
X0384941Y0280922D01*
X0384941Y0280154D01*
X0384173Y0279387D01*
X0227252Y0167263D02*
X0227252Y0166178D01*
X0226166Y0165093D01*
X0225081Y0165093D01*
X0223996Y0164007D02*
X0223996Y0162922D01*
X0222911Y0161837D01*
X0221826Y0161837D01*
X0221283Y0162380D01*
X0221283Y0163465D01*
X0221826Y0164007D01*
X0221283Y0163465D02*
X0220198Y0163465D01*
X0219655Y0164007D01*
X0219655Y0165093D01*
X0220741Y0166178D01*
X0221826Y0166178D01*
X0222911Y0167263D02*
X0222911Y0168348D01*
X0223996Y0169433D01*
X0225081Y0169433D01*
X0227252Y0167263D01*
X0222252Y0171178D02*
X0221166Y0170093D01*
X0220081Y0170093D01*
X0218996Y0169007D02*
X0218996Y0167922D01*
X0217911Y0166837D01*
X0216826Y0166837D01*
X0216283Y0167380D01*
X0216283Y0168465D01*
X0217911Y0170093D01*
X0218996Y0169007D01*
X0217911Y0170093D02*
X0215741Y0170093D01*
X0214113Y0169550D01*
X0214113Y0167380D02*
X0211943Y0167380D01*
X0215198Y0164124D01*
X0216283Y0165209D02*
X0214113Y0163039D01*
X0215857Y0161295D02*
X0217485Y0161837D01*
X0219655Y0161837D01*
X0218028Y0160209D01*
X0218028Y0159124D01*
X0218570Y0158582D01*
X0219655Y0158582D01*
X0220741Y0159667D01*
X0220741Y0160752D01*
X0219655Y0161837D01*
X0210741Y0169667D02*
X0209655Y0168582D01*
X0208570Y0168582D01*
X0206400Y0170752D01*
X0206400Y0171837D01*
X0207485Y0172922D01*
X0208570Y0172922D01*
X0209113Y0172380D01*
X0209113Y0171295D01*
X0207485Y0169667D01*
X0210741Y0169667D02*
X0210741Y0170752D01*
X0211826Y0171837D02*
X0212911Y0171837D01*
X0213996Y0172922D01*
X0213996Y0174007D01*
X0212911Y0175093D02*
X0211283Y0174550D01*
X0210741Y0174007D01*
X0210741Y0172922D01*
X0211826Y0171837D01*
X0212911Y0175093D02*
X0211283Y0176720D01*
X0209113Y0174550D01*
X0207911Y0176837D02*
X0204655Y0180093D01*
X0207911Y0180093D01*
X0205741Y0177922D01*
X0204655Y0176837D02*
X0203028Y0175209D01*
X0203028Y0174124D01*
X0203570Y0173582D01*
X0204655Y0173582D01*
X0205741Y0174667D01*
X0205741Y0175752D01*
X0204655Y0176837D01*
X0202485Y0176837D01*
X0200857Y0176295D01*
X0207911Y0182263D02*
X0207911Y0183348D01*
X0208996Y0184433D01*
X0210081Y0184433D01*
X0212252Y0182263D01*
X0212252Y0181178D01*
X0211166Y0180093D01*
X0210081Y0180093D01*
X0212911Y0178348D02*
X0213996Y0179433D01*
X0215081Y0179433D01*
X0217252Y0177263D01*
X0217252Y0176178D01*
X0216166Y0175093D01*
X0215081Y0175093D01*
X0212911Y0177263D02*
X0212911Y0178348D01*
X0217911Y0173348D02*
X0218996Y0174433D01*
X0220081Y0174433D01*
X0222252Y0172263D01*
X0222252Y0171178D01*
X0217911Y0172263D02*
X0217911Y0173348D01*
X0182273Y0175771D02*
X0180103Y0173600D01*
X0179018Y0173600D01*
X0177933Y0174686D01*
X0177933Y0175771D01*
X0176848Y0176856D02*
X0175762Y0176856D01*
X0174677Y0177941D01*
X0174677Y0179026D01*
X0175220Y0179569D01*
X0176305Y0179569D01*
X0176848Y0179026D01*
X0176305Y0179569D02*
X0176305Y0180654D01*
X0176848Y0181196D01*
X0177933Y0181196D01*
X0179018Y0180111D01*
X0179018Y0179026D01*
X0180103Y0177941D02*
X0181188Y0177941D01*
X0182273Y0176856D01*
X0182273Y0175771D01*
X0176823Y0171531D02*
X0176823Y0170446D01*
X0174653Y0168275D01*
X0173568Y0168275D01*
X0172483Y0169361D01*
X0172483Y0170446D01*
X0172483Y0172616D02*
X0170313Y0174786D01*
X0170313Y0176957D02*
X0170313Y0178042D01*
X0169227Y0179127D01*
X0168142Y0179127D01*
X0168142Y0174786D01*
X0167057Y0174786D01*
X0165972Y0175871D01*
X0165972Y0176957D01*
X0168142Y0179127D01*
X0170313Y0176957D02*
X0168142Y0174786D01*
X0169227Y0172616D02*
X0172483Y0175871D01*
X0172483Y0172616D01*
X0174653Y0172616D02*
X0175738Y0172616D01*
X0176823Y0171531D01*
X0171411Y0166731D02*
X0171411Y0165646D01*
X0169241Y0163475D01*
X0168155Y0163475D01*
X0167070Y0164561D01*
X0167070Y0165646D01*
X0165985Y0166731D02*
X0164900Y0166731D01*
X0163815Y0167816D01*
X0163815Y0168901D01*
X0164357Y0169444D01*
X0165443Y0169444D01*
X0165985Y0168901D01*
X0165443Y0169444D02*
X0165443Y0170529D01*
X0165985Y0171071D01*
X0167070Y0171071D01*
X0168155Y0169986D01*
X0168155Y0168901D01*
X0169241Y0167816D02*
X0170326Y0167816D01*
X0171411Y0166731D01*
X0166875Y0161856D02*
X0166875Y0160771D01*
X0164705Y0158600D01*
X0163620Y0158600D01*
X0162535Y0159686D01*
X0162535Y0160771D01*
X0162535Y0162941D02*
X0160364Y0165111D01*
X0159279Y0166196D02*
X0157109Y0168367D01*
X0159279Y0169452D02*
X0159279Y0166196D01*
X0159279Y0162941D02*
X0162535Y0166196D01*
X0162535Y0162941D01*
X0164705Y0162941D02*
X0165790Y0162941D01*
X0166875Y0161856D01*
X0162187Y0169444D02*
X0162730Y0169986D01*
X0162730Y0174327D01*
X0163272Y0174870D01*
X0165443Y0172699D01*
X0159279Y0169452D02*
X0156024Y0166196D01*
X0140729Y0164981D02*
X0140729Y0163446D01*
X0139962Y0162679D01*
X0139962Y0161144D02*
X0138427Y0161144D01*
X0137660Y0160377D01*
X0137660Y0158075D01*
X0137660Y0159610D02*
X0136125Y0161144D01*
X0136892Y0162679D02*
X0136125Y0163446D01*
X0136125Y0164981D01*
X0136892Y0165748D01*
X0137660Y0165748D01*
X0138427Y0164981D01*
X0138427Y0164214D01*
X0138427Y0164981D02*
X0139194Y0165748D01*
X0139962Y0165748D01*
X0140729Y0164981D01*
X0138427Y0167283D02*
X0140729Y0169585D01*
X0136125Y0169585D01*
X0138427Y0170352D02*
X0138427Y0167283D01*
X0132916Y0168050D02*
X0132916Y0169585D01*
X0132149Y0170352D01*
X0131382Y0170352D01*
X0130614Y0169585D01*
X0129847Y0170352D01*
X0129080Y0170352D01*
X0128312Y0169585D01*
X0128312Y0168050D01*
X0129080Y0167283D01*
X0129080Y0165748D02*
X0128312Y0164981D01*
X0128312Y0163446D01*
X0129080Y0162679D01*
X0128312Y0161144D02*
X0129847Y0159610D01*
X0129847Y0160377D02*
X0129847Y0158075D01*
X0128312Y0158075D02*
X0132916Y0158075D01*
X0132916Y0160377D01*
X0132149Y0161144D01*
X0130614Y0161144D01*
X0129847Y0160377D01*
X0132149Y0162679D02*
X0132916Y0163446D01*
X0132916Y0164981D01*
X0132149Y0165748D01*
X0131382Y0165748D01*
X0130614Y0164981D01*
X0129847Y0165748D01*
X0129080Y0165748D01*
X0130614Y0164981D02*
X0130614Y0164214D01*
X0132149Y0167283D02*
X0132916Y0168050D01*
X0130614Y0168817D02*
X0130614Y0169585D01*
X0139962Y0161144D02*
X0140729Y0160377D01*
X0140729Y0158075D01*
X0136125Y0158075D01*
X0160104Y0134683D02*
X0161189Y0135768D01*
X0162274Y0135768D01*
X0163359Y0136853D02*
X0163359Y0137938D01*
X0164444Y0139023D01*
X0165529Y0139023D01*
X0167700Y0136853D01*
X0167700Y0135768D01*
X0166614Y0134683D01*
X0165529Y0134683D01*
X0164444Y0133598D02*
X0164444Y0132512D01*
X0163359Y0131427D01*
X0162274Y0131427D01*
X0161731Y0131970D01*
X0161731Y0133055D01*
X0162274Y0133598D01*
X0161731Y0133055D02*
X0160646Y0133055D01*
X0160104Y0133598D01*
X0160104Y0134683D01*
X0160104Y0131427D02*
X0157933Y0129257D01*
X0156848Y0131427D02*
X0160104Y0131427D01*
X0160104Y0128172D02*
X0156848Y0131427D01*
X0161482Y0126579D02*
X0164737Y0126579D01*
X0162567Y0124409D01*
X0164737Y0123323D02*
X0161482Y0126579D01*
X0164195Y0129292D02*
X0165823Y0129834D01*
X0167993Y0129834D01*
X0166365Y0128207D01*
X0166365Y0127122D01*
X0166908Y0126579D01*
X0167993Y0126579D01*
X0169078Y0127664D01*
X0169078Y0128749D01*
X0167993Y0129834D01*
X0170163Y0129834D02*
X0171248Y0129834D01*
X0172333Y0130920D01*
X0172333Y0132005D01*
X0170163Y0134175D01*
X0169078Y0134175D01*
X0167993Y0133090D01*
X0167993Y0132005D01*
X0170847Y0126462D02*
X0172475Y0124834D01*
X0170847Y0124292D01*
X0170305Y0123749D01*
X0170305Y0122664D01*
X0171390Y0121579D01*
X0172475Y0121579D01*
X0173560Y0122664D01*
X0173560Y0123749D01*
X0174645Y0124834D02*
X0175731Y0124834D01*
X0176816Y0125920D01*
X0176816Y0127005D01*
X0174645Y0129175D01*
X0173560Y0129175D01*
X0172475Y0128090D01*
X0172475Y0127005D01*
X0170847Y0126462D02*
X0168677Y0124292D01*
X0168134Y0122664D02*
X0168677Y0122122D01*
X0168677Y0121036D01*
X0167592Y0119951D01*
X0167592Y0118866D01*
X0168134Y0118323D01*
X0169220Y0118324D01*
X0170305Y0119409D01*
X0170305Y0120494D01*
X0169762Y0121036D01*
X0168677Y0121036D01*
X0167592Y0119951D02*
X0166507Y0119951D01*
X0165964Y0120494D01*
X0165964Y0121579D01*
X0167049Y0122664D01*
X0168134Y0122664D01*
X0173110Y0117689D02*
X0170939Y0115519D01*
X0172567Y0114976D02*
X0172567Y0113891D01*
X0173652Y0112806D01*
X0174737Y0112806D01*
X0175823Y0113891D01*
X0175823Y0114976D01*
X0174737Y0116061D02*
X0173110Y0115519D01*
X0172567Y0114976D01*
X0174737Y0116061D02*
X0173110Y0117689D01*
X0174737Y0119317D02*
X0177993Y0119317D01*
X0175823Y0117146D01*
X0177993Y0116061D02*
X0174737Y0119317D01*
X0177993Y0121487D02*
X0177993Y0122572D01*
X0179078Y0123657D01*
X0180163Y0123657D01*
X0182333Y0121487D01*
X0182333Y0120402D01*
X0181248Y0119317D01*
X0180163Y0119317D01*
X0200039Y0120937D02*
X0202209Y0118767D01*
X0202209Y0123107D01*
X0202752Y0123650D01*
X0203837Y0123650D01*
X0204922Y0122565D01*
X0204922Y0121480D01*
X0206007Y0120395D02*
X0205465Y0119852D01*
X0205465Y0118767D01*
X0204380Y0118767D01*
X0203837Y0118224D01*
X0203837Y0117139D01*
X0204922Y0116054D01*
X0206007Y0116054D01*
X0207093Y0114969D02*
X0207093Y0113884D01*
X0208178Y0112798D01*
X0209263Y0112798D01*
X0211433Y0114969D01*
X0211433Y0116054D01*
X0210348Y0117139D01*
X0209263Y0117139D01*
X0208178Y0118224D02*
X0208178Y0119309D01*
X0207093Y0120395D01*
X0206007Y0120395D01*
X0205465Y0118767D02*
X0206007Y0118224D01*
X0210200Y0122602D02*
X0211285Y0121516D01*
X0212370Y0121516D01*
X0213455Y0120431D02*
X0213455Y0119346D01*
X0214540Y0118261D01*
X0215625Y0118261D01*
X0217796Y0120431D01*
X0217796Y0121516D01*
X0216711Y0122602D01*
X0215625Y0122602D01*
X0214540Y0123687D02*
X0214540Y0124772D01*
X0213455Y0125857D01*
X0212370Y0125857D01*
X0211827Y0125314D01*
X0211827Y0124229D01*
X0210742Y0124229D01*
X0210200Y0123687D01*
X0210200Y0122602D01*
X0211827Y0124229D02*
X0212370Y0123687D01*
X0210742Y0126400D02*
X0211285Y0126942D01*
X0211285Y0128027D01*
X0210200Y0129112D01*
X0209115Y0129112D01*
X0208572Y0128570D01*
X0208572Y0127485D01*
X0209657Y0126400D01*
X0210742Y0126400D01*
X0209657Y0126400D02*
X0209657Y0125314D01*
X0209115Y0124772D01*
X0208029Y0124772D01*
X0206944Y0125857D01*
X0206944Y0126942D01*
X0207487Y0127485D01*
X0208572Y0127485D01*
X0211744Y0130657D02*
X0211744Y0131742D01*
X0213915Y0133913D01*
X0215000Y0133913D01*
X0216085Y0132827D01*
X0216085Y0131742D01*
X0215542Y0131200D01*
X0214457Y0131200D01*
X0212829Y0132827D01*
X0211744Y0130657D02*
X0212829Y0129572D01*
X0213915Y0129572D01*
X0215000Y0128487D02*
X0215000Y0127402D01*
X0216085Y0126316D01*
X0217170Y0126316D01*
X0218255Y0125231D02*
X0218255Y0124146D01*
X0219340Y0123061D01*
X0220425Y0123061D01*
X0222596Y0125231D01*
X0222596Y0126316D01*
X0221511Y0127402D01*
X0220425Y0127402D01*
X0219340Y0128487D02*
X0219340Y0129572D01*
X0218255Y0130657D01*
X0217170Y0130657D01*
X0216627Y0130114D01*
X0216627Y0129029D01*
X0215542Y0129029D01*
X0215000Y0128487D01*
X0216627Y0129029D02*
X0217170Y0128487D01*
X0219873Y0132139D02*
X0223128Y0135395D01*
X0223128Y0132139D01*
X0220958Y0134309D01*
X0218788Y0134309D02*
X0218245Y0133767D01*
X0218788Y0134309D02*
X0218788Y0138650D01*
X0219330Y0139193D01*
X0221500Y0137022D01*
X0225298Y0132139D02*
X0226384Y0132139D01*
X0227469Y0131054D01*
X0227469Y0129969D01*
X0225298Y0127798D01*
X0224213Y0127798D01*
X0223128Y0128884D01*
X0223128Y0129969D01*
X0178680Y0081184D02*
X0179447Y0080417D01*
X0179447Y0077348D01*
X0178680Y0076580D01*
X0177145Y0076580D01*
X0176378Y0077348D01*
X0174843Y0076580D02*
X0171774Y0079650D01*
X0171774Y0080417D01*
X0172541Y0081184D01*
X0174076Y0081184D01*
X0174843Y0080417D01*
X0176378Y0080417D02*
X0177145Y0081184D01*
X0178680Y0081184D01*
X0174843Y0076580D02*
X0171774Y0076580D01*
X0170239Y0076580D02*
X0170239Y0077348D01*
X0167170Y0080417D01*
X0167170Y0081184D01*
X0170239Y0081184D01*
X0170239Y0073072D02*
X0167170Y0073072D01*
X0167938Y0071537D02*
X0167170Y0070770D01*
X0167170Y0069235D01*
X0167938Y0068468D01*
X0169472Y0068468D01*
X0170239Y0069235D01*
X0170239Y0070770D02*
X0168705Y0071537D01*
X0167938Y0071537D01*
X0170239Y0070770D02*
X0170239Y0073072D01*
X0171774Y0072304D02*
X0171774Y0071537D01*
X0172541Y0070770D01*
X0174843Y0070770D01*
X0172541Y0070770D02*
X0171774Y0070002D01*
X0171774Y0069235D01*
X0172541Y0068468D01*
X0174843Y0068468D01*
X0174843Y0073072D01*
X0172541Y0073072D01*
X0171774Y0072304D01*
X0146438Y0064587D02*
X0146438Y0061517D01*
X0145670Y0060750D01*
X0144136Y0060750D01*
X0143368Y0061517D01*
X0141834Y0061517D02*
X0141834Y0062285D01*
X0141066Y0063052D01*
X0139532Y0063052D01*
X0138764Y0062285D01*
X0138764Y0061517D01*
X0139532Y0060750D01*
X0141066Y0060750D01*
X0141834Y0061517D01*
X0141066Y0063052D02*
X0141834Y0063819D01*
X0141834Y0064587D01*
X0141066Y0065354D01*
X0139532Y0065354D01*
X0138764Y0064587D01*
X0138764Y0063819D01*
X0139532Y0063052D01*
X0137230Y0064587D02*
X0136462Y0065354D01*
X0134928Y0065354D01*
X0134160Y0064587D01*
X0134160Y0063819D01*
X0137230Y0060750D01*
X0134160Y0060750D01*
X0137725Y0065931D02*
X0136957Y0066698D01*
X0136957Y0068233D01*
X0137725Y0069000D01*
X0136957Y0070535D02*
X0140027Y0073604D01*
X0140794Y0073604D01*
X0141561Y0072837D01*
X0141561Y0071302D01*
X0140794Y0070535D01*
X0140794Y0069000D02*
X0141561Y0068233D01*
X0141561Y0066698D01*
X0140794Y0065931D01*
X0137725Y0065931D01*
X0143368Y0064587D02*
X0144136Y0065354D01*
X0145670Y0065354D01*
X0146438Y0064587D01*
X0136957Y0070535D02*
X0136957Y0073604D01*
X0137725Y0075139D02*
X0138492Y0075139D01*
X0139259Y0075906D01*
X0139259Y0077441D01*
X0138492Y0078208D01*
X0137725Y0078208D01*
X0136957Y0077441D01*
X0136957Y0075906D01*
X0137725Y0075139D01*
X0139259Y0075906D02*
X0140027Y0075139D01*
X0140794Y0075139D01*
X0141561Y0075906D01*
X0141561Y0077441D01*
X0140794Y0078208D01*
X0140027Y0078208D01*
X0139259Y0077441D01*
X0133325Y0078062D02*
X0133325Y0074992D01*
X0132558Y0074225D01*
X0131023Y0074225D01*
X0130256Y0074992D01*
X0128721Y0074992D02*
X0128721Y0075760D01*
X0127954Y0076527D01*
X0126419Y0076527D01*
X0125652Y0075760D01*
X0125652Y0074992D01*
X0126419Y0074225D01*
X0127954Y0074225D01*
X0128721Y0074992D01*
X0127954Y0076527D02*
X0128721Y0077294D01*
X0128721Y0078062D01*
X0127954Y0078829D01*
X0126419Y0078829D01*
X0125652Y0078062D01*
X0125652Y0077294D01*
X0126419Y0076527D01*
X0126911Y0077883D02*
X0126911Y0080185D01*
X0126144Y0080953D01*
X0125376Y0080953D01*
X0124609Y0080185D01*
X0124609Y0077883D01*
X0129213Y0077883D01*
X0129213Y0080185D01*
X0128445Y0080953D01*
X0127678Y0080953D01*
X0126911Y0080185D01*
X0126911Y0082487D02*
X0126911Y0084789D01*
X0126144Y0085556D01*
X0125376Y0085556D01*
X0124609Y0084789D01*
X0124609Y0083254D01*
X0125376Y0082487D01*
X0126911Y0082487D01*
X0128445Y0084022D01*
X0129213Y0085556D01*
X0131023Y0078829D02*
X0132558Y0078829D01*
X0133325Y0078062D01*
X0131023Y0078829D02*
X0130256Y0078062D01*
X0124117Y0077294D02*
X0122583Y0078829D01*
X0122583Y0074225D01*
X0124117Y0074225D02*
X0121048Y0074225D01*
X0109579Y0074819D02*
X0109579Y0073284D01*
X0108812Y0072517D01*
X0105742Y0072517D01*
X0104975Y0073284D01*
X0104975Y0074819D01*
X0105742Y0075586D01*
X0105742Y0077121D02*
X0104975Y0077888D01*
X0104975Y0079423D01*
X0105742Y0080190D01*
X0106510Y0080190D01*
X0107277Y0079423D01*
X0107277Y0077121D01*
X0105742Y0077121D01*
X0107277Y0077121D02*
X0108812Y0078656D01*
X0109579Y0080190D01*
X0108812Y0075586D02*
X0109579Y0074819D01*
X0107277Y0067690D02*
X0107277Y0064621D01*
X0109579Y0066923D01*
X0104975Y0066923D01*
X0105742Y0063086D02*
X0104975Y0062319D01*
X0104975Y0060784D01*
X0105742Y0060017D01*
X0108812Y0060017D01*
X0109579Y0060784D01*
X0109579Y0062319D01*
X0108812Y0063086D01*
X0084579Y0071750D02*
X0084579Y0074052D01*
X0083812Y0074819D01*
X0082277Y0074819D01*
X0081510Y0074052D01*
X0081510Y0071750D01*
X0081510Y0073285D02*
X0079975Y0074819D01*
X0080742Y0076354D02*
X0079975Y0077121D01*
X0079975Y0078656D01*
X0080742Y0079423D01*
X0081510Y0079423D01*
X0082277Y0078656D01*
X0082277Y0077889D01*
X0082277Y0078656D02*
X0083044Y0079423D01*
X0083812Y0079423D01*
X0084579Y0078656D01*
X0084579Y0077121D01*
X0083812Y0076354D01*
X0084579Y0071750D02*
X0079975Y0071750D01*
X0077229Y0071550D02*
X0077229Y0073852D01*
X0076462Y0074619D01*
X0074927Y0074619D01*
X0074160Y0073852D01*
X0074160Y0071550D01*
X0074160Y0073085D02*
X0072625Y0074619D01*
X0072625Y0076154D02*
X0072625Y0079223D01*
X0072625Y0077689D02*
X0077229Y0077689D01*
X0075694Y0076154D01*
X0077229Y0071550D02*
X0072625Y0071550D01*
X0070341Y0071500D02*
X0070341Y0073802D01*
X0069574Y0074569D01*
X0068039Y0074569D01*
X0067272Y0073802D01*
X0067272Y0071500D01*
X0065738Y0071500D02*
X0070341Y0071500D01*
X0067272Y0073035D02*
X0065738Y0074569D01*
X0065738Y0076104D02*
X0065738Y0079173D01*
X0065738Y0077639D02*
X0070341Y0077639D01*
X0068807Y0076104D01*
X0069574Y0080708D02*
X0070341Y0081475D01*
X0070341Y0083010D01*
X0069574Y0083777D01*
X0068807Y0083777D01*
X0065738Y0080708D01*
X0065738Y0083777D01*
X0061616Y0078456D02*
X0057012Y0078456D01*
X0059314Y0079223D02*
X0059314Y0076154D01*
X0061616Y0078456D01*
X0060849Y0074619D02*
X0059314Y0074619D01*
X0058547Y0073852D01*
X0058547Y0071550D01*
X0057012Y0071550D02*
X0061616Y0071550D01*
X0061616Y0073852D01*
X0060849Y0074619D01*
X0058547Y0073085D02*
X0057012Y0074619D01*
X0035429Y0062129D02*
X0035429Y0057525D01*
X0033127Y0057525D01*
X0032360Y0058292D01*
X0032360Y0061362D01*
X0033127Y0062129D01*
X0035429Y0062129D01*
X0030825Y0061362D02*
X0030058Y0062129D01*
X0028523Y0062129D01*
X0027756Y0061362D01*
X0027756Y0060594D01*
X0030825Y0057525D01*
X0027756Y0057525D01*
X0153573Y0039316D02*
X0156642Y0039316D01*
X0156642Y0037014D01*
X0155108Y0037782D01*
X0154340Y0037782D01*
X0153573Y0037014D01*
X0153573Y0035480D01*
X0154340Y0034713D01*
X0155875Y0034713D01*
X0156642Y0035480D01*
X0158177Y0034713D02*
X0161246Y0034713D01*
X0158177Y0037782D01*
X0158177Y0038549D01*
X0158944Y0039316D01*
X0160479Y0039316D01*
X0161246Y0038549D01*
X0162781Y0038549D02*
X0162781Y0037014D01*
X0163548Y0036247D01*
X0165850Y0036247D01*
X0165850Y0034713D02*
X0165850Y0039316D01*
X0163548Y0039316D01*
X0162781Y0038549D01*
X0164315Y0036247D02*
X0162781Y0034713D01*
X0164386Y0031229D02*
X0165920Y0031229D01*
X0166688Y0030462D01*
X0166688Y0027392D01*
X0165920Y0026625D01*
X0164386Y0026625D01*
X0163618Y0027392D01*
X0162084Y0026625D02*
X0159014Y0026625D01*
X0157480Y0026625D02*
X0154410Y0026625D01*
X0155945Y0026625D02*
X0155945Y0031229D01*
X0157480Y0029694D01*
X0160549Y0031229D02*
X0160549Y0026625D01*
X0162084Y0029694D02*
X0160549Y0031229D01*
X0163618Y0030462D02*
X0164386Y0031229D01*
X0166083Y0016079D02*
X0166083Y0011475D01*
X0167617Y0011475D02*
X0164548Y0011475D01*
X0167617Y0014544D02*
X0166083Y0016079D01*
X0169152Y0015312D02*
X0169152Y0014544D01*
X0172221Y0011475D01*
X0169152Y0011475D01*
X0173756Y0011475D02*
X0175290Y0013010D01*
X0174523Y0013010D02*
X0176825Y0013010D01*
X0176825Y0011475D02*
X0176825Y0016079D01*
X0174523Y0016079D01*
X0173756Y0015312D01*
X0173756Y0013777D01*
X0174523Y0013010D01*
X0172221Y0015312D02*
X0171454Y0016079D01*
X0169919Y0016079D01*
X0169152Y0015312D01*
X0185083Y0037975D02*
X0188152Y0037975D01*
X0185083Y0041044D01*
X0185083Y0041812D01*
X0185850Y0042579D01*
X0187384Y0042579D01*
X0188152Y0041812D01*
X0189686Y0041812D02*
X0190454Y0042579D01*
X0191988Y0042579D01*
X0192756Y0041812D01*
X0192756Y0038742D01*
X0191988Y0037975D01*
X0190454Y0037975D01*
X0189686Y0038742D01*
X0194290Y0037975D02*
X0195825Y0037975D01*
X0195058Y0037975D02*
X0195058Y0042579D01*
X0195825Y0042579D02*
X0194290Y0042579D01*
X0210950Y0041035D02*
X0215554Y0041035D01*
X0213252Y0038733D01*
X0213252Y0041802D01*
X0214019Y0037198D02*
X0214787Y0037198D01*
X0215554Y0036431D01*
X0215554Y0034896D01*
X0214787Y0034129D01*
X0214787Y0032594D02*
X0213252Y0032594D01*
X0212485Y0031827D01*
X0212485Y0029525D01*
X0212485Y0031060D02*
X0210950Y0032594D01*
X0210950Y0034129D02*
X0214019Y0037198D01*
X0210950Y0037198D02*
X0210950Y0034129D01*
X0214787Y0032594D02*
X0215554Y0031827D01*
X0215554Y0029525D01*
X0210950Y0029525D01*
X0210674Y0022816D02*
X0208372Y0022816D01*
X0207605Y0022049D01*
X0207605Y0020514D01*
X0208372Y0019747D01*
X0210674Y0019747D01*
X0209140Y0019747D02*
X0207605Y0018213D01*
X0206070Y0018213D02*
X0203001Y0021282D01*
X0203001Y0022049D01*
X0203768Y0022816D01*
X0205303Y0022816D01*
X0206070Y0022049D01*
X0206070Y0018213D02*
X0203001Y0018213D01*
X0201466Y0018980D02*
X0200699Y0018213D01*
X0199164Y0018213D01*
X0198397Y0018980D01*
X0198397Y0019747D01*
X0199164Y0020514D01*
X0199932Y0020514D01*
X0199164Y0020514D02*
X0198397Y0021282D01*
X0198397Y0022049D01*
X0199164Y0022816D01*
X0200699Y0022816D01*
X0201466Y0022049D01*
X0207127Y0015304D02*
X0208662Y0015304D01*
X0209429Y0014537D01*
X0210964Y0014537D02*
X0211731Y0015304D01*
X0213266Y0015304D01*
X0214033Y0014537D01*
X0215568Y0014537D02*
X0215568Y0013002D01*
X0216335Y0012235D01*
X0218637Y0012235D01*
X0217102Y0012235D02*
X0215568Y0010700D01*
X0214033Y0010700D02*
X0210964Y0013769D01*
X0210964Y0014537D01*
X0210964Y0010700D02*
X0214033Y0010700D01*
X0215568Y0014537D02*
X0216335Y0015304D01*
X0218637Y0015304D01*
X0218637Y0010700D01*
X0209429Y0010700D02*
X0206360Y0013769D01*
X0206360Y0014537D01*
X0207127Y0015304D01*
X0210674Y0018213D02*
X0210674Y0022816D01*
X0209429Y0010700D02*
X0206360Y0010700D01*
X0173592Y0180111D02*
X0172507Y0180111D01*
X0171422Y0181196D01*
X0171422Y0182282D01*
X0172507Y0183367D01*
X0173592Y0183367D01*
X0174135Y0182824D01*
X0174677Y0181196D01*
X0176305Y0182824D01*
X0174135Y0184995D01*
D13*
X0032108Y0054734D02*
X0029942Y0054734D01*
X0029942Y0043316D01*
X0032108Y0043316D01*
X0032108Y0054734D01*
X0028564Y0042923D02*
X0023643Y0042923D01*
D14*
X0057525Y0055225D02*
X0057525Y0056325D01*
X0067325Y0056325D01*
X0069725Y0056325D01*
X0079525Y0056325D01*
X0079525Y0055225D01*
X0079525Y0027825D02*
X0079525Y0026725D01*
X0057525Y0026725D01*
X0057525Y0027825D01*
X0355773Y0182275D02*
X0355773Y0188425D01*
X0358913Y0198735D02*
X0365062Y0198735D01*
X0366973Y0188425D02*
X0366973Y0182275D01*
X0379048Y0182275D02*
X0379048Y0188425D01*
X0380350Y0198735D02*
X0386500Y0198735D01*
X0390248Y0188425D02*
X0390248Y0182275D01*
X0386500Y0209936D02*
X0380350Y0209936D01*
X0365062Y0209936D02*
X0358913Y0209936D01*
X0364025Y0093072D02*
X0382000Y0093072D01*
X0382000Y0068153D01*
X0364025Y0068153D01*
X0364025Y0093072D01*
X0376012Y0089572D02*
X0376014Y0089656D01*
X0376020Y0089741D01*
X0376030Y0089824D01*
X0376044Y0089908D01*
X0376061Y0089990D01*
X0376083Y0090072D01*
X0376108Y0090152D01*
X0376137Y0090231D01*
X0376170Y0090309D01*
X0376206Y0090385D01*
X0376246Y0090460D01*
X0376290Y0090532D01*
X0376336Y0090603D01*
X0376386Y0090671D01*
X0376439Y0090736D01*
X0376495Y0090799D01*
X0376554Y0090860D01*
X0376616Y0090917D01*
X0376680Y0090972D01*
X0376747Y0091023D01*
X0376816Y0091072D01*
X0376888Y0091117D01*
X0376961Y0091158D01*
X0377036Y0091196D01*
X0377113Y0091231D01*
X0377192Y0091262D01*
X0377272Y0091289D01*
X0377353Y0091312D01*
X0377435Y0091332D01*
X0377518Y0091348D01*
X0377601Y0091360D01*
X0377686Y0091368D01*
X0377770Y0091372D01*
X0377854Y0091372D01*
X0377938Y0091368D01*
X0378023Y0091360D01*
X0378106Y0091348D01*
X0378189Y0091332D01*
X0378271Y0091312D01*
X0378352Y0091289D01*
X0378432Y0091262D01*
X0378511Y0091231D01*
X0378588Y0091196D01*
X0378663Y0091158D01*
X0378736Y0091117D01*
X0378808Y0091072D01*
X0378877Y0091023D01*
X0378944Y0090972D01*
X0379008Y0090917D01*
X0379070Y0090860D01*
X0379129Y0090799D01*
X0379185Y0090736D01*
X0379238Y0090671D01*
X0379288Y0090603D01*
X0379334Y0090532D01*
X0379378Y0090460D01*
X0379418Y0090385D01*
X0379454Y0090309D01*
X0379487Y0090231D01*
X0379516Y0090152D01*
X0379541Y0090072D01*
X0379563Y0089990D01*
X0379580Y0089908D01*
X0379594Y0089824D01*
X0379604Y0089741D01*
X0379610Y0089656D01*
X0379612Y0089572D01*
X0379610Y0089488D01*
X0379604Y0089403D01*
X0379594Y0089320D01*
X0379580Y0089236D01*
X0379563Y0089154D01*
X0379541Y0089072D01*
X0379516Y0088992D01*
X0379487Y0088913D01*
X0379454Y0088835D01*
X0379418Y0088759D01*
X0379378Y0088684D01*
X0379334Y0088612D01*
X0379288Y0088541D01*
X0379238Y0088473D01*
X0379185Y0088408D01*
X0379129Y0088345D01*
X0379070Y0088284D01*
X0379008Y0088227D01*
X0378944Y0088172D01*
X0378877Y0088121D01*
X0378808Y0088072D01*
X0378736Y0088027D01*
X0378663Y0087986D01*
X0378588Y0087948D01*
X0378511Y0087913D01*
X0378432Y0087882D01*
X0378352Y0087855D01*
X0378271Y0087832D01*
X0378189Y0087812D01*
X0378106Y0087796D01*
X0378023Y0087784D01*
X0377938Y0087776D01*
X0377854Y0087772D01*
X0377770Y0087772D01*
X0377686Y0087776D01*
X0377601Y0087784D01*
X0377518Y0087796D01*
X0377435Y0087812D01*
X0377353Y0087832D01*
X0377272Y0087855D01*
X0377192Y0087882D01*
X0377113Y0087913D01*
X0377036Y0087948D01*
X0376961Y0087986D01*
X0376888Y0088027D01*
X0376816Y0088072D01*
X0376747Y0088121D01*
X0376680Y0088172D01*
X0376616Y0088227D01*
X0376554Y0088284D01*
X0376495Y0088345D01*
X0376439Y0088408D01*
X0376386Y0088473D01*
X0376336Y0088541D01*
X0376290Y0088612D01*
X0376246Y0088684D01*
X0376206Y0088759D01*
X0376170Y0088835D01*
X0376137Y0088913D01*
X0376108Y0088992D01*
X0376083Y0089072D01*
X0376061Y0089154D01*
X0376044Y0089236D01*
X0376030Y0089320D01*
X0376020Y0089403D01*
X0376014Y0089488D01*
X0376012Y0089572D01*
X0382000Y0058050D02*
X0364025Y0058050D01*
X0364025Y0038250D01*
X0382000Y0038250D01*
X0382000Y0058050D01*
X0376012Y0054550D02*
X0376014Y0054634D01*
X0376020Y0054719D01*
X0376030Y0054802D01*
X0376044Y0054886D01*
X0376061Y0054968D01*
X0376083Y0055050D01*
X0376108Y0055130D01*
X0376137Y0055209D01*
X0376170Y0055287D01*
X0376206Y0055363D01*
X0376246Y0055438D01*
X0376290Y0055510D01*
X0376336Y0055581D01*
X0376386Y0055649D01*
X0376439Y0055714D01*
X0376495Y0055777D01*
X0376554Y0055838D01*
X0376616Y0055895D01*
X0376680Y0055950D01*
X0376747Y0056001D01*
X0376816Y0056050D01*
X0376888Y0056095D01*
X0376961Y0056136D01*
X0377036Y0056174D01*
X0377113Y0056209D01*
X0377192Y0056240D01*
X0377272Y0056267D01*
X0377353Y0056290D01*
X0377435Y0056310D01*
X0377518Y0056326D01*
X0377601Y0056338D01*
X0377686Y0056346D01*
X0377770Y0056350D01*
X0377854Y0056350D01*
X0377938Y0056346D01*
X0378023Y0056338D01*
X0378106Y0056326D01*
X0378189Y0056310D01*
X0378271Y0056290D01*
X0378352Y0056267D01*
X0378432Y0056240D01*
X0378511Y0056209D01*
X0378588Y0056174D01*
X0378663Y0056136D01*
X0378736Y0056095D01*
X0378808Y0056050D01*
X0378877Y0056001D01*
X0378944Y0055950D01*
X0379008Y0055895D01*
X0379070Y0055838D01*
X0379129Y0055777D01*
X0379185Y0055714D01*
X0379238Y0055649D01*
X0379288Y0055581D01*
X0379334Y0055510D01*
X0379378Y0055438D01*
X0379418Y0055363D01*
X0379454Y0055287D01*
X0379487Y0055209D01*
X0379516Y0055130D01*
X0379541Y0055050D01*
X0379563Y0054968D01*
X0379580Y0054886D01*
X0379594Y0054802D01*
X0379604Y0054719D01*
X0379610Y0054634D01*
X0379612Y0054550D01*
X0379610Y0054466D01*
X0379604Y0054381D01*
X0379594Y0054298D01*
X0379580Y0054214D01*
X0379563Y0054132D01*
X0379541Y0054050D01*
X0379516Y0053970D01*
X0379487Y0053891D01*
X0379454Y0053813D01*
X0379418Y0053737D01*
X0379378Y0053662D01*
X0379334Y0053590D01*
X0379288Y0053519D01*
X0379238Y0053451D01*
X0379185Y0053386D01*
X0379129Y0053323D01*
X0379070Y0053262D01*
X0379008Y0053205D01*
X0378944Y0053150D01*
X0378877Y0053099D01*
X0378808Y0053050D01*
X0378736Y0053005D01*
X0378663Y0052964D01*
X0378588Y0052926D01*
X0378511Y0052891D01*
X0378432Y0052860D01*
X0378352Y0052833D01*
X0378271Y0052810D01*
X0378189Y0052790D01*
X0378106Y0052774D01*
X0378023Y0052762D01*
X0377938Y0052754D01*
X0377854Y0052750D01*
X0377770Y0052750D01*
X0377686Y0052754D01*
X0377601Y0052762D01*
X0377518Y0052774D01*
X0377435Y0052790D01*
X0377353Y0052810D01*
X0377272Y0052833D01*
X0377192Y0052860D01*
X0377113Y0052891D01*
X0377036Y0052926D01*
X0376961Y0052964D01*
X0376888Y0053005D01*
X0376816Y0053050D01*
X0376747Y0053099D01*
X0376680Y0053150D01*
X0376616Y0053205D01*
X0376554Y0053262D01*
X0376495Y0053323D01*
X0376439Y0053386D01*
X0376386Y0053451D01*
X0376336Y0053519D01*
X0376290Y0053590D01*
X0376246Y0053662D01*
X0376206Y0053737D01*
X0376170Y0053813D01*
X0376137Y0053891D01*
X0376108Y0053970D01*
X0376083Y0054050D01*
X0376061Y0054132D01*
X0376044Y0054214D01*
X0376030Y0054298D01*
X0376020Y0054381D01*
X0376014Y0054466D01*
X0376012Y0054550D01*
D15*
X0374762Y0023212D02*
X0370038Y0023212D01*
X0362557Y0018094D02*
X0362557Y0015731D01*
X0370038Y0010613D02*
X0374762Y0010613D01*
X0382243Y0015731D02*
X0382243Y0018094D01*
X0164022Y0094631D02*
X0164022Y0099355D01*
X0158904Y0106835D02*
X0156542Y0106835D01*
X0151424Y0099355D02*
X0151424Y0094631D01*
X0156542Y0087150D02*
X0158904Y0087150D01*
X0075004Y0051064D02*
X0075004Y0049828D01*
X0073768Y0048592D01*
X0072531Y0048592D01*
X0073768Y0048592D02*
X0075004Y0047355D01*
X0075004Y0046119D01*
X0073768Y0044882D01*
X0071295Y0044882D01*
X0070059Y0046119D01*
X0067443Y0044882D02*
X0067443Y0051064D01*
X0066206Y0052301D01*
X0063733Y0052301D01*
X0062497Y0051064D01*
X0062497Y0044882D01*
X0070059Y0051064D02*
X0071295Y0052301D01*
X0073768Y0052301D01*
X0075004Y0051064D01*
X0348513Y0226388D02*
X0359537Y0226388D01*
X0359537Y0237412D01*
X0348513Y0237412D01*
X0348513Y0226388D01*
X0366888Y0226388D02*
X0377912Y0226388D01*
X0377912Y0237412D01*
X0366888Y0237412D01*
X0366888Y0226388D01*
X0385263Y0226388D02*
X0396287Y0226388D01*
X0396287Y0237412D01*
X0385263Y0237412D01*
X0385263Y0226388D01*
X0382090Y0251501D02*
X0365160Y0251501D01*
X0365160Y0262524D01*
X0382090Y0262524D01*
X0382090Y0251501D01*
X0382090Y0264976D02*
X0365160Y0264976D01*
X0365160Y0275999D01*
X0382090Y0275999D01*
X0382090Y0264976D01*
D16*
X0382221Y0127117D02*
X0361354Y0127117D01*
X0361354Y0102708D01*
X0382221Y0102708D01*
X0382221Y0127117D01*
X0386062Y0011875D02*
X0386064Y0011896D01*
X0386070Y0011915D01*
X0386079Y0011934D01*
X0386091Y0011950D01*
X0386107Y0011964D01*
X0386124Y0011975D01*
X0386143Y0011983D01*
X0386164Y0011987D01*
X0386184Y0011987D01*
X0386205Y0011983D01*
X0386224Y0011975D01*
X0386241Y0011964D01*
X0386257Y0011950D01*
X0386269Y0011934D01*
X0386278Y0011915D01*
X0386284Y0011896D01*
X0386286Y0011875D01*
X0386284Y0011854D01*
X0386278Y0011835D01*
X0386269Y0011816D01*
X0386257Y0011800D01*
X0386241Y0011786D01*
X0386224Y0011775D01*
X0386205Y0011767D01*
X0386184Y0011763D01*
X0386164Y0011763D01*
X0386143Y0011767D01*
X0386124Y0011775D01*
X0386107Y0011786D01*
X0386091Y0011800D01*
X0386079Y0011816D01*
X0386070Y0011835D01*
X0386064Y0011854D01*
X0386062Y0011875D01*
X0385601Y0011875D02*
X0385603Y0011922D01*
X0385609Y0011969D01*
X0385619Y0012016D01*
X0385632Y0012061D01*
X0385649Y0012105D01*
X0385670Y0012148D01*
X0385694Y0012188D01*
X0385722Y0012227D01*
X0385752Y0012263D01*
X0385786Y0012297D01*
X0385822Y0012327D01*
X0385861Y0012355D01*
X0385901Y0012379D01*
X0385944Y0012400D01*
X0385988Y0012417D01*
X0386033Y0012430D01*
X0386080Y0012440D01*
X0386127Y0012446D01*
X0386174Y0012448D01*
X0386221Y0012446D01*
X0386268Y0012440D01*
X0386315Y0012430D01*
X0386360Y0012417D01*
X0386404Y0012400D01*
X0386447Y0012379D01*
X0386487Y0012355D01*
X0386526Y0012327D01*
X0386562Y0012297D01*
X0386596Y0012263D01*
X0386626Y0012227D01*
X0386654Y0012188D01*
X0386678Y0012148D01*
X0386699Y0012105D01*
X0386716Y0012061D01*
X0386729Y0012016D01*
X0386739Y0011969D01*
X0386745Y0011922D01*
X0386747Y0011875D01*
X0386745Y0011828D01*
X0386739Y0011781D01*
X0386729Y0011734D01*
X0386716Y0011689D01*
X0386699Y0011645D01*
X0386678Y0011602D01*
X0386654Y0011562D01*
X0386626Y0011523D01*
X0386596Y0011487D01*
X0386562Y0011453D01*
X0386526Y0011423D01*
X0386487Y0011395D01*
X0386447Y0011371D01*
X0386404Y0011350D01*
X0386360Y0011333D01*
X0386315Y0011320D01*
X0386268Y0011310D01*
X0386221Y0011304D01*
X0386174Y0011302D01*
X0386127Y0011304D01*
X0386080Y0011310D01*
X0386033Y0011320D01*
X0385988Y0011333D01*
X0385944Y0011350D01*
X0385901Y0011371D01*
X0385861Y0011395D01*
X0385822Y0011423D01*
X0385786Y0011453D01*
X0385752Y0011487D01*
X0385722Y0011523D01*
X0385694Y0011562D01*
X0385670Y0011602D01*
X0385649Y0011645D01*
X0385632Y0011689D01*
X0385619Y0011734D01*
X0385609Y0011781D01*
X0385603Y0011828D01*
X0385601Y0011875D01*
X0385130Y0011875D02*
X0385132Y0011939D01*
X0385138Y0012003D01*
X0385148Y0012067D01*
X0385162Y0012130D01*
X0385179Y0012191D01*
X0385200Y0012252D01*
X0385226Y0012311D01*
X0385254Y0012369D01*
X0385286Y0012425D01*
X0385322Y0012478D01*
X0385361Y0012530D01*
X0385402Y0012578D01*
X0385447Y0012625D01*
X0385495Y0012668D01*
X0385545Y0012708D01*
X0385597Y0012745D01*
X0385652Y0012779D01*
X0385709Y0012810D01*
X0385767Y0012836D01*
X0385827Y0012860D01*
X0385888Y0012879D01*
X0385951Y0012895D01*
X0386014Y0012907D01*
X0386078Y0012915D01*
X0386142Y0012919D01*
X0386206Y0012919D01*
X0386270Y0012915D01*
X0386334Y0012907D01*
X0386397Y0012895D01*
X0386460Y0012879D01*
X0386521Y0012860D01*
X0386581Y0012836D01*
X0386639Y0012810D01*
X0386696Y0012779D01*
X0386751Y0012745D01*
X0386803Y0012708D01*
X0386853Y0012668D01*
X0386901Y0012625D01*
X0386946Y0012578D01*
X0386987Y0012530D01*
X0387026Y0012478D01*
X0387062Y0012425D01*
X0387094Y0012369D01*
X0387122Y0012311D01*
X0387148Y0012252D01*
X0387169Y0012191D01*
X0387186Y0012130D01*
X0387200Y0012067D01*
X0387210Y0012003D01*
X0387216Y0011939D01*
X0387218Y0011875D01*
X0387216Y0011811D01*
X0387210Y0011747D01*
X0387200Y0011683D01*
X0387186Y0011620D01*
X0387169Y0011559D01*
X0387148Y0011498D01*
X0387122Y0011439D01*
X0387094Y0011381D01*
X0387062Y0011325D01*
X0387026Y0011272D01*
X0386987Y0011220D01*
X0386946Y0011172D01*
X0386901Y0011125D01*
X0386853Y0011082D01*
X0386803Y0011042D01*
X0386751Y0011005D01*
X0386696Y0010971D01*
X0386639Y0010940D01*
X0386581Y0010914D01*
X0386521Y0010890D01*
X0386460Y0010871D01*
X0386397Y0010855D01*
X0386334Y0010843D01*
X0386270Y0010835D01*
X0386206Y0010831D01*
X0386142Y0010831D01*
X0386078Y0010835D01*
X0386014Y0010843D01*
X0385951Y0010855D01*
X0385888Y0010871D01*
X0385827Y0010890D01*
X0385767Y0010914D01*
X0385709Y0010940D01*
X0385652Y0010971D01*
X0385597Y0011005D01*
X0385545Y0011042D01*
X0385495Y0011082D01*
X0385447Y0011125D01*
X0385402Y0011172D01*
X0385361Y0011220D01*
X0385322Y0011272D01*
X0385286Y0011325D01*
X0385254Y0011381D01*
X0385226Y0011439D01*
X0385200Y0011498D01*
X0385179Y0011559D01*
X0385162Y0011620D01*
X0385148Y0011683D01*
X0385138Y0011747D01*
X0385132Y0011811D01*
X0385130Y0011875D01*
X0148505Y0081245D02*
X0148507Y0081292D01*
X0148513Y0081338D01*
X0148522Y0081384D01*
X0148536Y0081428D01*
X0148553Y0081472D01*
X0148574Y0081513D01*
X0148598Y0081553D01*
X0148625Y0081591D01*
X0148656Y0081626D01*
X0148689Y0081659D01*
X0148725Y0081689D01*
X0148764Y0081715D01*
X0148804Y0081739D01*
X0148846Y0081758D01*
X0148890Y0081775D01*
X0148935Y0081787D01*
X0148981Y0081796D01*
X0149027Y0081801D01*
X0149074Y0081802D01*
X0149120Y0081799D01*
X0149166Y0081792D01*
X0149212Y0081781D01*
X0149256Y0081767D01*
X0149299Y0081749D01*
X0149340Y0081727D01*
X0149380Y0081702D01*
X0149417Y0081674D01*
X0149452Y0081643D01*
X0149484Y0081609D01*
X0149513Y0081572D01*
X0149538Y0081534D01*
X0149561Y0081493D01*
X0149580Y0081450D01*
X0149595Y0081406D01*
X0149607Y0081361D01*
X0149615Y0081315D01*
X0149619Y0081268D01*
X0149619Y0081222D01*
X0149615Y0081175D01*
X0149607Y0081129D01*
X0149595Y0081084D01*
X0149580Y0081040D01*
X0149561Y0080997D01*
X0149538Y0080956D01*
X0149513Y0080918D01*
X0149484Y0080881D01*
X0149452Y0080847D01*
X0149417Y0080816D01*
X0149380Y0080788D01*
X0149341Y0080763D01*
X0149299Y0080741D01*
X0149256Y0080723D01*
X0149212Y0080709D01*
X0149166Y0080698D01*
X0149120Y0080691D01*
X0149074Y0080688D01*
X0149027Y0080689D01*
X0148981Y0080694D01*
X0148935Y0080703D01*
X0148890Y0080715D01*
X0148846Y0080732D01*
X0148804Y0080751D01*
X0148764Y0080775D01*
X0148725Y0080801D01*
X0148689Y0080831D01*
X0148656Y0080864D01*
X0148625Y0080899D01*
X0148598Y0080937D01*
X0148574Y0080977D01*
X0148553Y0081018D01*
X0148536Y0081062D01*
X0148522Y0081106D01*
X0148513Y0081152D01*
X0148507Y0081198D01*
X0148505Y0081245D01*
D17*
X0161848Y0096230D02*
X0161598Y0096480D01*
X0161598Y0096981D01*
X0161848Y0097231D01*
X0163099Y0097231D01*
X0162849Y0097704D02*
X0163099Y0097954D01*
X0163099Y0098454D01*
X0162849Y0098704D01*
X0162599Y0098704D01*
X0161598Y0097704D01*
X0161598Y0098704D01*
X0161848Y0096230D02*
X0163099Y0096230D01*
D18*
X0380023Y0259572D03*
X0380023Y0273047D03*
D19*
X0376337Y0227963D03*
X0357962Y0227963D03*
X0394712Y0227963D03*
D20*
X0381456Y0199810D03*
X0380122Y0187319D03*
X0360019Y0199810D03*
X0356847Y0187319D03*
D21*
X0365095Y0106645D03*
D22*
X0364925Y0092172D02*
X0381100Y0092172D01*
X0381100Y0069053D01*
X0364925Y0069053D01*
X0364925Y0092172D01*
X0364925Y0057150D02*
X0381100Y0057150D01*
X0381100Y0039150D01*
X0364925Y0039150D01*
X0364925Y0057150D01*
M02*
