%
M48
M72
T01C0.01181
T02C0.01969
T03C0.02362
T04C0.02400
T05C0.02756
T06C0.03200
T07C0.03543
T08C0.04000
T09C0.04700
T10C0.05118
T11C0.11024
%
T01
X44100Y27937
X44775Y19025
X53525Y26525
X59775Y45275
X47275Y55275
X52275Y57775
X76025Y52775
X77275Y45275
X83525Y57775
X96425Y65575
X88462Y74763
X116025Y80275
X126991Y86809
X138525Y97775
X133525Y100275
X132325Y105887
X135975Y106337
X147613Y105112
X147275Y112775
X151025Y112775
X151025Y120275
X159775Y129025
X158525Y136525
X153525Y135275
X153525Y141525
X148525Y145275
X152275Y152775
X146025Y155275
X159775Y165275
X161025Y170275
X150063Y178612
X147275Y185275
X146025Y190275
X149775Y190275
X154775Y190275
X157275Y194025
X157275Y197775
X157275Y201525
X163525Y201525
X164775Y205275
X166025Y209025
X167275Y212775
X172275Y211525
X149775Y194025
X174775Y184025
X177275Y177775
X184362Y182900
X181025Y188256
X193525Y179025
X203525Y176525
X208525Y172775
X213525Y166525
X221025Y160275
X223525Y162775
X229775Y162775
X237275Y154025
X241025Y150275
X233525Y144025
X230300Y138188
X219775Y144025
X216025Y151525
X238262Y171263
X242550Y166975
X249900Y174937
X246225Y179225
X252350Y185350
X257250Y182287
X257275Y190275
X262275Y190275
X267275Y189025
X271025Y189025
X277275Y186525
X281025Y186525
X286025Y185275
X289775Y185275
X294775Y184025
X298525Y184025
X274775Y211525
X244775Y200275
X241025Y200275
X237275Y200275
X233525Y200275
X216825Y190862
X213525Y179025
X203525Y187775
X200260Y190275
X196612Y194537
X203525Y205275
X208525Y207775
X266025Y245275
X163525Y137775
X169775Y132775
X173525Y126525
X178525Y121525
X169050Y118587
X177012Y111850
X182275Y111525
X186025Y107775
X183137Y104500
X177275Y94025
X178525Y90275
X181912Y90412
X184775Y87775
X179775Y86525
X178525Y81525
X165988Y88575
X158638Y95312
X151818Y89556
X169775Y100275
X172275Y97775
X166429Y105084
X189775Y122775
X197275Y110275
X194775Y107775
X200900Y106950
X206025Y119025
X211925Y119200
X216212Y122875
X221112Y128387
X233975Y111850
X249775Y124025
X246025Y126525
X223562Y97150
X169775Y59025
X146388Y49987
X103775Y10450
X82275Y26525
X46812Y75375
X42525Y75375
X35788Y75375
X18638Y53325
X13737Y53325
X98525Y99025
X111025Y107775
X108525Y125275
X111025Y134025
X106025Y136525
X120050Y140638
X129775Y131525
X124775Y127775
X133525Y119025
X138525Y130275
X107275Y197775
X106025Y202775
X104775Y207775
X103525Y212775
X102275Y217775
X101025Y222775
X322175Y80613
X324013Y37738
X324013Y23650
X303188Y23650
X303525Y32775
X288488Y35288
X288488Y23650
X268275Y23650
X268275Y34063
X253575Y36513
X253575Y23650
T02
X176025Y57775
X172275Y45275
X156025Y65275
X87275Y96525
X65661Y225275
X24775Y251525
T03
X19600Y228225
X20213Y216587
X29400Y215362
X28787Y193925
X33688Y177387
X54512Y196375
X71050Y195762
X81463Y198212
X81463Y208012
X107275Y189025
X97387Y187800
X126025Y202162
X131000Y197162
X161088Y189025
X169050Y197600
X188037Y194537
X192275Y234000
X192275Y251525
X254187Y271100
X265213Y271100
X296450Y269875
X283588Y238025
X273175Y234962
X261537Y229450
X289713Y224550
X287875Y210462
X298288Y200662
X262763Y171263
X270113Y160850
X259087Y150438
X252350Y143088
X252962Y161463
X290325Y143700
X305025Y136350
X296450Y117362
X270113Y125325
X290938Y87962
X311763Y77550
X301350Y67138
X305638Y54275
X295838Y35288
X295838Y19975
X290938Y7112
X306863Y7112
X313600Y19975
X330138Y8338
X279300Y18750
X261537Y19363
X261537Y31612
X243162Y33450
X243162Y43862
X226012Y32838
X210087Y22425
X218050Y7112
X240100Y7112
X243775Y19975
X265213Y7112
X211925Y53662
X230300Y81838
X238262Y86737
X156800Y54887
X140263Y32838
X118825Y33450
X102287Y42025
X88525Y40275
X115762Y59175
X88200Y86125
X66025Y87775
X66763Y95312
X50225Y103275
X60637Y122875
X57575Y143700
X78400Y144313
X87275Y155275
X78400Y157788
X92487Y145538
X99837Y134513
X135975Y170038
X61250Y174937
X33688Y151663
X29400Y143088
X26950Y110012
X12275Y104025
X28525Y75275
X44775Y46525
X46550Y23037
X173337Y20588
X336263Y78163
T04
X144775Y76525
X124775Y76525
X94775Y80275
X94775Y60275
T05
X173525Y241525
X224775Y256525
T06
X91025Y12775
X81025Y12775
X71025Y12775
X61025Y12775
X51025Y12775
T07
X24500Y16214
X24500Y33536
X312364Y269025
X329686Y269025
T08
X336025Y232775
X336025Y222775
X218525Y266525
X208525Y266525
X198525Y266525
X188525Y266525
X178525Y266525
X168525Y266525
X158525Y266525
X148525Y266525
X138525Y266525
X128525Y266525
X118525Y266525
X108525Y266525
X98525Y266525
X88525Y266525
X78525Y266525
X68525Y266525
X58525Y266525
X48525Y266525
X38525Y266525
X28525Y266525
X28525Y276525
X38525Y276525
X48525Y276525
X58525Y276525
X68525Y276525
X78525Y276525
X88525Y276525
X98525Y276525
X108525Y276525
X118525Y276525
X128525Y276525
X138525Y276525
X148525Y276525
X158525Y276525
X168525Y276525
X178525Y276525
X188525Y276525
X198525Y276525
X208525Y276525
X218525Y276525
X20213Y89475
X20213Y78075
T09
X109775Y24025
X129775Y24025
X149775Y24025
T10
X231232Y260964
X228869Y280255
X288318Y260964
X290681Y280255
T11
X191025Y149025
M30
