G75*
%MOIN*%
%OFA0B0*%
%FSLAX25Y25*%
%IPPOS*%
%LPD*%
%AMOC8*
5,1,8,0,0,1.08239X$1,22.5*
%
%ADD10C,0.00000*%
%ADD11C,0.01200*%
D10*
X0007350Y0002825D02*
X0007350Y0267340D01*
X0027035Y0287025D01*
X0399962Y0287025D01*
X0399962Y0002825D01*
X0007350Y0002825D01*
X0022728Y0016214D02*
X0022730Y0016298D01*
X0022736Y0016381D01*
X0022746Y0016464D01*
X0022760Y0016547D01*
X0022777Y0016629D01*
X0022799Y0016710D01*
X0022824Y0016789D01*
X0022853Y0016868D01*
X0022886Y0016945D01*
X0022922Y0017020D01*
X0022962Y0017094D01*
X0023005Y0017166D01*
X0023052Y0017235D01*
X0023102Y0017302D01*
X0023155Y0017367D01*
X0023211Y0017429D01*
X0023269Y0017489D01*
X0023331Y0017546D01*
X0023395Y0017599D01*
X0023462Y0017650D01*
X0023531Y0017697D01*
X0023602Y0017742D01*
X0023675Y0017782D01*
X0023750Y0017819D01*
X0023827Y0017853D01*
X0023905Y0017883D01*
X0023984Y0017909D01*
X0024065Y0017932D01*
X0024147Y0017950D01*
X0024229Y0017965D01*
X0024312Y0017976D01*
X0024395Y0017983D01*
X0024479Y0017986D01*
X0024563Y0017985D01*
X0024646Y0017980D01*
X0024730Y0017971D01*
X0024812Y0017958D01*
X0024894Y0017942D01*
X0024975Y0017921D01*
X0025056Y0017897D01*
X0025134Y0017869D01*
X0025212Y0017837D01*
X0025288Y0017801D01*
X0025362Y0017762D01*
X0025434Y0017720D01*
X0025504Y0017674D01*
X0025572Y0017625D01*
X0025637Y0017573D01*
X0025700Y0017518D01*
X0025760Y0017460D01*
X0025818Y0017399D01*
X0025872Y0017335D01*
X0025924Y0017269D01*
X0025972Y0017201D01*
X0026017Y0017130D01*
X0026058Y0017057D01*
X0026097Y0016983D01*
X0026131Y0016907D01*
X0026162Y0016829D01*
X0026189Y0016750D01*
X0026213Y0016669D01*
X0026232Y0016588D01*
X0026248Y0016506D01*
X0026260Y0016423D01*
X0026268Y0016339D01*
X0026272Y0016256D01*
X0026272Y0016172D01*
X0026268Y0016089D01*
X0026260Y0016005D01*
X0026248Y0015922D01*
X0026232Y0015840D01*
X0026213Y0015759D01*
X0026189Y0015678D01*
X0026162Y0015599D01*
X0026131Y0015521D01*
X0026097Y0015445D01*
X0026058Y0015371D01*
X0026017Y0015298D01*
X0025972Y0015227D01*
X0025924Y0015159D01*
X0025872Y0015093D01*
X0025818Y0015029D01*
X0025760Y0014968D01*
X0025700Y0014910D01*
X0025637Y0014855D01*
X0025572Y0014803D01*
X0025504Y0014754D01*
X0025434Y0014708D01*
X0025362Y0014666D01*
X0025288Y0014627D01*
X0025212Y0014591D01*
X0025134Y0014559D01*
X0025056Y0014531D01*
X0024975Y0014507D01*
X0024894Y0014486D01*
X0024812Y0014470D01*
X0024730Y0014457D01*
X0024646Y0014448D01*
X0024563Y0014443D01*
X0024479Y0014442D01*
X0024395Y0014445D01*
X0024312Y0014452D01*
X0024229Y0014463D01*
X0024147Y0014478D01*
X0024065Y0014496D01*
X0023984Y0014519D01*
X0023905Y0014545D01*
X0023827Y0014575D01*
X0023750Y0014609D01*
X0023675Y0014646D01*
X0023602Y0014686D01*
X0023531Y0014731D01*
X0023462Y0014778D01*
X0023395Y0014829D01*
X0023331Y0014882D01*
X0023269Y0014939D01*
X0023211Y0014999D01*
X0023155Y0015061D01*
X0023102Y0015126D01*
X0023052Y0015193D01*
X0023005Y0015262D01*
X0022962Y0015334D01*
X0022922Y0015408D01*
X0022886Y0015483D01*
X0022853Y0015560D01*
X0022824Y0015639D01*
X0022799Y0015718D01*
X0022777Y0015799D01*
X0022760Y0015881D01*
X0022746Y0015964D01*
X0022736Y0016047D01*
X0022730Y0016130D01*
X0022728Y0016214D01*
X0022728Y0033536D02*
X0022730Y0033620D01*
X0022736Y0033703D01*
X0022746Y0033786D01*
X0022760Y0033869D01*
X0022777Y0033951D01*
X0022799Y0034032D01*
X0022824Y0034111D01*
X0022853Y0034190D01*
X0022886Y0034267D01*
X0022922Y0034342D01*
X0022962Y0034416D01*
X0023005Y0034488D01*
X0023052Y0034557D01*
X0023102Y0034624D01*
X0023155Y0034689D01*
X0023211Y0034751D01*
X0023269Y0034811D01*
X0023331Y0034868D01*
X0023395Y0034921D01*
X0023462Y0034972D01*
X0023531Y0035019D01*
X0023602Y0035064D01*
X0023675Y0035104D01*
X0023750Y0035141D01*
X0023827Y0035175D01*
X0023905Y0035205D01*
X0023984Y0035231D01*
X0024065Y0035254D01*
X0024147Y0035272D01*
X0024229Y0035287D01*
X0024312Y0035298D01*
X0024395Y0035305D01*
X0024479Y0035308D01*
X0024563Y0035307D01*
X0024646Y0035302D01*
X0024730Y0035293D01*
X0024812Y0035280D01*
X0024894Y0035264D01*
X0024975Y0035243D01*
X0025056Y0035219D01*
X0025134Y0035191D01*
X0025212Y0035159D01*
X0025288Y0035123D01*
X0025362Y0035084D01*
X0025434Y0035042D01*
X0025504Y0034996D01*
X0025572Y0034947D01*
X0025637Y0034895D01*
X0025700Y0034840D01*
X0025760Y0034782D01*
X0025818Y0034721D01*
X0025872Y0034657D01*
X0025924Y0034591D01*
X0025972Y0034523D01*
X0026017Y0034452D01*
X0026058Y0034379D01*
X0026097Y0034305D01*
X0026131Y0034229D01*
X0026162Y0034151D01*
X0026189Y0034072D01*
X0026213Y0033991D01*
X0026232Y0033910D01*
X0026248Y0033828D01*
X0026260Y0033745D01*
X0026268Y0033661D01*
X0026272Y0033578D01*
X0026272Y0033494D01*
X0026268Y0033411D01*
X0026260Y0033327D01*
X0026248Y0033244D01*
X0026232Y0033162D01*
X0026213Y0033081D01*
X0026189Y0033000D01*
X0026162Y0032921D01*
X0026131Y0032843D01*
X0026097Y0032767D01*
X0026058Y0032693D01*
X0026017Y0032620D01*
X0025972Y0032549D01*
X0025924Y0032481D01*
X0025872Y0032415D01*
X0025818Y0032351D01*
X0025760Y0032290D01*
X0025700Y0032232D01*
X0025637Y0032177D01*
X0025572Y0032125D01*
X0025504Y0032076D01*
X0025434Y0032030D01*
X0025362Y0031988D01*
X0025288Y0031949D01*
X0025212Y0031913D01*
X0025134Y0031881D01*
X0025056Y0031853D01*
X0024975Y0031829D01*
X0024894Y0031808D01*
X0024812Y0031792D01*
X0024730Y0031779D01*
X0024646Y0031770D01*
X0024563Y0031765D01*
X0024479Y0031764D01*
X0024395Y0031767D01*
X0024312Y0031774D01*
X0024229Y0031785D01*
X0024147Y0031800D01*
X0024065Y0031818D01*
X0023984Y0031841D01*
X0023905Y0031867D01*
X0023827Y0031897D01*
X0023750Y0031931D01*
X0023675Y0031968D01*
X0023602Y0032008D01*
X0023531Y0032053D01*
X0023462Y0032100D01*
X0023395Y0032151D01*
X0023331Y0032204D01*
X0023269Y0032261D01*
X0023211Y0032321D01*
X0023155Y0032383D01*
X0023102Y0032448D01*
X0023052Y0032515D01*
X0023005Y0032584D01*
X0022962Y0032656D01*
X0022922Y0032730D01*
X0022886Y0032805D01*
X0022853Y0032882D01*
X0022824Y0032961D01*
X0022799Y0033040D01*
X0022777Y0033121D01*
X0022760Y0033203D01*
X0022746Y0033286D01*
X0022736Y0033369D01*
X0022730Y0033452D01*
X0022728Y0033536D01*
X0310592Y0269025D02*
X0310594Y0269109D01*
X0310600Y0269192D01*
X0310610Y0269275D01*
X0310624Y0269358D01*
X0310641Y0269440D01*
X0310663Y0269521D01*
X0310688Y0269600D01*
X0310717Y0269679D01*
X0310750Y0269756D01*
X0310786Y0269831D01*
X0310826Y0269905D01*
X0310869Y0269977D01*
X0310916Y0270046D01*
X0310966Y0270113D01*
X0311019Y0270178D01*
X0311075Y0270240D01*
X0311133Y0270300D01*
X0311195Y0270357D01*
X0311259Y0270410D01*
X0311326Y0270461D01*
X0311395Y0270508D01*
X0311466Y0270553D01*
X0311539Y0270593D01*
X0311614Y0270630D01*
X0311691Y0270664D01*
X0311769Y0270694D01*
X0311848Y0270720D01*
X0311929Y0270743D01*
X0312011Y0270761D01*
X0312093Y0270776D01*
X0312176Y0270787D01*
X0312259Y0270794D01*
X0312343Y0270797D01*
X0312427Y0270796D01*
X0312510Y0270791D01*
X0312594Y0270782D01*
X0312676Y0270769D01*
X0312758Y0270753D01*
X0312839Y0270732D01*
X0312920Y0270708D01*
X0312998Y0270680D01*
X0313076Y0270648D01*
X0313152Y0270612D01*
X0313226Y0270573D01*
X0313298Y0270531D01*
X0313368Y0270485D01*
X0313436Y0270436D01*
X0313501Y0270384D01*
X0313564Y0270329D01*
X0313624Y0270271D01*
X0313682Y0270210D01*
X0313736Y0270146D01*
X0313788Y0270080D01*
X0313836Y0270012D01*
X0313881Y0269941D01*
X0313922Y0269868D01*
X0313961Y0269794D01*
X0313995Y0269718D01*
X0314026Y0269640D01*
X0314053Y0269561D01*
X0314077Y0269480D01*
X0314096Y0269399D01*
X0314112Y0269317D01*
X0314124Y0269234D01*
X0314132Y0269150D01*
X0314136Y0269067D01*
X0314136Y0268983D01*
X0314132Y0268900D01*
X0314124Y0268816D01*
X0314112Y0268733D01*
X0314096Y0268651D01*
X0314077Y0268570D01*
X0314053Y0268489D01*
X0314026Y0268410D01*
X0313995Y0268332D01*
X0313961Y0268256D01*
X0313922Y0268182D01*
X0313881Y0268109D01*
X0313836Y0268038D01*
X0313788Y0267970D01*
X0313736Y0267904D01*
X0313682Y0267840D01*
X0313624Y0267779D01*
X0313564Y0267721D01*
X0313501Y0267666D01*
X0313436Y0267614D01*
X0313368Y0267565D01*
X0313298Y0267519D01*
X0313226Y0267477D01*
X0313152Y0267438D01*
X0313076Y0267402D01*
X0312998Y0267370D01*
X0312920Y0267342D01*
X0312839Y0267318D01*
X0312758Y0267297D01*
X0312676Y0267281D01*
X0312594Y0267268D01*
X0312510Y0267259D01*
X0312427Y0267254D01*
X0312343Y0267253D01*
X0312259Y0267256D01*
X0312176Y0267263D01*
X0312093Y0267274D01*
X0312011Y0267289D01*
X0311929Y0267307D01*
X0311848Y0267330D01*
X0311769Y0267356D01*
X0311691Y0267386D01*
X0311614Y0267420D01*
X0311539Y0267457D01*
X0311466Y0267497D01*
X0311395Y0267542D01*
X0311326Y0267589D01*
X0311259Y0267640D01*
X0311195Y0267693D01*
X0311133Y0267750D01*
X0311075Y0267810D01*
X0311019Y0267872D01*
X0310966Y0267937D01*
X0310916Y0268004D01*
X0310869Y0268073D01*
X0310826Y0268145D01*
X0310786Y0268219D01*
X0310750Y0268294D01*
X0310717Y0268371D01*
X0310688Y0268450D01*
X0310663Y0268529D01*
X0310641Y0268610D01*
X0310624Y0268692D01*
X0310610Y0268775D01*
X0310600Y0268858D01*
X0310594Y0268941D01*
X0310592Y0269025D01*
X0327914Y0269025D02*
X0327916Y0269109D01*
X0327922Y0269192D01*
X0327932Y0269275D01*
X0327946Y0269358D01*
X0327963Y0269440D01*
X0327985Y0269521D01*
X0328010Y0269600D01*
X0328039Y0269679D01*
X0328072Y0269756D01*
X0328108Y0269831D01*
X0328148Y0269905D01*
X0328191Y0269977D01*
X0328238Y0270046D01*
X0328288Y0270113D01*
X0328341Y0270178D01*
X0328397Y0270240D01*
X0328455Y0270300D01*
X0328517Y0270357D01*
X0328581Y0270410D01*
X0328648Y0270461D01*
X0328717Y0270508D01*
X0328788Y0270553D01*
X0328861Y0270593D01*
X0328936Y0270630D01*
X0329013Y0270664D01*
X0329091Y0270694D01*
X0329170Y0270720D01*
X0329251Y0270743D01*
X0329333Y0270761D01*
X0329415Y0270776D01*
X0329498Y0270787D01*
X0329581Y0270794D01*
X0329665Y0270797D01*
X0329749Y0270796D01*
X0329832Y0270791D01*
X0329916Y0270782D01*
X0329998Y0270769D01*
X0330080Y0270753D01*
X0330161Y0270732D01*
X0330242Y0270708D01*
X0330320Y0270680D01*
X0330398Y0270648D01*
X0330474Y0270612D01*
X0330548Y0270573D01*
X0330620Y0270531D01*
X0330690Y0270485D01*
X0330758Y0270436D01*
X0330823Y0270384D01*
X0330886Y0270329D01*
X0330946Y0270271D01*
X0331004Y0270210D01*
X0331058Y0270146D01*
X0331110Y0270080D01*
X0331158Y0270012D01*
X0331203Y0269941D01*
X0331244Y0269868D01*
X0331283Y0269794D01*
X0331317Y0269718D01*
X0331348Y0269640D01*
X0331375Y0269561D01*
X0331399Y0269480D01*
X0331418Y0269399D01*
X0331434Y0269317D01*
X0331446Y0269234D01*
X0331454Y0269150D01*
X0331458Y0269067D01*
X0331458Y0268983D01*
X0331454Y0268900D01*
X0331446Y0268816D01*
X0331434Y0268733D01*
X0331418Y0268651D01*
X0331399Y0268570D01*
X0331375Y0268489D01*
X0331348Y0268410D01*
X0331317Y0268332D01*
X0331283Y0268256D01*
X0331244Y0268182D01*
X0331203Y0268109D01*
X0331158Y0268038D01*
X0331110Y0267970D01*
X0331058Y0267904D01*
X0331004Y0267840D01*
X0330946Y0267779D01*
X0330886Y0267721D01*
X0330823Y0267666D01*
X0330758Y0267614D01*
X0330690Y0267565D01*
X0330620Y0267519D01*
X0330548Y0267477D01*
X0330474Y0267438D01*
X0330398Y0267402D01*
X0330320Y0267370D01*
X0330242Y0267342D01*
X0330161Y0267318D01*
X0330080Y0267297D01*
X0329998Y0267281D01*
X0329916Y0267268D01*
X0329832Y0267259D01*
X0329749Y0267254D01*
X0329665Y0267253D01*
X0329581Y0267256D01*
X0329498Y0267263D01*
X0329415Y0267274D01*
X0329333Y0267289D01*
X0329251Y0267307D01*
X0329170Y0267330D01*
X0329091Y0267356D01*
X0329013Y0267386D01*
X0328936Y0267420D01*
X0328861Y0267457D01*
X0328788Y0267497D01*
X0328717Y0267542D01*
X0328648Y0267589D01*
X0328581Y0267640D01*
X0328517Y0267693D01*
X0328455Y0267750D01*
X0328397Y0267810D01*
X0328341Y0267872D01*
X0328288Y0267937D01*
X0328238Y0268004D01*
X0328191Y0268073D01*
X0328148Y0268145D01*
X0328108Y0268219D01*
X0328072Y0268294D01*
X0328039Y0268371D01*
X0328010Y0268450D01*
X0327985Y0268529D01*
X0327963Y0268610D01*
X0327946Y0268692D01*
X0327932Y0268775D01*
X0327922Y0268858D01*
X0327916Y0268941D01*
X0327914Y0269025D01*
D11*
X0343613Y0287025D02*
X0343613Y0002825D01*
M02*
