G75*
%MOIN*%
%OFA0B0*%
%FSLAX25Y25*%
%IPPOS*%
%LPD*%
%AMOC8*
5,1,8,0,0,1.08239X$1,22.5*
%
%ADD10C,0.00000*%
%ADD11R,0.03937X0.04331*%
%ADD12R,0.06299X0.05118*%
%ADD13R,0.04331X0.03937*%
%ADD14R,0.05118X0.06299*%
%ADD15R,0.11614X0.10630*%
%ADD16R,0.03150X0.02362*%
%ADD17R,0.04921X0.01969*%
%ADD18C,0.21000*%
%ADD19R,0.05807X0.01181*%
%ADD20R,0.26969X0.26969*%
%ADD21R,0.07874X0.08661*%
%ADD22R,0.04724X0.04724*%
%ADD23C,0.03778*%
%ADD24R,0.03150X0.03543*%
%ADD25R,0.03150X0.05118*%
%ADD26C,0.07050*%
%ADD27R,0.04331X0.07087*%
%ADD28R,0.04300X0.07900*%
%ADD29R,0.04600X0.06300*%
%ADD30R,0.06300X0.04600*%
%ADD31R,0.07200X0.00600*%
%ADD32R,0.02756X0.03937*%
%ADD33R,0.02362X0.08661*%
%ADD34R,0.05512X0.01181*%
%ADD35R,0.07874X0.09843*%
%ADD36R,0.07874X0.12992*%
%ADD37R,0.01969X0.12205*%
%ADD38C,0.03543*%
%ADD39OC8,0.06000*%
%ADD40R,0.01181X0.07480*%
%ADD41C,0.07677*%
%ADD42R,0.05118X0.03150*%
%ADD43R,0.04331X0.07874*%
%ADD44C,0.04800*%
%ADD45C,0.06000*%
%ADD46R,0.09843X0.07874*%
%ADD47R,0.12992X0.07874*%
%ADD48R,0.12205X0.01969*%
%ADD49C,0.07400*%
%ADD50R,0.01181X0.06299*%
%ADD51R,0.06299X0.01181*%
%ADD52R,0.00984X0.01378*%
%ADD53R,0.02756X0.03543*%
%ADD54R,0.05118X0.05906*%
%ADD55R,0.06299X0.07087*%
%ADD56R,0.01378X0.03150*%
%ADD57R,0.10236X0.10236*%
%ADD58R,0.03543X0.01772*%
%ADD59R,0.01772X0.03543*%
%ADD60R,0.03543X0.03150*%
%ADD61R,0.02362X0.03150*%
%ADD62R,0.07874X0.07874*%
%ADD63OC8,0.03543*%
%ADD64OC8,0.04134*%
%ADD65OC8,0.02953*%
D10*
X0007350Y0002825D02*
X0007350Y0267340D01*
X0027035Y0287025D01*
X0399962Y0287025D01*
X0399962Y0002825D01*
X0007350Y0002825D01*
X0022728Y0016214D02*
X0022730Y0016298D01*
X0022736Y0016381D01*
X0022746Y0016464D01*
X0022760Y0016547D01*
X0022777Y0016629D01*
X0022799Y0016710D01*
X0022824Y0016789D01*
X0022853Y0016868D01*
X0022886Y0016945D01*
X0022922Y0017020D01*
X0022962Y0017094D01*
X0023005Y0017166D01*
X0023052Y0017235D01*
X0023102Y0017302D01*
X0023155Y0017367D01*
X0023211Y0017429D01*
X0023269Y0017489D01*
X0023331Y0017546D01*
X0023395Y0017599D01*
X0023462Y0017650D01*
X0023531Y0017697D01*
X0023602Y0017742D01*
X0023675Y0017782D01*
X0023750Y0017819D01*
X0023827Y0017853D01*
X0023905Y0017883D01*
X0023984Y0017909D01*
X0024065Y0017932D01*
X0024147Y0017950D01*
X0024229Y0017965D01*
X0024312Y0017976D01*
X0024395Y0017983D01*
X0024479Y0017986D01*
X0024563Y0017985D01*
X0024646Y0017980D01*
X0024730Y0017971D01*
X0024812Y0017958D01*
X0024894Y0017942D01*
X0024975Y0017921D01*
X0025056Y0017897D01*
X0025134Y0017869D01*
X0025212Y0017837D01*
X0025288Y0017801D01*
X0025362Y0017762D01*
X0025434Y0017720D01*
X0025504Y0017674D01*
X0025572Y0017625D01*
X0025637Y0017573D01*
X0025700Y0017518D01*
X0025760Y0017460D01*
X0025818Y0017399D01*
X0025872Y0017335D01*
X0025924Y0017269D01*
X0025972Y0017201D01*
X0026017Y0017130D01*
X0026058Y0017057D01*
X0026097Y0016983D01*
X0026131Y0016907D01*
X0026162Y0016829D01*
X0026189Y0016750D01*
X0026213Y0016669D01*
X0026232Y0016588D01*
X0026248Y0016506D01*
X0026260Y0016423D01*
X0026268Y0016339D01*
X0026272Y0016256D01*
X0026272Y0016172D01*
X0026268Y0016089D01*
X0026260Y0016005D01*
X0026248Y0015922D01*
X0026232Y0015840D01*
X0026213Y0015759D01*
X0026189Y0015678D01*
X0026162Y0015599D01*
X0026131Y0015521D01*
X0026097Y0015445D01*
X0026058Y0015371D01*
X0026017Y0015298D01*
X0025972Y0015227D01*
X0025924Y0015159D01*
X0025872Y0015093D01*
X0025818Y0015029D01*
X0025760Y0014968D01*
X0025700Y0014910D01*
X0025637Y0014855D01*
X0025572Y0014803D01*
X0025504Y0014754D01*
X0025434Y0014708D01*
X0025362Y0014666D01*
X0025288Y0014627D01*
X0025212Y0014591D01*
X0025134Y0014559D01*
X0025056Y0014531D01*
X0024975Y0014507D01*
X0024894Y0014486D01*
X0024812Y0014470D01*
X0024730Y0014457D01*
X0024646Y0014448D01*
X0024563Y0014443D01*
X0024479Y0014442D01*
X0024395Y0014445D01*
X0024312Y0014452D01*
X0024229Y0014463D01*
X0024147Y0014478D01*
X0024065Y0014496D01*
X0023984Y0014519D01*
X0023905Y0014545D01*
X0023827Y0014575D01*
X0023750Y0014609D01*
X0023675Y0014646D01*
X0023602Y0014686D01*
X0023531Y0014731D01*
X0023462Y0014778D01*
X0023395Y0014829D01*
X0023331Y0014882D01*
X0023269Y0014939D01*
X0023211Y0014999D01*
X0023155Y0015061D01*
X0023102Y0015126D01*
X0023052Y0015193D01*
X0023005Y0015262D01*
X0022962Y0015334D01*
X0022922Y0015408D01*
X0022886Y0015483D01*
X0022853Y0015560D01*
X0022824Y0015639D01*
X0022799Y0015718D01*
X0022777Y0015799D01*
X0022760Y0015881D01*
X0022746Y0015964D01*
X0022736Y0016047D01*
X0022730Y0016130D01*
X0022728Y0016214D01*
X0022728Y0033536D02*
X0022730Y0033620D01*
X0022736Y0033703D01*
X0022746Y0033786D01*
X0022760Y0033869D01*
X0022777Y0033951D01*
X0022799Y0034032D01*
X0022824Y0034111D01*
X0022853Y0034190D01*
X0022886Y0034267D01*
X0022922Y0034342D01*
X0022962Y0034416D01*
X0023005Y0034488D01*
X0023052Y0034557D01*
X0023102Y0034624D01*
X0023155Y0034689D01*
X0023211Y0034751D01*
X0023269Y0034811D01*
X0023331Y0034868D01*
X0023395Y0034921D01*
X0023462Y0034972D01*
X0023531Y0035019D01*
X0023602Y0035064D01*
X0023675Y0035104D01*
X0023750Y0035141D01*
X0023827Y0035175D01*
X0023905Y0035205D01*
X0023984Y0035231D01*
X0024065Y0035254D01*
X0024147Y0035272D01*
X0024229Y0035287D01*
X0024312Y0035298D01*
X0024395Y0035305D01*
X0024479Y0035308D01*
X0024563Y0035307D01*
X0024646Y0035302D01*
X0024730Y0035293D01*
X0024812Y0035280D01*
X0024894Y0035264D01*
X0024975Y0035243D01*
X0025056Y0035219D01*
X0025134Y0035191D01*
X0025212Y0035159D01*
X0025288Y0035123D01*
X0025362Y0035084D01*
X0025434Y0035042D01*
X0025504Y0034996D01*
X0025572Y0034947D01*
X0025637Y0034895D01*
X0025700Y0034840D01*
X0025760Y0034782D01*
X0025818Y0034721D01*
X0025872Y0034657D01*
X0025924Y0034591D01*
X0025972Y0034523D01*
X0026017Y0034452D01*
X0026058Y0034379D01*
X0026097Y0034305D01*
X0026131Y0034229D01*
X0026162Y0034151D01*
X0026189Y0034072D01*
X0026213Y0033991D01*
X0026232Y0033910D01*
X0026248Y0033828D01*
X0026260Y0033745D01*
X0026268Y0033661D01*
X0026272Y0033578D01*
X0026272Y0033494D01*
X0026268Y0033411D01*
X0026260Y0033327D01*
X0026248Y0033244D01*
X0026232Y0033162D01*
X0026213Y0033081D01*
X0026189Y0033000D01*
X0026162Y0032921D01*
X0026131Y0032843D01*
X0026097Y0032767D01*
X0026058Y0032693D01*
X0026017Y0032620D01*
X0025972Y0032549D01*
X0025924Y0032481D01*
X0025872Y0032415D01*
X0025818Y0032351D01*
X0025760Y0032290D01*
X0025700Y0032232D01*
X0025637Y0032177D01*
X0025572Y0032125D01*
X0025504Y0032076D01*
X0025434Y0032030D01*
X0025362Y0031988D01*
X0025288Y0031949D01*
X0025212Y0031913D01*
X0025134Y0031881D01*
X0025056Y0031853D01*
X0024975Y0031829D01*
X0024894Y0031808D01*
X0024812Y0031792D01*
X0024730Y0031779D01*
X0024646Y0031770D01*
X0024563Y0031765D01*
X0024479Y0031764D01*
X0024395Y0031767D01*
X0024312Y0031774D01*
X0024229Y0031785D01*
X0024147Y0031800D01*
X0024065Y0031818D01*
X0023984Y0031841D01*
X0023905Y0031867D01*
X0023827Y0031897D01*
X0023750Y0031931D01*
X0023675Y0031968D01*
X0023602Y0032008D01*
X0023531Y0032053D01*
X0023462Y0032100D01*
X0023395Y0032151D01*
X0023331Y0032204D01*
X0023269Y0032261D01*
X0023211Y0032321D01*
X0023155Y0032383D01*
X0023102Y0032448D01*
X0023052Y0032515D01*
X0023005Y0032584D01*
X0022962Y0032656D01*
X0022922Y0032730D01*
X0022886Y0032805D01*
X0022853Y0032882D01*
X0022824Y0032961D01*
X0022799Y0033040D01*
X0022777Y0033121D01*
X0022760Y0033203D01*
X0022746Y0033286D01*
X0022736Y0033369D01*
X0022730Y0033452D01*
X0022728Y0033536D01*
X0310592Y0269025D02*
X0310594Y0269109D01*
X0310600Y0269192D01*
X0310610Y0269275D01*
X0310624Y0269358D01*
X0310641Y0269440D01*
X0310663Y0269521D01*
X0310688Y0269600D01*
X0310717Y0269679D01*
X0310750Y0269756D01*
X0310786Y0269831D01*
X0310826Y0269905D01*
X0310869Y0269977D01*
X0310916Y0270046D01*
X0310966Y0270113D01*
X0311019Y0270178D01*
X0311075Y0270240D01*
X0311133Y0270300D01*
X0311195Y0270357D01*
X0311259Y0270410D01*
X0311326Y0270461D01*
X0311395Y0270508D01*
X0311466Y0270553D01*
X0311539Y0270593D01*
X0311614Y0270630D01*
X0311691Y0270664D01*
X0311769Y0270694D01*
X0311848Y0270720D01*
X0311929Y0270743D01*
X0312011Y0270761D01*
X0312093Y0270776D01*
X0312176Y0270787D01*
X0312259Y0270794D01*
X0312343Y0270797D01*
X0312427Y0270796D01*
X0312510Y0270791D01*
X0312594Y0270782D01*
X0312676Y0270769D01*
X0312758Y0270753D01*
X0312839Y0270732D01*
X0312920Y0270708D01*
X0312998Y0270680D01*
X0313076Y0270648D01*
X0313152Y0270612D01*
X0313226Y0270573D01*
X0313298Y0270531D01*
X0313368Y0270485D01*
X0313436Y0270436D01*
X0313501Y0270384D01*
X0313564Y0270329D01*
X0313624Y0270271D01*
X0313682Y0270210D01*
X0313736Y0270146D01*
X0313788Y0270080D01*
X0313836Y0270012D01*
X0313881Y0269941D01*
X0313922Y0269868D01*
X0313961Y0269794D01*
X0313995Y0269718D01*
X0314026Y0269640D01*
X0314053Y0269561D01*
X0314077Y0269480D01*
X0314096Y0269399D01*
X0314112Y0269317D01*
X0314124Y0269234D01*
X0314132Y0269150D01*
X0314136Y0269067D01*
X0314136Y0268983D01*
X0314132Y0268900D01*
X0314124Y0268816D01*
X0314112Y0268733D01*
X0314096Y0268651D01*
X0314077Y0268570D01*
X0314053Y0268489D01*
X0314026Y0268410D01*
X0313995Y0268332D01*
X0313961Y0268256D01*
X0313922Y0268182D01*
X0313881Y0268109D01*
X0313836Y0268038D01*
X0313788Y0267970D01*
X0313736Y0267904D01*
X0313682Y0267840D01*
X0313624Y0267779D01*
X0313564Y0267721D01*
X0313501Y0267666D01*
X0313436Y0267614D01*
X0313368Y0267565D01*
X0313298Y0267519D01*
X0313226Y0267477D01*
X0313152Y0267438D01*
X0313076Y0267402D01*
X0312998Y0267370D01*
X0312920Y0267342D01*
X0312839Y0267318D01*
X0312758Y0267297D01*
X0312676Y0267281D01*
X0312594Y0267268D01*
X0312510Y0267259D01*
X0312427Y0267254D01*
X0312343Y0267253D01*
X0312259Y0267256D01*
X0312176Y0267263D01*
X0312093Y0267274D01*
X0312011Y0267289D01*
X0311929Y0267307D01*
X0311848Y0267330D01*
X0311769Y0267356D01*
X0311691Y0267386D01*
X0311614Y0267420D01*
X0311539Y0267457D01*
X0311466Y0267497D01*
X0311395Y0267542D01*
X0311326Y0267589D01*
X0311259Y0267640D01*
X0311195Y0267693D01*
X0311133Y0267750D01*
X0311075Y0267810D01*
X0311019Y0267872D01*
X0310966Y0267937D01*
X0310916Y0268004D01*
X0310869Y0268073D01*
X0310826Y0268145D01*
X0310786Y0268219D01*
X0310750Y0268294D01*
X0310717Y0268371D01*
X0310688Y0268450D01*
X0310663Y0268529D01*
X0310641Y0268610D01*
X0310624Y0268692D01*
X0310610Y0268775D01*
X0310600Y0268858D01*
X0310594Y0268941D01*
X0310592Y0269025D01*
X0327914Y0269025D02*
X0327916Y0269109D01*
X0327922Y0269192D01*
X0327932Y0269275D01*
X0327946Y0269358D01*
X0327963Y0269440D01*
X0327985Y0269521D01*
X0328010Y0269600D01*
X0328039Y0269679D01*
X0328072Y0269756D01*
X0328108Y0269831D01*
X0328148Y0269905D01*
X0328191Y0269977D01*
X0328238Y0270046D01*
X0328288Y0270113D01*
X0328341Y0270178D01*
X0328397Y0270240D01*
X0328455Y0270300D01*
X0328517Y0270357D01*
X0328581Y0270410D01*
X0328648Y0270461D01*
X0328717Y0270508D01*
X0328788Y0270553D01*
X0328861Y0270593D01*
X0328936Y0270630D01*
X0329013Y0270664D01*
X0329091Y0270694D01*
X0329170Y0270720D01*
X0329251Y0270743D01*
X0329333Y0270761D01*
X0329415Y0270776D01*
X0329498Y0270787D01*
X0329581Y0270794D01*
X0329665Y0270797D01*
X0329749Y0270796D01*
X0329832Y0270791D01*
X0329916Y0270782D01*
X0329998Y0270769D01*
X0330080Y0270753D01*
X0330161Y0270732D01*
X0330242Y0270708D01*
X0330320Y0270680D01*
X0330398Y0270648D01*
X0330474Y0270612D01*
X0330548Y0270573D01*
X0330620Y0270531D01*
X0330690Y0270485D01*
X0330758Y0270436D01*
X0330823Y0270384D01*
X0330886Y0270329D01*
X0330946Y0270271D01*
X0331004Y0270210D01*
X0331058Y0270146D01*
X0331110Y0270080D01*
X0331158Y0270012D01*
X0331203Y0269941D01*
X0331244Y0269868D01*
X0331283Y0269794D01*
X0331317Y0269718D01*
X0331348Y0269640D01*
X0331375Y0269561D01*
X0331399Y0269480D01*
X0331418Y0269399D01*
X0331434Y0269317D01*
X0331446Y0269234D01*
X0331454Y0269150D01*
X0331458Y0269067D01*
X0331458Y0268983D01*
X0331454Y0268900D01*
X0331446Y0268816D01*
X0331434Y0268733D01*
X0331418Y0268651D01*
X0331399Y0268570D01*
X0331375Y0268489D01*
X0331348Y0268410D01*
X0331317Y0268332D01*
X0331283Y0268256D01*
X0331244Y0268182D01*
X0331203Y0268109D01*
X0331158Y0268038D01*
X0331110Y0267970D01*
X0331058Y0267904D01*
X0331004Y0267840D01*
X0330946Y0267779D01*
X0330886Y0267721D01*
X0330823Y0267666D01*
X0330758Y0267614D01*
X0330690Y0267565D01*
X0330620Y0267519D01*
X0330548Y0267477D01*
X0330474Y0267438D01*
X0330398Y0267402D01*
X0330320Y0267370D01*
X0330242Y0267342D01*
X0330161Y0267318D01*
X0330080Y0267297D01*
X0329998Y0267281D01*
X0329916Y0267268D01*
X0329832Y0267259D01*
X0329749Y0267254D01*
X0329665Y0267253D01*
X0329581Y0267256D01*
X0329498Y0267263D01*
X0329415Y0267274D01*
X0329333Y0267289D01*
X0329251Y0267307D01*
X0329170Y0267330D01*
X0329091Y0267356D01*
X0329013Y0267386D01*
X0328936Y0267420D01*
X0328861Y0267457D01*
X0328788Y0267497D01*
X0328717Y0267542D01*
X0328648Y0267589D01*
X0328581Y0267640D01*
X0328517Y0267693D01*
X0328455Y0267750D01*
X0328397Y0267810D01*
X0328341Y0267872D01*
X0328288Y0267937D01*
X0328238Y0268004D01*
X0328191Y0268073D01*
X0328148Y0268145D01*
X0328108Y0268219D01*
X0328072Y0268294D01*
X0328039Y0268371D01*
X0328010Y0268450D01*
X0327985Y0268529D01*
X0327963Y0268610D01*
X0327946Y0268692D01*
X0327932Y0268775D01*
X0327922Y0268858D01*
X0327916Y0268941D01*
X0327914Y0269025D01*
D11*
G36*
X0232072Y0196404D02*
X0229289Y0193621D01*
X0226228Y0196682D01*
X0229011Y0199465D01*
X0232072Y0196404D01*
G37*
G36*
X0227339Y0191671D02*
X0224556Y0188888D01*
X0221495Y0191949D01*
X0224278Y0194732D01*
X0227339Y0191671D01*
G37*
X0196025Y0211929D03*
X0188525Y0211929D03*
X0188525Y0218621D03*
X0196025Y0218621D03*
X0124775Y0159871D03*
X0124775Y0153179D03*
X0124775Y0147371D03*
X0124775Y0140679D03*
G36*
X0145633Y0117073D02*
X0142850Y0114290D01*
X0139789Y0117351D01*
X0142572Y0120134D01*
X0145633Y0117073D01*
G37*
G36*
X0140900Y0112341D02*
X0138117Y0109558D01*
X0135056Y0112619D01*
X0137839Y0115402D01*
X0140900Y0112341D01*
G37*
X0183525Y0082371D03*
X0191025Y0082371D03*
X0198525Y0082371D03*
X0198525Y0075679D03*
X0191025Y0075679D03*
X0183525Y0075679D03*
X0131871Y0061525D03*
X0125179Y0061525D03*
X0125179Y0054025D03*
X0131871Y0054025D03*
X0086871Y0021525D03*
X0080179Y0021525D03*
X0071025Y0023179D03*
X0063525Y0023179D03*
X0063525Y0029871D03*
X0071025Y0029871D03*
X0073121Y0045275D03*
X0066429Y0045275D03*
X0044775Y0083179D03*
X0044775Y0089871D03*
X0037275Y0089871D03*
X0037275Y0083179D03*
X0024775Y0133179D03*
X0024775Y0139871D03*
X0024775Y0185679D03*
X0024775Y0192371D03*
X0024775Y0236929D03*
X0024775Y0243621D03*
X0313525Y0067371D03*
X0313525Y0060679D03*
X0189775Y0026121D03*
X0189775Y0019429D03*
D12*
X0089775Y0127588D03*
X0089775Y0135462D03*
X0079775Y0135462D03*
X0069775Y0135462D03*
X0069775Y0127588D03*
X0079775Y0127588D03*
X0059775Y0127588D03*
X0049775Y0127588D03*
X0049775Y0135462D03*
X0059775Y0135462D03*
X0028525Y0148838D03*
X0028525Y0156712D03*
X0019775Y0156712D03*
X0019775Y0148838D03*
X0049775Y0180088D03*
X0049775Y0187962D03*
X0059775Y0187962D03*
X0059775Y0180088D03*
X0069775Y0180088D03*
X0069775Y0187962D03*
X0079775Y0187962D03*
X0079775Y0180088D03*
X0089775Y0180088D03*
X0089775Y0187962D03*
X0089775Y0231338D03*
X0089775Y0239212D03*
X0079775Y0239212D03*
X0069775Y0239212D03*
X0069775Y0231338D03*
X0079775Y0231338D03*
X0059775Y0231338D03*
X0049775Y0231338D03*
X0049775Y0239212D03*
X0049775Y0246338D03*
X0059775Y0246338D03*
X0059775Y0239212D03*
X0059775Y0254212D03*
X0049775Y0254212D03*
X0029775Y0207962D03*
X0029775Y0200088D03*
X0021025Y0200088D03*
X0021025Y0207962D03*
D13*
X0027275Y0221929D03*
X0027275Y0228621D03*
X0017275Y0236929D03*
X0017275Y0243621D03*
X0017275Y0192371D03*
X0017275Y0185679D03*
X0027275Y0177371D03*
X0027275Y0170679D03*
X0017275Y0139871D03*
X0017275Y0133179D03*
X0027275Y0124871D03*
X0027275Y0118179D03*
X0052679Y0075275D03*
X0059371Y0075275D03*
G36*
X0129598Y0091709D02*
X0126537Y0088648D01*
X0123754Y0091431D01*
X0126815Y0094492D01*
X0129598Y0091709D01*
G37*
G36*
X0134331Y0096441D02*
X0131270Y0093380D01*
X0128487Y0096163D01*
X0131548Y0099224D01*
X0134331Y0096441D01*
G37*
G36*
X0135737Y0102770D02*
X0138798Y0105831D01*
X0141581Y0103048D01*
X0138520Y0099987D01*
X0135737Y0102770D01*
G37*
G36*
X0140469Y0107502D02*
X0143530Y0110563D01*
X0146313Y0107780D01*
X0143252Y0104719D01*
X0140469Y0107502D01*
G37*
X0189775Y0043621D03*
X0189775Y0036929D03*
X0201025Y0026121D03*
X0201025Y0019429D03*
X0231429Y0054025D03*
X0238121Y0054025D03*
X0275179Y0045275D03*
X0281871Y0045275D03*
X0310179Y0045275D03*
X0316871Y0045275D03*
X0350066Y0173712D03*
X0356759Y0173712D03*
X0362929Y0173712D03*
X0369621Y0173712D03*
X0375791Y0173712D03*
X0382484Y0173712D03*
X0388654Y0173712D03*
X0395346Y0173712D03*
X0387996Y0181675D03*
X0381304Y0181675D03*
X0375134Y0181675D03*
X0368441Y0181675D03*
X0362271Y0181675D03*
X0355579Y0181675D03*
X0357984Y0189637D03*
X0362929Y0189637D03*
X0369621Y0189637D03*
X0374566Y0189637D03*
X0381259Y0189637D03*
X0386204Y0189637D03*
X0392896Y0189637D03*
X0351291Y0189637D03*
X0306025Y0223179D03*
X0306025Y0229871D03*
X0306025Y0235679D03*
X0306025Y0242371D03*
D14*
X0059962Y0066525D03*
X0052088Y0066525D03*
D15*
X0041812Y0065275D03*
X0015238Y0065275D03*
D16*
X0029775Y0083375D03*
X0029775Y0089675D03*
D17*
X0316104Y0232785D03*
X0316104Y0236525D03*
X0316104Y0240265D03*
X0325946Y0240265D03*
X0325946Y0236525D03*
X0325946Y0232785D03*
D18*
X0191025Y0149025D03*
D19*
G36*
X0161513Y0122855D02*
X0157409Y0118751D01*
X0156575Y0119585D01*
X0160679Y0123689D01*
X0161513Y0122855D01*
G37*
G36*
X0162905Y0121463D02*
X0158801Y0117359D01*
X0157967Y0118193D01*
X0162071Y0122297D01*
X0162905Y0121463D01*
G37*
G36*
X0164297Y0120071D02*
X0160193Y0115967D01*
X0159359Y0116801D01*
X0163463Y0120905D01*
X0164297Y0120071D01*
G37*
G36*
X0165689Y0118679D02*
X0161585Y0114575D01*
X0160751Y0115409D01*
X0164855Y0119513D01*
X0165689Y0118679D01*
G37*
G36*
X0167080Y0117287D02*
X0162976Y0113183D01*
X0162142Y0114017D01*
X0166246Y0118121D01*
X0167080Y0117287D01*
G37*
G36*
X0168472Y0115895D02*
X0164368Y0111791D01*
X0163534Y0112625D01*
X0167638Y0116729D01*
X0168472Y0115895D01*
G37*
G36*
X0169864Y0114503D02*
X0165760Y0110399D01*
X0164926Y0111233D01*
X0169030Y0115337D01*
X0169864Y0114503D01*
G37*
G36*
X0171256Y0113111D02*
X0167152Y0109007D01*
X0166318Y0109841D01*
X0170422Y0113945D01*
X0171256Y0113111D01*
G37*
G36*
X0172648Y0111719D02*
X0168544Y0107615D01*
X0167710Y0108449D01*
X0171814Y0112553D01*
X0172648Y0111719D01*
G37*
G36*
X0174040Y0110327D02*
X0169936Y0106223D01*
X0169102Y0107057D01*
X0173206Y0111161D01*
X0174040Y0110327D01*
G37*
G36*
X0175432Y0108935D02*
X0171328Y0104831D01*
X0170494Y0105665D01*
X0174598Y0109769D01*
X0175432Y0108935D01*
G37*
G36*
X0176824Y0107543D02*
X0172720Y0103439D01*
X0171886Y0104273D01*
X0175990Y0108377D01*
X0176824Y0107543D01*
G37*
G36*
X0178216Y0106151D02*
X0174112Y0102047D01*
X0173278Y0102881D01*
X0177382Y0106985D01*
X0178216Y0106151D01*
G37*
G36*
X0179608Y0104759D02*
X0175504Y0100655D01*
X0174670Y0101489D01*
X0178774Y0105593D01*
X0179608Y0104759D01*
G37*
G36*
X0181000Y0103367D02*
X0176896Y0099263D01*
X0176062Y0100097D01*
X0180166Y0104201D01*
X0181000Y0103367D01*
G37*
G36*
X0182392Y0101975D02*
X0178288Y0097871D01*
X0177454Y0098705D01*
X0181558Y0102809D01*
X0182392Y0101975D01*
G37*
G36*
X0183784Y0100583D02*
X0179680Y0096479D01*
X0178846Y0097313D01*
X0182950Y0101417D01*
X0183784Y0100583D01*
G37*
G36*
X0185176Y0099192D02*
X0181072Y0095088D01*
X0180238Y0095922D01*
X0184342Y0100026D01*
X0185176Y0099192D01*
G37*
G36*
X0186568Y0097800D02*
X0182464Y0093696D01*
X0181630Y0094530D01*
X0185734Y0098634D01*
X0186568Y0097800D01*
G37*
G36*
X0187960Y0096408D02*
X0183856Y0092304D01*
X0183022Y0093138D01*
X0187126Y0097242D01*
X0187960Y0096408D01*
G37*
G36*
X0194924Y0097242D02*
X0199028Y0093138D01*
X0198194Y0092304D01*
X0194090Y0096408D01*
X0194924Y0097242D01*
G37*
G36*
X0196316Y0098634D02*
X0200420Y0094530D01*
X0199586Y0093696D01*
X0195482Y0097800D01*
X0196316Y0098634D01*
G37*
G36*
X0197708Y0100026D02*
X0201812Y0095922D01*
X0200978Y0095088D01*
X0196874Y0099192D01*
X0197708Y0100026D01*
G37*
G36*
X0199100Y0101417D02*
X0203204Y0097313D01*
X0202370Y0096479D01*
X0198266Y0100583D01*
X0199100Y0101417D01*
G37*
G36*
X0200492Y0102809D02*
X0204596Y0098705D01*
X0203762Y0097871D01*
X0199658Y0101975D01*
X0200492Y0102809D01*
G37*
G36*
X0201884Y0104201D02*
X0205988Y0100097D01*
X0205154Y0099263D01*
X0201050Y0103367D01*
X0201884Y0104201D01*
G37*
G36*
X0203276Y0105593D02*
X0207380Y0101489D01*
X0206546Y0100655D01*
X0202442Y0104759D01*
X0203276Y0105593D01*
G37*
G36*
X0204668Y0106985D02*
X0208772Y0102881D01*
X0207938Y0102047D01*
X0203834Y0106151D01*
X0204668Y0106985D01*
G37*
G36*
X0206060Y0108377D02*
X0210164Y0104273D01*
X0209330Y0103439D01*
X0205226Y0107543D01*
X0206060Y0108377D01*
G37*
G36*
X0207452Y0109769D02*
X0211556Y0105665D01*
X0210722Y0104831D01*
X0206618Y0108935D01*
X0207452Y0109769D01*
G37*
G36*
X0208844Y0111161D02*
X0212948Y0107057D01*
X0212114Y0106223D01*
X0208010Y0110327D01*
X0208844Y0111161D01*
G37*
G36*
X0210236Y0112553D02*
X0214340Y0108449D01*
X0213506Y0107615D01*
X0209402Y0111719D01*
X0210236Y0112553D01*
G37*
G36*
X0211628Y0113945D02*
X0215732Y0109841D01*
X0214898Y0109007D01*
X0210794Y0113111D01*
X0211628Y0113945D01*
G37*
G36*
X0213020Y0115337D02*
X0217124Y0111233D01*
X0216290Y0110399D01*
X0212186Y0114503D01*
X0213020Y0115337D01*
G37*
G36*
X0214412Y0116729D02*
X0218516Y0112625D01*
X0217682Y0111791D01*
X0213578Y0115895D01*
X0214412Y0116729D01*
G37*
G36*
X0215803Y0118121D02*
X0219907Y0114017D01*
X0219073Y0113183D01*
X0214969Y0117287D01*
X0215803Y0118121D01*
G37*
G36*
X0217195Y0119513D02*
X0221299Y0115409D01*
X0220465Y0114575D01*
X0216361Y0118679D01*
X0217195Y0119513D01*
G37*
G36*
X0218587Y0120905D02*
X0222691Y0116801D01*
X0221857Y0115967D01*
X0217753Y0120071D01*
X0218587Y0120905D01*
G37*
G36*
X0219979Y0122297D02*
X0224083Y0118193D01*
X0223249Y0117359D01*
X0219145Y0121463D01*
X0219979Y0122297D01*
G37*
G36*
X0221371Y0123689D02*
X0225475Y0119585D01*
X0224641Y0118751D01*
X0220537Y0122855D01*
X0221371Y0123689D01*
G37*
G36*
X0222763Y0125080D02*
X0226867Y0120976D01*
X0226033Y0120142D01*
X0221929Y0124246D01*
X0222763Y0125080D01*
G37*
G36*
X0224155Y0126472D02*
X0228259Y0122368D01*
X0227425Y0121534D01*
X0223321Y0125638D01*
X0224155Y0126472D01*
G37*
G36*
X0225547Y0127864D02*
X0229651Y0123760D01*
X0228817Y0122926D01*
X0224713Y0127030D01*
X0225547Y0127864D01*
G37*
G36*
X0226939Y0129256D02*
X0231043Y0125152D01*
X0230209Y0124318D01*
X0226105Y0128422D01*
X0226939Y0129256D01*
G37*
G36*
X0228331Y0130648D02*
X0232435Y0126544D01*
X0231601Y0125710D01*
X0227497Y0129814D01*
X0228331Y0130648D01*
G37*
G36*
X0229723Y0132040D02*
X0233827Y0127936D01*
X0232993Y0127102D01*
X0228889Y0131206D01*
X0229723Y0132040D01*
G37*
G36*
X0231115Y0133432D02*
X0235219Y0129328D01*
X0234385Y0128494D01*
X0230281Y0132598D01*
X0231115Y0133432D01*
G37*
G36*
X0232507Y0134824D02*
X0236611Y0130720D01*
X0235777Y0129886D01*
X0231673Y0133990D01*
X0232507Y0134824D01*
G37*
G36*
X0233899Y0136216D02*
X0238003Y0132112D01*
X0237169Y0131278D01*
X0233065Y0135382D01*
X0233899Y0136216D01*
G37*
G36*
X0235291Y0137608D02*
X0239395Y0133504D01*
X0238561Y0132670D01*
X0234457Y0136774D01*
X0235291Y0137608D01*
G37*
G36*
X0236683Y0139000D02*
X0240787Y0134896D01*
X0239953Y0134062D01*
X0235849Y0138166D01*
X0236683Y0139000D01*
G37*
G36*
X0238075Y0140392D02*
X0242179Y0136288D01*
X0241345Y0135454D01*
X0237241Y0139558D01*
X0238075Y0140392D01*
G37*
G36*
X0239467Y0141784D02*
X0243571Y0137680D01*
X0242737Y0136846D01*
X0238633Y0140950D01*
X0239467Y0141784D01*
G37*
G36*
X0240858Y0143176D02*
X0244962Y0139072D01*
X0244128Y0138238D01*
X0240024Y0142342D01*
X0240858Y0143176D01*
G37*
G36*
X0242250Y0144568D02*
X0246354Y0140464D01*
X0245520Y0139630D01*
X0241416Y0143734D01*
X0242250Y0144568D01*
G37*
G36*
X0243642Y0145960D02*
X0247746Y0141856D01*
X0246912Y0141022D01*
X0242808Y0145126D01*
X0243642Y0145960D01*
G37*
G36*
X0247746Y0156194D02*
X0243642Y0152090D01*
X0242808Y0152924D01*
X0246912Y0157028D01*
X0247746Y0156194D01*
G37*
G36*
X0246354Y0157586D02*
X0242250Y0153482D01*
X0241416Y0154316D01*
X0245520Y0158420D01*
X0246354Y0157586D01*
G37*
G36*
X0244962Y0158978D02*
X0240858Y0154874D01*
X0240024Y0155708D01*
X0244128Y0159812D01*
X0244962Y0158978D01*
G37*
G36*
X0243571Y0160370D02*
X0239467Y0156266D01*
X0238633Y0157100D01*
X0242737Y0161204D01*
X0243571Y0160370D01*
G37*
G36*
X0242179Y0161762D02*
X0238075Y0157658D01*
X0237241Y0158492D01*
X0241345Y0162596D01*
X0242179Y0161762D01*
G37*
G36*
X0240787Y0163154D02*
X0236683Y0159050D01*
X0235849Y0159884D01*
X0239953Y0163988D01*
X0240787Y0163154D01*
G37*
G36*
X0239395Y0164546D02*
X0235291Y0160442D01*
X0234457Y0161276D01*
X0238561Y0165380D01*
X0239395Y0164546D01*
G37*
G36*
X0238003Y0165938D02*
X0233899Y0161834D01*
X0233065Y0162668D01*
X0237169Y0166772D01*
X0238003Y0165938D01*
G37*
G36*
X0236611Y0167330D02*
X0232507Y0163226D01*
X0231673Y0164060D01*
X0235777Y0168164D01*
X0236611Y0167330D01*
G37*
G36*
X0235219Y0168722D02*
X0231115Y0164618D01*
X0230281Y0165452D01*
X0234385Y0169556D01*
X0235219Y0168722D01*
G37*
G36*
X0233827Y0170114D02*
X0229723Y0166010D01*
X0228889Y0166844D01*
X0232993Y0170948D01*
X0233827Y0170114D01*
G37*
G36*
X0232435Y0171506D02*
X0228331Y0167402D01*
X0227497Y0168236D01*
X0231601Y0172340D01*
X0232435Y0171506D01*
G37*
G36*
X0231043Y0172898D02*
X0226939Y0168794D01*
X0226105Y0169628D01*
X0230209Y0173732D01*
X0231043Y0172898D01*
G37*
G36*
X0229651Y0174290D02*
X0225547Y0170186D01*
X0224713Y0171020D01*
X0228817Y0175124D01*
X0229651Y0174290D01*
G37*
G36*
X0228259Y0175682D02*
X0224155Y0171578D01*
X0223321Y0172412D01*
X0227425Y0176516D01*
X0228259Y0175682D01*
G37*
G36*
X0226867Y0177073D02*
X0222763Y0172969D01*
X0221929Y0173803D01*
X0226033Y0177907D01*
X0226867Y0177073D01*
G37*
G36*
X0225475Y0178465D02*
X0221371Y0174361D01*
X0220537Y0175195D01*
X0224641Y0179299D01*
X0225475Y0178465D01*
G37*
G36*
X0224083Y0179857D02*
X0219979Y0175753D01*
X0219145Y0176587D01*
X0223249Y0180691D01*
X0224083Y0179857D01*
G37*
G36*
X0222691Y0181249D02*
X0218587Y0177145D01*
X0217753Y0177979D01*
X0221857Y0182083D01*
X0222691Y0181249D01*
G37*
G36*
X0221299Y0182641D02*
X0217195Y0178537D01*
X0216361Y0179371D01*
X0220465Y0183475D01*
X0221299Y0182641D01*
G37*
G36*
X0219907Y0184033D02*
X0215803Y0179929D01*
X0214969Y0180763D01*
X0219073Y0184867D01*
X0219907Y0184033D01*
G37*
G36*
X0218516Y0185425D02*
X0214412Y0181321D01*
X0213578Y0182155D01*
X0217682Y0186259D01*
X0218516Y0185425D01*
G37*
G36*
X0217124Y0186817D02*
X0213020Y0182713D01*
X0212186Y0183547D01*
X0216290Y0187651D01*
X0217124Y0186817D01*
G37*
G36*
X0215732Y0188209D02*
X0211628Y0184105D01*
X0210794Y0184939D01*
X0214898Y0189043D01*
X0215732Y0188209D01*
G37*
G36*
X0214340Y0189601D02*
X0210236Y0185497D01*
X0209402Y0186331D01*
X0213506Y0190435D01*
X0214340Y0189601D01*
G37*
G36*
X0212948Y0190993D02*
X0208844Y0186889D01*
X0208010Y0187723D01*
X0212114Y0191827D01*
X0212948Y0190993D01*
G37*
G36*
X0211556Y0192385D02*
X0207452Y0188281D01*
X0206618Y0189115D01*
X0210722Y0193219D01*
X0211556Y0192385D01*
G37*
G36*
X0210164Y0193777D02*
X0206060Y0189673D01*
X0205226Y0190507D01*
X0209330Y0194611D01*
X0210164Y0193777D01*
G37*
G36*
X0208772Y0195169D02*
X0204668Y0191065D01*
X0203834Y0191899D01*
X0207938Y0196003D01*
X0208772Y0195169D01*
G37*
G36*
X0207380Y0196561D02*
X0203276Y0192457D01*
X0202442Y0193291D01*
X0206546Y0197395D01*
X0207380Y0196561D01*
G37*
G36*
X0205988Y0197953D02*
X0201884Y0193849D01*
X0201050Y0194683D01*
X0205154Y0198787D01*
X0205988Y0197953D01*
G37*
G36*
X0204596Y0199345D02*
X0200492Y0195241D01*
X0199658Y0196075D01*
X0203762Y0200179D01*
X0204596Y0199345D01*
G37*
G36*
X0203204Y0200737D02*
X0199100Y0196633D01*
X0198266Y0197467D01*
X0202370Y0201571D01*
X0203204Y0200737D01*
G37*
G36*
X0201812Y0202128D02*
X0197708Y0198024D01*
X0196874Y0198858D01*
X0200978Y0202962D01*
X0201812Y0202128D01*
G37*
G36*
X0200420Y0203520D02*
X0196316Y0199416D01*
X0195482Y0200250D01*
X0199586Y0204354D01*
X0200420Y0203520D01*
G37*
G36*
X0199028Y0204912D02*
X0194924Y0200808D01*
X0194090Y0201642D01*
X0198194Y0205746D01*
X0199028Y0204912D01*
G37*
G36*
X0183856Y0205746D02*
X0187960Y0201642D01*
X0187126Y0200808D01*
X0183022Y0204912D01*
X0183856Y0205746D01*
G37*
G36*
X0182464Y0204354D02*
X0186568Y0200250D01*
X0185734Y0199416D01*
X0181630Y0203520D01*
X0182464Y0204354D01*
G37*
G36*
X0181072Y0202962D02*
X0185176Y0198858D01*
X0184342Y0198024D01*
X0180238Y0202128D01*
X0181072Y0202962D01*
G37*
G36*
X0179680Y0201571D02*
X0183784Y0197467D01*
X0182950Y0196633D01*
X0178846Y0200737D01*
X0179680Y0201571D01*
G37*
G36*
X0178288Y0200179D02*
X0182392Y0196075D01*
X0181558Y0195241D01*
X0177454Y0199345D01*
X0178288Y0200179D01*
G37*
G36*
X0176896Y0198787D02*
X0181000Y0194683D01*
X0180166Y0193849D01*
X0176062Y0197953D01*
X0176896Y0198787D01*
G37*
G36*
X0175504Y0197395D02*
X0179608Y0193291D01*
X0178774Y0192457D01*
X0174670Y0196561D01*
X0175504Y0197395D01*
G37*
G36*
X0174112Y0196003D02*
X0178216Y0191899D01*
X0177382Y0191065D01*
X0173278Y0195169D01*
X0174112Y0196003D01*
G37*
G36*
X0172720Y0194611D02*
X0176824Y0190507D01*
X0175990Y0189673D01*
X0171886Y0193777D01*
X0172720Y0194611D01*
G37*
G36*
X0171328Y0193219D02*
X0175432Y0189115D01*
X0174598Y0188281D01*
X0170494Y0192385D01*
X0171328Y0193219D01*
G37*
G36*
X0169936Y0191827D02*
X0174040Y0187723D01*
X0173206Y0186889D01*
X0169102Y0190993D01*
X0169936Y0191827D01*
G37*
G36*
X0168544Y0190435D02*
X0172648Y0186331D01*
X0171814Y0185497D01*
X0167710Y0189601D01*
X0168544Y0190435D01*
G37*
G36*
X0167152Y0189043D02*
X0171256Y0184939D01*
X0170422Y0184105D01*
X0166318Y0188209D01*
X0167152Y0189043D01*
G37*
G36*
X0165760Y0187651D02*
X0169864Y0183547D01*
X0169030Y0182713D01*
X0164926Y0186817D01*
X0165760Y0187651D01*
G37*
G36*
X0164368Y0186259D02*
X0168472Y0182155D01*
X0167638Y0181321D01*
X0163534Y0185425D01*
X0164368Y0186259D01*
G37*
G36*
X0162976Y0184867D02*
X0167080Y0180763D01*
X0166246Y0179929D01*
X0162142Y0184033D01*
X0162976Y0184867D01*
G37*
G36*
X0161585Y0183475D02*
X0165689Y0179371D01*
X0164855Y0178537D01*
X0160751Y0182641D01*
X0161585Y0183475D01*
G37*
G36*
X0160193Y0182083D02*
X0164297Y0177979D01*
X0163463Y0177145D01*
X0159359Y0181249D01*
X0160193Y0182083D01*
G37*
G36*
X0158801Y0180691D02*
X0162905Y0176587D01*
X0162071Y0175753D01*
X0157967Y0179857D01*
X0158801Y0180691D01*
G37*
G36*
X0157409Y0179299D02*
X0161513Y0175195D01*
X0160679Y0174361D01*
X0156575Y0178465D01*
X0157409Y0179299D01*
G37*
G36*
X0156017Y0177907D02*
X0160121Y0173803D01*
X0159287Y0172969D01*
X0155183Y0177073D01*
X0156017Y0177907D01*
G37*
G36*
X0154625Y0176516D02*
X0158729Y0172412D01*
X0157895Y0171578D01*
X0153791Y0175682D01*
X0154625Y0176516D01*
G37*
G36*
X0153233Y0175124D02*
X0157337Y0171020D01*
X0156503Y0170186D01*
X0152399Y0174290D01*
X0153233Y0175124D01*
G37*
G36*
X0151841Y0173732D02*
X0155945Y0169628D01*
X0155111Y0168794D01*
X0151007Y0172898D01*
X0151841Y0173732D01*
G37*
G36*
X0150449Y0172340D02*
X0154553Y0168236D01*
X0153719Y0167402D01*
X0149615Y0171506D01*
X0150449Y0172340D01*
G37*
G36*
X0149057Y0170948D02*
X0153161Y0166844D01*
X0152327Y0166010D01*
X0148223Y0170114D01*
X0149057Y0170948D01*
G37*
G36*
X0147665Y0169556D02*
X0151769Y0165452D01*
X0150935Y0164618D01*
X0146831Y0168722D01*
X0147665Y0169556D01*
G37*
G36*
X0146273Y0168164D02*
X0150377Y0164060D01*
X0149543Y0163226D01*
X0145439Y0167330D01*
X0146273Y0168164D01*
G37*
G36*
X0144881Y0166772D02*
X0148985Y0162668D01*
X0148151Y0161834D01*
X0144047Y0165938D01*
X0144881Y0166772D01*
G37*
G36*
X0143489Y0165380D02*
X0147593Y0161276D01*
X0146759Y0160442D01*
X0142655Y0164546D01*
X0143489Y0165380D01*
G37*
G36*
X0142097Y0163988D02*
X0146201Y0159884D01*
X0145367Y0159050D01*
X0141263Y0163154D01*
X0142097Y0163988D01*
G37*
G36*
X0140705Y0162596D02*
X0144809Y0158492D01*
X0143975Y0157658D01*
X0139871Y0161762D01*
X0140705Y0162596D01*
G37*
G36*
X0139313Y0161204D02*
X0143417Y0157100D01*
X0142583Y0156266D01*
X0138479Y0160370D01*
X0139313Y0161204D01*
G37*
G36*
X0137922Y0159812D02*
X0142026Y0155708D01*
X0141192Y0154874D01*
X0137088Y0158978D01*
X0137922Y0159812D01*
G37*
G36*
X0136530Y0158420D02*
X0140634Y0154316D01*
X0139800Y0153482D01*
X0135696Y0157586D01*
X0136530Y0158420D01*
G37*
G36*
X0135138Y0157028D02*
X0139242Y0152924D01*
X0138408Y0152090D01*
X0134304Y0156194D01*
X0135138Y0157028D01*
G37*
G36*
X0139242Y0145126D02*
X0135138Y0141022D01*
X0134304Y0141856D01*
X0138408Y0145960D01*
X0139242Y0145126D01*
G37*
G36*
X0140634Y0143734D02*
X0136530Y0139630D01*
X0135696Y0140464D01*
X0139800Y0144568D01*
X0140634Y0143734D01*
G37*
G36*
X0142026Y0142342D02*
X0137922Y0138238D01*
X0137088Y0139072D01*
X0141192Y0143176D01*
X0142026Y0142342D01*
G37*
G36*
X0143417Y0140950D02*
X0139313Y0136846D01*
X0138479Y0137680D01*
X0142583Y0141784D01*
X0143417Y0140950D01*
G37*
G36*
X0144809Y0139558D02*
X0140705Y0135454D01*
X0139871Y0136288D01*
X0143975Y0140392D01*
X0144809Y0139558D01*
G37*
G36*
X0146201Y0138166D02*
X0142097Y0134062D01*
X0141263Y0134896D01*
X0145367Y0139000D01*
X0146201Y0138166D01*
G37*
G36*
X0147593Y0136774D02*
X0143489Y0132670D01*
X0142655Y0133504D01*
X0146759Y0137608D01*
X0147593Y0136774D01*
G37*
G36*
X0148985Y0135382D02*
X0144881Y0131278D01*
X0144047Y0132112D01*
X0148151Y0136216D01*
X0148985Y0135382D01*
G37*
G36*
X0150377Y0133990D02*
X0146273Y0129886D01*
X0145439Y0130720D01*
X0149543Y0134824D01*
X0150377Y0133990D01*
G37*
G36*
X0151769Y0132598D02*
X0147665Y0128494D01*
X0146831Y0129328D01*
X0150935Y0133432D01*
X0151769Y0132598D01*
G37*
G36*
X0153161Y0131206D02*
X0149057Y0127102D01*
X0148223Y0127936D01*
X0152327Y0132040D01*
X0153161Y0131206D01*
G37*
G36*
X0154553Y0129814D02*
X0150449Y0125710D01*
X0149615Y0126544D01*
X0153719Y0130648D01*
X0154553Y0129814D01*
G37*
G36*
X0155945Y0128422D02*
X0151841Y0124318D01*
X0151007Y0125152D01*
X0155111Y0129256D01*
X0155945Y0128422D01*
G37*
G36*
X0157337Y0127030D02*
X0153233Y0122926D01*
X0152399Y0123760D01*
X0156503Y0127864D01*
X0157337Y0127030D01*
G37*
G36*
X0158729Y0125638D02*
X0154625Y0121534D01*
X0153791Y0122368D01*
X0157895Y0126472D01*
X0158729Y0125638D01*
G37*
G36*
X0160121Y0124246D02*
X0156017Y0120142D01*
X0155183Y0120976D01*
X0159287Y0125080D01*
X0160121Y0124246D01*
G37*
D20*
G36*
X0191025Y0168094D02*
X0210094Y0149025D01*
X0191025Y0129956D01*
X0171956Y0149025D01*
X0191025Y0168094D01*
G37*
D21*
X0065661Y0161525D03*
X0038889Y0161525D03*
X0038889Y0109025D03*
X0065661Y0109025D03*
X0065661Y0212775D03*
X0038889Y0212775D03*
D22*
X0198525Y0069409D03*
X0198525Y0061141D03*
X0208525Y0061141D03*
X0218525Y0061141D03*
X0228525Y0061141D03*
X0228525Y0069409D03*
X0218525Y0069409D03*
X0208525Y0069409D03*
X0238525Y0069409D03*
X0248525Y0069409D03*
X0248525Y0061141D03*
X0238525Y0061141D03*
X0258525Y0061141D03*
X0268525Y0061141D03*
X0268525Y0069409D03*
X0258525Y0069409D03*
X0094775Y0029409D03*
X0094775Y0021141D03*
D23*
X0092886Y0060275D02*
X0096664Y0060275D01*
X0096664Y0080275D02*
X0092886Y0080275D01*
X0124775Y0078414D02*
X0124775Y0074636D01*
X0144775Y0074636D02*
X0144775Y0078414D01*
D24*
X0058515Y0082588D03*
X0051035Y0082588D03*
X0054775Y0090856D03*
D25*
X0101025Y0141525D03*
X0106025Y0141525D03*
X0111025Y0141525D03*
X0116025Y0141525D03*
X0116025Y0154025D03*
X0111025Y0154025D03*
X0106025Y0154025D03*
X0101025Y0154025D03*
X0206025Y0089025D03*
X0211025Y0089025D03*
X0216025Y0089025D03*
X0221025Y0089025D03*
X0221025Y0076525D03*
X0216025Y0076525D03*
X0211025Y0076525D03*
X0206025Y0076525D03*
X0246025Y0076525D03*
X0251025Y0076525D03*
X0256025Y0076525D03*
X0261025Y0076525D03*
X0276025Y0071525D03*
X0281025Y0071525D03*
X0286025Y0071525D03*
X0291025Y0071525D03*
X0291025Y0059025D03*
X0286025Y0059025D03*
X0281025Y0059025D03*
X0276025Y0059025D03*
X0261025Y0089025D03*
X0256025Y0089025D03*
X0251025Y0089025D03*
X0246025Y0089025D03*
X0277275Y0122775D03*
X0282275Y0122775D03*
X0287275Y0122775D03*
X0292275Y0122775D03*
X0292275Y0135275D03*
X0287275Y0135275D03*
X0282275Y0135275D03*
X0277275Y0135275D03*
X0321025Y0070275D03*
X0326025Y0070275D03*
X0331025Y0070275D03*
X0336025Y0070275D03*
X0336025Y0057775D03*
X0331025Y0057775D03*
X0326025Y0057775D03*
X0321025Y0057775D03*
D26*
X0149775Y0027550D02*
X0149775Y0020500D01*
X0129775Y0020500D02*
X0129775Y0027550D01*
X0109775Y0027550D02*
X0109775Y0020500D01*
D27*
X0166242Y0019320D03*
X0180808Y0019320D03*
X0180808Y0043730D03*
X0166242Y0043730D03*
X0218742Y0043730D03*
X0233308Y0043730D03*
X0253742Y0043730D03*
X0268308Y0043730D03*
X0288742Y0043730D03*
X0303308Y0043730D03*
X0323742Y0043730D03*
X0338308Y0043730D03*
X0338308Y0019320D03*
X0323742Y0019320D03*
X0303308Y0019320D03*
X0288742Y0019320D03*
X0268308Y0019320D03*
X0253742Y0019320D03*
X0233308Y0019320D03*
X0218742Y0019320D03*
D28*
X0302275Y0087575D03*
X0312275Y0087575D03*
X0322275Y0087575D03*
X0332275Y0087575D03*
X0332275Y0122975D03*
X0322275Y0122975D03*
X0312275Y0122975D03*
X0302275Y0122975D03*
D29*
G36*
X0124129Y0104083D02*
X0127381Y0107335D01*
X0131835Y0102881D01*
X0128583Y0099629D01*
X0124129Y0104083D01*
G37*
G36*
X0119886Y0099840D02*
X0123138Y0103092D01*
X0127592Y0098638D01*
X0124340Y0095386D01*
X0119886Y0099840D01*
G37*
G36*
X0115644Y0095598D02*
X0118896Y0098850D01*
X0123350Y0094396D01*
X0120098Y0091144D01*
X0115644Y0095598D01*
G37*
D30*
X0087275Y0111025D03*
X0087275Y0117025D03*
X0087275Y0163525D03*
X0087275Y0169525D03*
X0087275Y0214775D03*
X0087275Y0220775D03*
D31*
X0087275Y0217775D03*
X0087275Y0166525D03*
X0087275Y0114025D03*
D32*
X0041015Y0129301D03*
X0037275Y0129301D03*
X0033535Y0129301D03*
X0033574Y0139419D03*
X0041015Y0139419D03*
X0041015Y0181801D03*
X0037275Y0181801D03*
X0033535Y0181801D03*
X0033574Y0191919D03*
X0041015Y0191919D03*
X0041015Y0233051D03*
X0037275Y0233051D03*
X0033535Y0233051D03*
X0033574Y0243169D03*
X0041015Y0243169D03*
D33*
G36*
X0112842Y0118491D02*
X0111172Y0120161D01*
X0117294Y0126283D01*
X0118964Y0124613D01*
X0112842Y0118491D01*
G37*
G36*
X0116377Y0114956D02*
X0114707Y0116626D01*
X0120829Y0122748D01*
X0122499Y0121078D01*
X0116377Y0114956D01*
G37*
G36*
X0119913Y0111420D02*
X0118243Y0113090D01*
X0124365Y0119212D01*
X0126035Y0117542D01*
X0119913Y0111420D01*
G37*
G36*
X0123448Y0107885D02*
X0121778Y0109555D01*
X0127900Y0115677D01*
X0129570Y0114007D01*
X0123448Y0107885D01*
G37*
G36*
X0108972Y0093409D02*
X0107302Y0095079D01*
X0113424Y0101201D01*
X0115094Y0099531D01*
X0108972Y0093409D01*
G37*
G36*
X0105437Y0096944D02*
X0103767Y0098614D01*
X0109889Y0104736D01*
X0111559Y0103066D01*
X0105437Y0096944D01*
G37*
G36*
X0101901Y0100480D02*
X0100231Y0102150D01*
X0106353Y0108272D01*
X0108023Y0106602D01*
X0101901Y0100480D01*
G37*
G36*
X0098365Y0104015D02*
X0096695Y0105685D01*
X0102817Y0111807D01*
X0104487Y0110137D01*
X0098365Y0104015D01*
G37*
D34*
G36*
X0141982Y0095965D02*
X0138086Y0092069D01*
X0137252Y0092903D01*
X0141148Y0096799D01*
X0141982Y0095965D01*
G37*
G36*
X0143374Y0094573D02*
X0139478Y0090677D01*
X0138644Y0091511D01*
X0142540Y0095407D01*
X0143374Y0094573D01*
G37*
G36*
X0144765Y0093181D02*
X0140869Y0089285D01*
X0140035Y0090119D01*
X0143931Y0094015D01*
X0144765Y0093181D01*
G37*
G36*
X0146157Y0091790D02*
X0142261Y0087894D01*
X0141427Y0088728D01*
X0145323Y0092624D01*
X0146157Y0091790D01*
G37*
G36*
X0147549Y0090398D02*
X0143653Y0086502D01*
X0142819Y0087336D01*
X0146715Y0091232D01*
X0147549Y0090398D01*
G37*
G36*
X0159798Y0102647D02*
X0155902Y0098751D01*
X0155068Y0099585D01*
X0158964Y0103481D01*
X0159798Y0102647D01*
G37*
G36*
X0158406Y0104039D02*
X0154510Y0100143D01*
X0153676Y0100977D01*
X0157572Y0104873D01*
X0158406Y0104039D01*
G37*
G36*
X0157015Y0105431D02*
X0153119Y0101535D01*
X0152285Y0102369D01*
X0156181Y0106265D01*
X0157015Y0105431D01*
G37*
G36*
X0155623Y0106822D02*
X0151727Y0102926D01*
X0150893Y0103760D01*
X0154789Y0107656D01*
X0155623Y0106822D01*
G37*
G36*
X0154231Y0108214D02*
X0150335Y0104318D01*
X0149501Y0105152D01*
X0153397Y0109048D01*
X0154231Y0108214D01*
G37*
D35*
X0303505Y0280836D03*
X0338545Y0280836D03*
D36*
X0338545Y0257608D03*
X0303505Y0257608D03*
D37*
X0314726Y0257214D03*
X0317875Y0257214D03*
X0321025Y0257214D03*
X0324175Y0257214D03*
X0327324Y0257214D03*
D38*
X0329686Y0269025D03*
X0312364Y0269025D03*
X0024500Y0033536D03*
X0024500Y0016214D03*
D39*
X0028525Y0266525D03*
X0038525Y0266525D03*
X0048525Y0266525D03*
X0058525Y0266525D03*
X0068525Y0266525D03*
X0078525Y0266525D03*
X0088525Y0266525D03*
X0098525Y0266525D03*
X0108525Y0266525D03*
X0118525Y0266525D03*
X0128525Y0266525D03*
X0138525Y0266525D03*
X0148525Y0266525D03*
X0158525Y0266525D03*
X0168525Y0266525D03*
X0178525Y0266525D03*
X0188525Y0266525D03*
X0198525Y0266525D03*
X0208525Y0266525D03*
X0218525Y0266525D03*
X0218525Y0276525D03*
X0208525Y0276525D03*
X0198525Y0276525D03*
X0188525Y0276525D03*
X0178525Y0276525D03*
X0168525Y0276525D03*
X0158525Y0276525D03*
X0148525Y0276525D03*
X0138525Y0276525D03*
X0128525Y0276525D03*
X0118525Y0276525D03*
X0108525Y0276525D03*
X0098525Y0276525D03*
X0088525Y0276525D03*
X0078525Y0276525D03*
X0068525Y0276525D03*
X0058525Y0276525D03*
X0048525Y0276525D03*
X0038525Y0276525D03*
X0028525Y0276525D03*
D40*
X0241074Y0257224D03*
X0243043Y0257224D03*
X0245011Y0257224D03*
X0246980Y0257224D03*
X0248948Y0257224D03*
X0250917Y0257224D03*
X0252885Y0257224D03*
X0254854Y0257224D03*
X0256822Y0257224D03*
X0258791Y0257224D03*
X0260759Y0257224D03*
X0262728Y0257224D03*
X0264696Y0257224D03*
X0266665Y0257224D03*
X0268633Y0257224D03*
X0270602Y0257224D03*
X0272570Y0257224D03*
X0274539Y0257224D03*
X0276507Y0257224D03*
D41*
X0288318Y0260964D03*
X0290681Y0280255D03*
X0228869Y0280255D03*
X0231232Y0260964D03*
D42*
X0278525Y0112775D03*
X0278525Y0107775D03*
X0278525Y0102775D03*
X0278525Y0097775D03*
X0291025Y0097775D03*
X0291025Y0102775D03*
X0291025Y0107775D03*
X0291025Y0112775D03*
D43*
X0115218Y0163651D03*
X0108525Y0163651D03*
X0101832Y0163651D03*
X0101832Y0179399D03*
X0108525Y0179399D03*
X0115218Y0179399D03*
D44*
X0091025Y0015175D02*
X0091025Y0010375D01*
X0081025Y0010375D02*
X0081025Y0015175D01*
X0071025Y0015175D02*
X0071025Y0010375D01*
X0061025Y0010375D02*
X0061025Y0015175D01*
X0051025Y0015175D02*
X0051025Y0010375D01*
D45*
X0333025Y0222775D02*
X0339025Y0222775D01*
X0339025Y0232775D02*
X0333025Y0232775D01*
D46*
X0012689Y0042395D03*
X0012689Y0007355D03*
D47*
X0035917Y0007355D03*
X0035917Y0042395D03*
D48*
X0036311Y0031174D03*
X0036311Y0028025D03*
X0036311Y0024875D03*
X0036311Y0021725D03*
X0036311Y0018576D03*
D49*
X0020213Y0078075D03*
X0020213Y0089475D03*
D50*
G36*
X0361541Y0260187D02*
X0360707Y0259353D01*
X0356255Y0263805D01*
X0357089Y0264639D01*
X0361541Y0260187D01*
G37*
G36*
X0362933Y0261579D02*
X0362099Y0260745D01*
X0357647Y0265197D01*
X0358481Y0266031D01*
X0362933Y0261579D01*
G37*
G36*
X0364325Y0262971D02*
X0363491Y0262137D01*
X0359039Y0266589D01*
X0359873Y0267423D01*
X0364325Y0262971D01*
G37*
G36*
X0365717Y0264363D02*
X0364883Y0263529D01*
X0360431Y0267981D01*
X0361265Y0268815D01*
X0365717Y0264363D01*
G37*
G36*
X0367109Y0265755D02*
X0366275Y0264921D01*
X0361823Y0269373D01*
X0362657Y0270207D01*
X0367109Y0265755D01*
G37*
G36*
X0368501Y0267146D02*
X0367667Y0266312D01*
X0363215Y0270764D01*
X0364049Y0271598D01*
X0368501Y0267146D01*
G37*
G36*
X0369893Y0268538D02*
X0369059Y0267704D01*
X0364607Y0272156D01*
X0365441Y0272990D01*
X0369893Y0268538D01*
G37*
G36*
X0371285Y0269930D02*
X0370451Y0269096D01*
X0365999Y0273548D01*
X0366833Y0274382D01*
X0371285Y0269930D01*
G37*
G36*
X0388545Y0252670D02*
X0387711Y0251836D01*
X0383259Y0256288D01*
X0384093Y0257122D01*
X0388545Y0252670D01*
G37*
G36*
X0387153Y0251278D02*
X0386319Y0250444D01*
X0381867Y0254896D01*
X0382701Y0255730D01*
X0387153Y0251278D01*
G37*
G36*
X0385761Y0249886D02*
X0384927Y0249052D01*
X0380475Y0253504D01*
X0381309Y0254338D01*
X0385761Y0249886D01*
G37*
G36*
X0384369Y0248494D02*
X0383535Y0247660D01*
X0379083Y0252112D01*
X0379917Y0252946D01*
X0384369Y0248494D01*
G37*
G36*
X0382977Y0247102D02*
X0382143Y0246268D01*
X0377691Y0250720D01*
X0378525Y0251554D01*
X0382977Y0247102D01*
G37*
G36*
X0381585Y0245711D02*
X0380751Y0244877D01*
X0376299Y0249329D01*
X0377133Y0250163D01*
X0381585Y0245711D01*
G37*
G36*
X0380193Y0244319D02*
X0379359Y0243485D01*
X0374907Y0247937D01*
X0375741Y0248771D01*
X0380193Y0244319D01*
G37*
G36*
X0378801Y0242927D02*
X0377967Y0242093D01*
X0373515Y0246545D01*
X0374349Y0247379D01*
X0378801Y0242927D01*
G37*
D51*
G36*
X0371285Y0246545D02*
X0366833Y0242093D01*
X0365999Y0242927D01*
X0370451Y0247379D01*
X0371285Y0246545D01*
G37*
G36*
X0369893Y0247937D02*
X0365441Y0243485D01*
X0364607Y0244319D01*
X0369059Y0248771D01*
X0369893Y0247937D01*
G37*
G36*
X0368501Y0249329D02*
X0364049Y0244877D01*
X0363215Y0245711D01*
X0367667Y0250163D01*
X0368501Y0249329D01*
G37*
G36*
X0367109Y0250720D02*
X0362657Y0246268D01*
X0361823Y0247102D01*
X0366275Y0251554D01*
X0367109Y0250720D01*
G37*
G36*
X0365717Y0252112D02*
X0361265Y0247660D01*
X0360431Y0248494D01*
X0364883Y0252946D01*
X0365717Y0252112D01*
G37*
G36*
X0364325Y0253504D02*
X0359873Y0249052D01*
X0359039Y0249886D01*
X0363491Y0254338D01*
X0364325Y0253504D01*
G37*
G36*
X0362933Y0254896D02*
X0358481Y0250444D01*
X0357647Y0251278D01*
X0362099Y0255730D01*
X0362933Y0254896D01*
G37*
G36*
X0361541Y0256288D02*
X0357089Y0251836D01*
X0356255Y0252670D01*
X0360707Y0257122D01*
X0361541Y0256288D01*
G37*
G36*
X0381585Y0270764D02*
X0377133Y0266312D01*
X0376299Y0267146D01*
X0380751Y0271598D01*
X0381585Y0270764D01*
G37*
G36*
X0382977Y0269373D02*
X0378525Y0264921D01*
X0377691Y0265755D01*
X0382143Y0270207D01*
X0382977Y0269373D01*
G37*
G36*
X0384369Y0267981D02*
X0379917Y0263529D01*
X0379083Y0264363D01*
X0383535Y0268815D01*
X0384369Y0267981D01*
G37*
G36*
X0385761Y0266589D02*
X0381309Y0262137D01*
X0380475Y0262971D01*
X0384927Y0267423D01*
X0385761Y0266589D01*
G37*
G36*
X0387153Y0265197D02*
X0382701Y0260745D01*
X0381867Y0261579D01*
X0386319Y0266031D01*
X0387153Y0265197D01*
G37*
G36*
X0388545Y0263805D02*
X0384093Y0259353D01*
X0383259Y0260187D01*
X0387711Y0264639D01*
X0388545Y0263805D01*
G37*
G36*
X0380193Y0272156D02*
X0375741Y0267704D01*
X0374907Y0268538D01*
X0379359Y0272990D01*
X0380193Y0272156D01*
G37*
G36*
X0378801Y0273548D02*
X0374349Y0269096D01*
X0373515Y0269930D01*
X0377967Y0274382D01*
X0378801Y0273548D01*
G37*
D52*
X0378284Y0227612D03*
X0376316Y0227612D03*
X0375834Y0224550D03*
X0373866Y0224550D03*
X0372772Y0221487D03*
X0370803Y0221487D03*
X0370322Y0224550D03*
X0368353Y0224550D03*
X0367259Y0221487D03*
X0365291Y0221487D03*
X0364809Y0224550D03*
X0362841Y0224550D03*
X0359909Y0224550D03*
X0357941Y0224550D03*
X0356847Y0221487D03*
X0354878Y0221487D03*
X0354397Y0224550D03*
X0352428Y0224550D03*
X0351334Y0221487D03*
X0349366Y0221487D03*
X0349366Y0227612D03*
X0351334Y0227612D03*
X0354878Y0227612D03*
X0356847Y0227612D03*
X0360391Y0227612D03*
X0362359Y0227612D03*
X0365291Y0227612D03*
X0367259Y0227612D03*
X0370803Y0227612D03*
X0372772Y0227612D03*
X0378766Y0224550D03*
X0380734Y0224550D03*
X0381216Y0221487D03*
X0383184Y0221487D03*
X0384278Y0224550D03*
X0386247Y0224550D03*
X0386728Y0221487D03*
X0388697Y0221487D03*
X0389791Y0224550D03*
X0391759Y0224550D03*
X0392241Y0221487D03*
X0394209Y0221487D03*
X0394209Y0227612D03*
X0392241Y0227612D03*
X0388697Y0227612D03*
X0386728Y0227612D03*
X0383184Y0227612D03*
X0381216Y0227612D03*
X0377672Y0221487D03*
X0375703Y0221487D03*
X0361747Y0221487D03*
X0359778Y0221487D03*
D53*
X0361878Y0211075D03*
X0366997Y0211075D03*
X0366778Y0206175D03*
X0371897Y0206175D03*
X0373516Y0211075D03*
X0378634Y0211075D03*
X0378416Y0206175D03*
X0383534Y0206175D03*
X0385153Y0211075D03*
X0390272Y0211075D03*
X0390884Y0201275D03*
X0385766Y0201275D03*
X0379247Y0201275D03*
X0374128Y0201275D03*
X0366384Y0201275D03*
X0361266Y0201275D03*
X0360259Y0206175D03*
X0355141Y0206175D03*
X0355359Y0211075D03*
X0350241Y0211075D03*
X0349628Y0201275D03*
X0354747Y0201275D03*
D54*
X0352122Y0159013D03*
X0359603Y0159013D03*
X0367435Y0159013D03*
X0374915Y0159013D03*
X0382747Y0159013D03*
X0390228Y0159013D03*
X0384715Y0149825D03*
X0377235Y0149825D03*
X0365728Y0149825D03*
X0358247Y0149825D03*
X0357765Y0140638D03*
X0350285Y0140638D03*
X0367435Y0140638D03*
X0374915Y0140638D03*
X0384585Y0140638D03*
X0392065Y0140638D03*
D55*
X0386487Y0125325D03*
X0388324Y0114912D03*
X0377301Y0114912D03*
X0375463Y0125325D03*
X0366887Y0125325D03*
X0365049Y0114912D03*
X0354026Y0114912D03*
X0355863Y0125325D03*
D56*
X0354637Y0095596D03*
X0352078Y0095596D03*
X0357197Y0095596D03*
X0363716Y0095596D03*
X0366275Y0095596D03*
X0368834Y0095596D03*
X0375353Y0095596D03*
X0377912Y0095596D03*
X0380472Y0095596D03*
X0386991Y0095596D03*
X0389550Y0095596D03*
X0392109Y0095596D03*
X0392109Y0088904D03*
X0389550Y0088904D03*
X0386991Y0088904D03*
X0380472Y0088904D03*
X0377912Y0088904D03*
X0375353Y0088904D03*
X0368834Y0088904D03*
X0366275Y0088904D03*
X0363716Y0088904D03*
X0357197Y0088904D03*
X0354637Y0088904D03*
X0352078Y0088904D03*
D57*
X0371175Y0068975D03*
D58*
X0363301Y0067695D03*
X0363301Y0065136D03*
X0363301Y0070255D03*
X0363301Y0072814D03*
X0379049Y0072814D03*
X0379049Y0070255D03*
X0379049Y0067695D03*
X0379049Y0065136D03*
D59*
X0375014Y0061101D03*
X0372455Y0061101D03*
X0369895Y0061101D03*
X0367336Y0061101D03*
X0367336Y0076849D03*
X0369895Y0076849D03*
X0372455Y0076849D03*
X0375014Y0076849D03*
D60*
X0375944Y0043163D03*
X0363081Y0043163D03*
X0350219Y0043163D03*
X0389419Y0043163D03*
D61*
X0393947Y0043163D03*
X0393947Y0049462D03*
X0388828Y0049462D03*
X0380472Y0049462D03*
X0375353Y0049462D03*
X0367609Y0049462D03*
X0362491Y0049462D03*
X0354747Y0049462D03*
X0349628Y0049462D03*
X0354747Y0043163D03*
X0367609Y0043163D03*
X0380472Y0043163D03*
D62*
X0384650Y0026624D03*
X0384650Y0010876D03*
X0360762Y0010876D03*
X0360762Y0026624D03*
D63*
X0330138Y0008338D03*
X0313600Y0019975D03*
X0306863Y0007112D03*
X0290938Y0007112D03*
X0295838Y0019975D03*
X0279300Y0018750D03*
X0261537Y0019363D03*
X0261537Y0031612D03*
X0243162Y0033450D03*
X0243162Y0043862D03*
X0226012Y0032838D03*
X0210087Y0022425D03*
X0218050Y0007112D03*
X0240100Y0007112D03*
X0243775Y0019975D03*
X0265213Y0007112D03*
X0295838Y0035288D03*
X0305638Y0054275D03*
X0301350Y0067138D03*
X0311763Y0077550D03*
X0290938Y0087962D03*
X0296450Y0117362D03*
X0270113Y0125325D03*
X0252350Y0143088D03*
X0259087Y0150438D03*
X0252962Y0161463D03*
X0262763Y0171263D03*
X0270113Y0160850D03*
X0290325Y0143700D03*
X0305025Y0136350D03*
X0238262Y0086737D03*
X0230300Y0081838D03*
X0211925Y0053662D03*
X0173337Y0020588D03*
X0140263Y0032838D03*
X0118825Y0033450D03*
X0102287Y0042025D03*
X0088525Y0040275D03*
X0115762Y0059175D03*
X0088200Y0086125D03*
X0066025Y0087775D03*
X0066763Y0095312D03*
X0050225Y0103275D03*
X0060637Y0122875D03*
X0057575Y0143700D03*
X0078400Y0144313D03*
X0087275Y0155275D03*
X0078400Y0157788D03*
X0092487Y0145538D03*
X0099837Y0134513D03*
X0135975Y0170038D03*
X0161088Y0189025D03*
X0169050Y0197600D03*
X0188037Y0194537D03*
X0192275Y0234000D03*
X0192275Y0251525D03*
X0254187Y0271100D03*
X0265213Y0271100D03*
X0296450Y0269875D03*
X0283588Y0238025D03*
X0273175Y0234962D03*
X0261537Y0229450D03*
X0289713Y0224550D03*
X0287875Y0210462D03*
X0298288Y0200662D03*
X0336263Y0078163D03*
X0156800Y0054887D03*
X0044775Y0046525D03*
X0046550Y0023037D03*
X0028525Y0075275D03*
X0012275Y0104025D03*
X0026950Y0110012D03*
X0029400Y0143088D03*
X0033688Y0151663D03*
X0061250Y0174937D03*
X0054512Y0196375D03*
X0071050Y0195762D03*
X0081463Y0198212D03*
X0081463Y0208012D03*
X0107275Y0189025D03*
X0097387Y0187800D03*
X0126025Y0202162D03*
X0131000Y0197162D03*
X0033688Y0177387D03*
X0028787Y0193925D03*
X0029400Y0215362D03*
X0020213Y0216587D03*
X0019600Y0228225D03*
D64*
X0173525Y0241525D03*
X0224775Y0256525D03*
D65*
X0065661Y0225275D03*
X0024775Y0251525D03*
X0087275Y0096525D03*
X0156025Y0065275D03*
X0176025Y0057775D03*
X0172275Y0045275D03*
M02*
